<?xml version="1.0" encoding="UTF-8" standalone="no"?><!DOCTYPE svg PUBLIC "-//W3C//DTD SVG 1.1//EN" "http://www.w3.org/Graphics/SVG/1.1/DTD/svg11.dtd"><svg width="100%" height="100%" viewBox="0 0 709 709" version="1.1" xmlns="http://www.w3.org/2000/svg" xmlns:xlink="http://www.w3.org/1999/xlink" xml:space="preserve" xmlns:serif="http://www.serif.com/" style="fill-rule:evenodd;clip-rule:evenodd;stroke-linejoin:round;stroke-miterlimit:2;"><circle cx="352.687" cy="326.993" r="280.767" style="fill:#fff;"/><g id="LOGO"><path d="M358.52,56.045c-73.377,-5.335 -166.861,31.407 -176.695,78.351c-14.926,71.254 234.144,158.492 205.954,259.013c-28.19,100.522 -49.992,152.314 45.636,180.735c30.309,9.008 80.111,-21.756 120.432,-63.715c108.382,-112.785 120.118,-431.448 -195.327,-454.384Z" style="fill:#ffc088;fill-opacity:0.2;"/><g id="ENERGIE"><path d="M350.295,71.305l-3.452,-0.053c-27.999,0.23 -54.876,5.11 -79.909,13.906c-25.874,9.091 -49.781,22.344 -70.89,38.994c-29.27,23.085 -53.166,52.664 -69.517,86.543c-15.756,32.647 -24.525,69.282 -24.267,107.951c0.194,33.177 7.007,64.774 19.167,93.561c12.571,29.762 30.852,56.523 53.498,78.874c10.333,10.218 21.573,19.518 33.59,27.767c11.933,8.193 24.63,15.349 37.963,21.338c15.552,7.016 31.973,12.432 49.049,16.075c16.55,3.531 33.716,5.399 51.316,5.38c27.977,0.034 54.854,-4.693 79.894,-13.357c25.965,-8.984 49.961,-22.208 71.12,-38.889c8.758,-6.896 17.028,-14.386 24.762,-22.395c7.735,-8.01 14.935,-16.54 21.529,-25.544c14.927,-20.364 26.754,-43.137 34.837,-67.615c7.817,-23.669 12.131,-48.936 12.292,-75.195c0.14,-20.818 -2.342,-41.047 -7.109,-60.384c-4.935,-20.025 -12.329,-39.09 -21.852,-56.856c-4.052,-7.561 -8.492,-14.884 -13.288,-21.948c-4.818,-7.094 -9.998,-13.921 -15.513,-20.46c-22.752,-27.005 -51.227,-49.032 -83.539,-64.276c-30.341,-14.315 -64.07,-22.625 -99.681,-23.417Zm-8.497,9.687c-25.165,0.316 -49.409,4.54 -72.137,12.128c-25.186,8.408 -48.511,20.922 -69.187,36.735c-28.843,22.061 -52.55,50.527 -68.94,83.3c-15.893,31.779 -24.914,67.589 -25.166,105.491c-0.192,32.694 6.147,63.916 17.819,92.413c12.12,29.59 29.979,56.24 52.168,78.588c10.171,10.225 21.251,19.546 33.109,27.831c11.792,8.24 24.353,15.455 37.555,21.517c15.44,7.061 31.749,12.557 48.728,16.245c16.47,3.577 33.567,5.451 51.096,5.471c27.858,-0.034 54.625,-4.762 79.523,-13.491c25.783,-9.039 49.556,-22.365 70.501,-39.073c8.65,-6.908 16.82,-14.393 24.438,-22.407c7.609,-8.006 14.666,-16.54 21.125,-25.53c14.572,-20.301 26.084,-42.943 33.816,-67.257c7.45,-23.429 11.382,-48.407 11.224,-74.307c-0.138,-20.46 -2.828,-40.31 -7.782,-59.246c-5.111,-19.537 -12.639,-38.093 -22.222,-55.347c-4.069,-7.325 -8.511,-14.413 -13.298,-21.241c-4.802,-6.848 -9.953,-13.431 -15.426,-19.727c-22.511,-25.872 -50.478,-46.861 -82.098,-61.147c-30.429,-13.749 -64.243,-21.259 -99.801,-20.957l-2.525,-0.008l-2.52,0.019Z" style="fill:#ff7905;"/><path d="M355.464,92.553c-67.708,0.816 -128.635,29.029 -172.633,73.858c-17.84,18.176 -32.818,39.105 -44.508,62.005c-8.62,16.888 -15.49,34.827 -20.177,53.656c-4.547,18.268 -7.142,37.329 -7.373,56.972c-0.992,67.916 25.771,129.821 69.728,174.963c31.43,32.278 71.636,56.081 116.81,67.287c18.631,4.622 38.122,6.991 58.153,7.073c33.746,-0.243 65.935,-7.067 95.159,-19.579c30.153,-12.909 57.126,-31.783 79.609,-54.976c31.088,-32.069 53.442,-72.535 63.553,-117.556c4.131,-18.394 6.264,-37.541 6.023,-57.212c-0.083,-26.337 -4.445,-51.657 -12.142,-75.441c-12.009,-37.112 -32.401,-70.449 -59.157,-97.604c-44.134,-44.794 -105.259,-72.836 -173.045,-73.446Zm-0,6.296c66.523,-0.599 127.067,25.857 171.026,69.169c26.913,26.516 47.73,59.306 59.731,96.055c7.704,23.591 11.668,48.824 11.586,74.971c-0.239,19.453 -2.737,38.35 -7.338,56.418c-11.128,43.704 -34.358,82.501 -65.702,112.886c-22.337,21.654 -48.891,38.88 -78.201,50.667c-28.156,11.324 -58.886,17.624 -91.102,17.392c-25.62,0.14 -50.294,-3.861 -73.487,-11.172c-36.302,-11.443 -68.965,-31.136 -95.622,-57.082c-44.144,-42.968 -71.917,-102.707 -72.887,-169.109c-0.229,-19.481 1.798,-38.464 5.988,-56.658c4.335,-18.83 10.868,-36.854 19.465,-53.665c11.651,-22.78 27.016,-43.362 45.105,-61.115c44.099,-43.282 104.832,-69.56 171.438,-68.757Z" style="fill:#ff7905;"/><path d="M349.126,76.687c-70.893,1.304 -134.656,30.957 -180.351,78.266c-45.102,46.695 -72.774,110.377 -71.632,180.351c0.843,69.22 29.686,131.486 75.484,176.499c45.491,44.711 107.739,72.529 176.499,72.176c68.778,0.401 131.073,-27.375 176.593,-72.082c45.838,-45.02 74.68,-107.336 75.523,-176.593c1.119,-70.002 -26.582,-133.701 -71.717,-180.399c-45.717,-47.298 -109.498,-76.939 -180.399,-78.218Zm-0,30.548c63.422,-1.144 121.363,23.502 163.672,64.397c42.906,41.47 69.87,99.354 70.897,163.672c0.793,65.057 -24.8,124.42 -67.091,167.479c-42.594,43.369 -101.95,70.151 -167.478,70.533c-65.547,-0.336 -124.952,-27.073 -167.573,-70.439c-42.33,-43.068 -67.924,-102.479 -67.131,-167.573c1.05,-64.346 28.044,-122.247 70.983,-163.72c42.331,-40.887 100.288,-65.515 163.721,-64.349Z" style="fill:#ff7905;fill-opacity:0.15;"/></g><path d="M8.69,487.354c-0,0 237.038,-51.088 386.299,84.323c149.262,135.411 -240.718,64.843 -386.299,-84.323Z" style="fill:url(#_Linear1);"/><path d="M305.702,652.804c-0,-0 129.321,-205.117 330.5,-217.042c201.178,-11.925 -122.068,217.37 -330.5,217.042Z" style="fill:url(#_Linear2);"/></g><defs><linearGradient id="_Linear1" x1="0" y1="0" x2="1" y2="0" gradientUnits="userSpaceOnUse" gradientTransform="matrix(281.982,279.296,-149.35,150.786,83.3358,411.991)"><stop offset="0" style="stop-color:#f67;stop-opacity:0.6"/><stop offset="1" style="stop-color:#ffc0c1;stop-opacity:0.6"/></linearGradient><linearGradient id="_Linear2" x1="0" y1="0" x2="1" y2="0" gradientUnits="userSpaceOnUse" gradientTransform="matrix(396.841,-6.10188,3.2629,212.205,304.071,546.742)"><stop offset="0" style="stop-color:#f67;stop-opacity:0.9"/><stop offset="1" style="stop-color:#ffc0c1;stop-opacity:0.9"/></linearGradient></defs></svg>