<?xml version="1.0" encoding="UTF-8" standalone="no"?><!DOCTYPE svg PUBLIC "-//W3C//DTD SVG 1.1//EN" "http://www.w3.org/Graphics/SVG/1.1/DTD/svg11.dtd"><svg width="100%" height="100%" viewBox="0 0 100 100" version="1.1" xmlns="http://www.w3.org/2000/svg" xmlns:xlink="http://www.w3.org/1999/xlink" xml:space="preserve" xmlns:serif="http://www.serif.com/" style="fill-rule:evenodd;clip-rule:evenodd;stroke-linejoin:round;stroke-miterlimit:2;"><path d="M79.167,4.167l-58.334,-0c-11.423,0.013 -20.819,9.409 -20.833,20.833l0,50c0.014,11.424 9.41,20.82 20.833,20.833l58.334,0c11.423,-0.013 20.819,-9.409 20.833,-20.833l0,-50c-0.014,-11.424 -9.41,-20.82 -20.833,-20.833Zm-58.334,8.333l58.334,0c5.093,0.01 9.693,3.132 11.583,7.863l-31.908,31.912c-4.857,4.837 -12.827,4.837 -17.684,0l-31.908,-31.912c1.89,-4.731 6.49,-7.853 11.583,-7.863Zm58.334,75l-58.334,0c-6.857,0 -12.5,-5.643 -12.5,-12.5l0,-43.75l26.934,26.917c8.088,8.068 21.378,8.068 29.466,-0l26.934,-26.917l-0,43.75c-0,6.857 -5.643,12.5 -12.5,12.5Z" style="fill:#ff860b;fill-rule:nonzero;"/></svg>