<?xml version="1.0" encoding="UTF-8" standalone="no"?><!DOCTYPE svg PUBLIC "-//W3C//DTD SVG 1.1//EN" "http://www.w3.org/Graphics/SVG/1.1/DTD/svg11.dtd"><svg width="100%" height="100%" viewBox="0 0 2084 2084" version="1.1" xmlns="http://www.w3.org/2000/svg" xmlns:xlink="http://www.w3.org/1999/xlink" xml:space="preserve" xmlns:serif="http://www.serif.com/" style="fill-rule:evenodd;clip-rule:evenodd;stroke-linejoin:round;stroke-miterlimit:2;"><g id="PLANT"><path d="M1393.82,521.725c-0,-0 81.812,-60.33 44.866,-92.553c-86.802,-72.279 -311.084,174.969 -305.278,200.816c5.807,25.848 278.099,75.395 324.688,-49.293c30.13,-76.479 -64.276,-58.97 -64.276,-58.97Z" style="fill:#5d8c78;fill-rule:nonzero;"/><path d="M1393.82,521.725c-0,-0 -68.421,5.374 -260.412,108.263c5.807,25.848 278.099,75.395 324.688,-49.293c30.13,-76.479 -64.276,-58.97 -64.276,-58.97Z" style="fill:#70aa8f;fill-rule:nonzero;"/><path d="M1222.53,587.16l-2.251,-4.626c205.106,-99.711 335.106,-101.159 386.382,-4.337l-4.55,2.402c-49.726,-93.898 -177.44,-91.695 -379.581,6.561Z" style="fill:#32675e;fill-rule:nonzero;"/><path d="M1144.25,627.984l-2.492,-4.509c16.232,-8.984 32.203,-17.529 47.461,-25.388l2.361,4.578c-15.216,7.831 -31.14,16.349 -47.33,25.319Z" style="fill:#32675e;fill-rule:nonzero;"/><path d="M1709.31,565.987l-140.906,-0c0,-0 -96.293,400.041 -87.68,457.185c8.614,57.145 43.837,87.674 43.837,87.674l228.593,-0c-0,-0 35.23,-30.529 43.836,-87.674c8.614,-57.144 -87.68,-457.185 -87.68,-457.185Z" style="fill:#c99867;fill-rule:nonzero;"/><rect x="1563.76" y="582.274" width="150.199" height="5.148" style="fill:#233452;fill-rule:nonzero;"/><rect x="1480.3" y="1015.83" width="316.691" height="5.148" style="fill:#233452;fill-rule:nonzero;"/><rect x="1452.08" y="1110.85" width="373.562" height="59.307" style="fill:#2e3a55;fill-rule:nonzero;"/><path d="M1458.36,1942.94l-5.141,-0.254l39.711,-787.926l5.141,0.254l-39.711,787.926Z" style="fill:#233452;fill-rule:nonzero;"/><path d="M1819.35,1942.94l-39.704,-787.926l5.147,-0.254l39.705,787.926l-5.148,0.254Z" style="fill:#233452;fill-rule:nonzero;"/><rect x="1463.8" y="1781.33" width="350.116" height="5.148" style="fill:#233452;fill-rule:nonzero;"/><rect x="1469.56" y="1667.03" width="338.6" height="5.148" style="fill:#233452;fill-rule:nonzero;"/><path d="M1903.99,603.029c-0,-0 -81.112,-61.27 -101.489,-16.678c-44.599,103.774 195.559,290.452 218.682,277.535c23.122,-12.917 53.843,-330.068 -78.943,-339.258c-81.894,-7.131 -38.25,78.401 -38.25,78.401Z" style="fill:#5d8c78;fill-rule:nonzero;"/><path d="M1903.99,603.029c-0,-0 -81.112,-61.27 -101.489,-16.678c-44.599,103.774 195.559,290.452 218.682,277.535c-6.644,-60.933 -75.848,-235.785 -117.193,-260.857Z" style="fill:#70aa8f;fill-rule:nonzero;"/><path d="M1589.34,336.461c-0,-0 3.912,81.42 -61.064,73.596c-64.976,-7.831 -13.301,-241.338 -13.301,-241.338c-0,-0 209.793,122.34 153.431,175.573c-40.02,42.958 -79.066,-7.831 -79.066,-7.831Z" style="fill:#70aa8f;fill-rule:nonzero;"/><path d="M1589.34,336.461l-74.365,-167.742c-0,-0 209.793,122.34 153.431,175.573c-40.02,42.958 -79.066,-7.831 -79.066,-7.831Z" style="fill:#5d8c78;fill-rule:nonzero;"/><path d="M1731.25,407.758c57.434,-74.736 157.674,-119.588 274.043,-158.236c-0,-0 -54.4,182.409 -125.642,207.851c-69.677,19.959 -148.401,-49.615 -148.401,-49.615Z" style="fill:#5d8c78;fill-rule:nonzero;"/><path d="M1484.19,338.163c0,-0 -102.093,-114.496 -176.959,-169.444c0,-0 14.31,134.845 59.732,169.773c45.56,30.611 117.227,-0.329 117.227,-0.329Z" style="fill:#5d8c78;fill-rule:nonzero;"/><path d="M1698.15,452.686l-4.392,-2.684c62.608,-102.505 186.307,-158.092 310.672,-202.903l1.737,4.846c-123.466,44.488 -246.239,99.595 -308.017,200.741Z" style="fill:#32675e;fill-rule:nonzero;"/><path d="M1658.9,566.316l-5.106,-0.652c4.255,-33.212 13.494,-64.482 27.474,-92.944l4.619,2.272c-13.726,27.948 -22.807,58.675 -26.987,91.324Z" style="fill:#32675e;fill-rule:nonzero;"/><path d="M1636.29,566.193c-12.21,-153.576 -69.752,-290.796 -115.875,-378.867l4.565,-2.382c46.342,88.49 104.159,226.396 116.444,380.844l-5.134,0.405Z" style="fill:#32675e;fill-rule:nonzero;"/><path d="M2012.62,847.949c-3.569,-17.419 -7.673,-34.543 -12.203,-50.899l4.955,-1.372c4.564,16.479 8.703,33.706 12.286,51.242l-5.038,1.029Z" style="fill:#32675e;fill-rule:nonzero;"/><path d="M1987.22,754.648c-46.342,-133.15 -129.437,-225.12 -211.702,-234.303c-39.767,-4.427 -73.652,12.258 -95.299,47.008l-4.372,-2.725c22.752,-36.527 58.319,-54.091 100.247,-49.396c84.214,9.396 168.998,102.711 215.992,237.728l-4.866,1.688Z" style="fill:#32675e;fill-rule:nonzero;"/><path d="M1521.72,658.602c-0,-0 17.192,-67.42 -26.891,-57.166c-101.016,25.923 -50.714,278.065 -28.23,287.68c22.485,9.616 220.323,-118.099 152.148,-220.343c-40.967,-63.878 -97.027,-10.171 -97.027,-10.171Z" style="fill:#5d8c78;fill-rule:nonzero;"/><path d="M1521.72,658.602c-0,-0 -44.633,142.258 -55.121,230.514c22.485,9.616 220.323,-118.099 152.148,-220.343c-40.967,-63.878 -97.027,-10.171 -97.027,-10.171Z" style="fill:#70aa8f;fill-rule:nonzero;"/><path d="M1617.39,566.962c-42.058,-102.65 -102.93,-196.624 -180.933,-279.3l3.748,-3.535c78.435,83.144 139.65,177.646 181.956,280.885l-4.771,1.95Z" style="fill:#32675e;fill-rule:nonzero;"/><path d="M1411.09,261.732c-32.176,-31.695 -67.639,-62.299 -105.422,-90.961l3.116,-4.104c37.955,28.799 73.59,59.547 105.916,91.4l-3.61,3.665Z" style="fill:#32675e;fill-rule:nonzero;"/><path d="M1473.24,861.601l-5.065,-0.899c2.293,-12.89 57.028,-315.902 134.811,-335.642c12.897,-1.716 23.473,0.858 31.716,7.523c14.681,11.853 16.561,32.326 16.63,33.191l-5.127,0.432c-0.013,-0.192 -1.798,-19.196 -14.763,-29.643c-7.097,-5.717 -16.356,-7.893 -27.495,-6.458c-74.289,18.874 -130.144,328.373 -130.707,331.496Z" style="fill:#32675e;fill-rule:nonzero;"/></g><g id="FAUTEUIL"><path d="M960.284,1937.79l46.74,0l-25.23,-205.998l-67.756,-0l46.246,205.998Zm52.553,5.148l-56.678,-0l-48.559,-216.294l78.758,0l26.479,216.294Z" style="fill:#233452;fill-rule:nonzero;"/><path d="M277.155,1937.79l46.74,0l46.246,-205.998l-67.763,-0l-25.223,205.998Zm50.865,5.148l-56.685,-0l26.486,-216.294l78.751,0l-48.552,216.294Z" style="fill:#233452;fill-rule:nonzero;"/><path d="M803.29,1937.79l46.733,0l-25.223,-205.998l-67.755,-0l46.245,205.998Zm52.553,5.148l-56.678,-0l-48.558,-216.294l78.757,0l26.479,216.294Z" style="fill:#fff;fill-rule:nonzero;"/><path d="M434.149,1937.79l46.746,0l46.239,-205.998l-67.755,-0l-25.23,205.998Zm50.864,5.148l-56.678,-0l26.486,-216.294l78.751,0l-48.559,216.294Z" style="fill:#fff;fill-rule:nonzero;"/><path d="M443.812,1393.97l395.106,0l62.643,-5.168l111.461,31.023l36.768,65.497l27.577,135.594l-35.621,68.949l-521.235,17.234l-325.195,-57.46l11.489,-127.55l74.255,-106.863l88.916,-43.665l73.836,22.409Z" style="fill:#6f8bae;fill-rule:nonzero;"/><path d="M1049.8,1485.4l-0.013,-0.076l-36.768,-65.497l-111.461,-31.023l-62.643,5.168l-395.106,0l-73.836,-22.409l-88.916,43.665l-48.757,70.172l817.5,-0Z" style="fill:#85a8c7;fill-rule:nonzero;"/><path d="M51.253,1298.17l164.104,-62.341c16.781,-5.539 26.204,-16.239 31.235,-34.283l59.321,-238.057c7.021,-27.749 24.035,-42.539 51.716,-43.528l90.061,0l-46.115,255.964l-159.437,141.345l-136.884,0l-54.001,-19.1Z" style="fill:#7997b9;fill-rule:nonzero;"/><path d="M1233.18,1298.17l-164.111,-62.341c-16.781,-5.539 -26.205,-16.239 -31.228,-34.283l-59.328,-238.057c-7.014,-27.749 -24.036,-42.539 -51.709,-43.528l-90.061,0l46.108,255.964l159.437,141.345l136.891,0l54.001,-19.1Z" style="fill:#7997b9;fill-rule:nonzero;"/><path d="M289.111,1627.95l0,-134.873c0.213,-19.177 7.969,-36.411 25.525,-45.134l129.176,-19.465c23.267,-101.702 -49.835,-193.548 -135.312,-186.19l-160.803,56.561l-42.587,123.843l28.73,95.958l71.242,94.797l71.565,26.109l12.464,-11.606Z" style="fill:#7997b9;fill-rule:nonzero;"/><path d="M993.619,1627.95l0,-134.873c-0.219,-19.177 -7.968,-36.411 -25.531,-45.134l-129.17,-19.465c-23.267,-101.702 49.836,-193.548 135.306,-186.19l160.809,56.561l21.483,64.091l-21.407,109.45c-0,0 -28.435,118.072 -28.435,121.517c-0,3.452 -19.822,81.881 -19.822,81.881l-74.447,-0l-18.786,-47.838Z" style="fill:#7997b9;fill-rule:nonzero;"/><path d="M903.036,966.686c-8.998,-30.082 -30.192,-46.726 -63.445,-46.726l-395.003,0c-33.26,0 -54.454,16.644 -63.452,46.726l-70.769,299.067l133.445,162.724l395.106,0l134.887,-162.724l-70.769,-299.067Z" style="fill:#6f8bae;fill-rule:nonzero;"/><path d="M1224.31,1296.58l-70.967,0c-13.926,0 -23.054,0.632 -30.069,18.868l-94.166,285.353c-11.208,19.609 -26.287,30.377 -55.161,31.029l9.41,0l-673.136,0c-28.868,-0.652 -43.953,-11.42 -55.154,-31.029l-94.173,-285.353c-7.008,-18.236 -16.143,-18.868 -30.062,-18.868l-70.968,0c-14.797,0 -21.118,11.345 -16.932,23.514l116.472,402.223c8.401,20.687 31.243,39.65 62.91,39.65l839.54,0c31.674,0 54.509,-18.963 62.916,-39.65l116.466,-402.223c4.186,-12.169 -2.135,-23.514 -16.926,-23.514Z" style="fill:#2e3a55;fill-rule:nonzero;"/><rect x="318.843" y="1482.82" width="641.317" height="5.148" style="fill:#233452;fill-rule:nonzero;"/><path d="M148.596,1301.26l-1.798,-4.825l119.993,-44.701l1.792,4.825l-119.987,44.701Z" style="fill:#233452;fill-rule:nonzero;"/><path d="M1131.5,1301.26l-119.987,-44.701l1.792,-4.825l119.993,44.701l-1.798,4.825Z" style="fill:#233452;fill-rule:nonzero;"/><path d="M373.826,1111.24c-72.265,-22.327 -227.57,13.157 -244.392,51.214c-16.836,38.051 113.102,292.862 179.519,305.964c66.424,13.103 254.866,-28.634 255.957,-65.484c-2.663,-86.197 -118.812,-269.368 -191.084,-291.694Z" style="fill:#c99867;fill-rule:nonzero;"/><path d="M325.789,1461.39l-4.839,-1.77c9.314,-25.546 -25.127,-118.84 -73.706,-199.657c-37.611,-62.56 -72.978,-100.371 -97.035,-103.727l0.714,-5.092c36.356,5.072 82.553,75.936 100.734,106.17c44.654,74.282 85.093,174.001 74.132,204.076Z" style="fill:#233452;fill-rule:nonzero;"/></g></svg>