<?xml version="1.0" encoding="UTF-8" standalone="no"?><!DOCTYPE svg PUBLIC "-//W3C//DTD SVG 1.1//EN" "http://www.w3.org/Graphics/SVG/1.1/DTD/svg11.dtd"><svg width="100%" height="100%" viewBox="0 0 484 1980" version="1.1" xmlns="http://www.w3.org/2000/svg" xmlns:xlink="http://www.w3.org/1999/xlink" xml:space="preserve" xmlns:serif="http://www.serif.com/" style="fill-rule:evenodd;clip-rule:evenodd;stroke-linejoin:round;stroke-miterlimit:2;"><path d="M219.488,1607.26c-74.104,-522.876 -74.473,-1056.14 -1.107,-1579.11c83.94,534.315 167.36,1085.27 40.167,1610.97l-39.06,-31.857Z" style="fill:#578285;fill-rule:nonzero;"/><path d="M225.744,308.704c4.31,54.037 7.991,108.133 11.572,162.229c3.271,54.12 6.104,108.258 8.813,162.412c5.183,108.317 8.21,216.735 10.223,325.169l0.695,81.349l-0.318,81.357c0.05,27.111 -0.595,54.23 -1.199,81.34c-0.638,27.111 -0.889,54.239 -2.466,81.324c-4.361,108.275 -11.555,217.07 -33.576,323.374l6.206,-40.184l3.102,-20.075c1.099,-6.683 2.08,-13.383 2.575,-20.142c2.456,-26.985 5.392,-53.911 7.454,-80.904l4.956,-81.097c1.191,-27.044 1.87,-54.138 2.835,-81.19c2.733,-108.3 3.455,-216.676 1.366,-325.026c-1.316,-108.368 -4.461,-216.71 -8.268,-325.027c-1.929,-54.162 -4.058,-108.325 -6.465,-162.471c-2.239,-54.154 -4.545,-108.308 -7.505,-162.438Z" style="fill:#2a3d4c;fill-rule:nonzero;"/><path d="M290.145,1571.97c-21.568,-391.818 12.101,-786.638 99.722,-1169.14c28.126,400.908 54.8,814.117 -72.837,1195.21l-26.885,-26.071Z" style="fill:#578285;fill-rule:nonzero;"/><path d="M377.448,611.006c-0.243,40.284 -0.973,80.56 -1.752,120.845c-1.032,40.267 -2.382,80.535 -3.824,120.795c-3.053,80.527 -7.724,160.987 -13.132,241.388l-4.663,60.267l-5.417,60.209c-1.694,20.075 -3.891,40.108 -6.071,60.15c-2.197,20.025 -4.109,40.091 -7.002,60.041c-10.122,79.89 -22.373,159.972 -45.442,237.271l7.153,-29.358l3.564,-14.658c1.25,-4.881 2.399,-9.77 3.195,-14.751c3.539,-19.823 7.421,-39.571 10.667,-59.42l8.83,-59.722c2.616,-19.95 4.838,-39.966 7.278,-59.941c8.914,-79.998 16.344,-160.182 21.702,-240.533c5.929,-80.3 10.49,-160.71 14.574,-241.153c2.021,-40.217 3.892,-80.452 5.56,-120.694c1.795,-40.226 3.531,-80.469 4.78,-120.736Z" style="fill:#2a3d4c;fill-rule:nonzero;"/><path d="M161.351,1584.43c-106.632,-377.646 -160.014,-770.277 -158.078,-1162.68c115.026,385.084 231.318,782.478 190.01,1182.25l-31.932,-19.563Z" style="fill:#578285;fill-rule:nonzero;"/><path d="M36.64,627.601c8.553,39.37 16.646,78.833 24.679,118.312c7.799,39.53 15.27,79.11 22.658,118.716c14.599,79.244 27.63,158.781 39.915,238.428l8.604,59.823l7.874,59.94c2.734,19.966 4.964,39.991 7.212,60.016c2.23,20.033 4.746,40.033 6.289,60.133c7.564,80.167 13.115,160.987 7.48,241.464l0.562,-30.214l0.285,-15.085c0.151,-5.032 0.201,-10.063 -0.101,-15.086c-0.88,-20.125 -1.4,-40.234 -2.574,-60.318l-4.428,-60.208c-1.811,-20.042 -4.008,-40.058 -5.996,-60.075c-8.771,-80.015 -19.043,-159.897 -31.362,-239.468c-11.765,-79.663 -24.872,-159.125 -38.456,-238.512c-6.809,-39.697 -13.778,-79.361 -20.939,-118.992c-7.036,-39.655 -14.138,-79.311 -21.702,-118.874Z" style="fill:#2a3d4c;fill-rule:nonzero;"/><path d="M8.732,1447.74l0,412.111c0,61.039 46.239,110.983 102.766,110.983l263.208,0c56.519,0 102.765,-49.944 102.765,-110.983l0,-412.111l-468.739,-0Z" style="fill:#d9702d;fill-rule:nonzero;"/><path d="M238.255,1819.59c-17.249,10.34 -45.383,1.434 -49.273,-20.05c-11.22,-62.003 -11.111,-124.987 -16.092,-187.527c-57.366,59.404 -109.584,123.545 -164.158,185.59l0,62.247c0,61.039 46.239,110.983 102.766,110.983l263.208,0c56.519,0 102.765,-49.944 102.765,-110.983l0,-209.775c-76.476,60.955 -155.049,119.034 -239.216,169.515Z" style="fill:#fbd370;fill-rule:nonzero;"/><path d="M246.163,1970.83l-134.665,0c-56.527,0 -102.766,-49.944 -102.766,-110.983l0,-62.247c22.549,-25.634 44.696,-51.638 66.976,-77.508c10.541,73.081 33.87,141.642 83.194,195.167c22.893,24.855 53.156,43.244 87.261,55.571Z" style="fill:#eaa04d;fill-rule:nonzero;"/><path d="M391.494,1716.36c8.88,-89.298 7.438,-181.095 20.889,-268.616l65.088,-0l0,202.336c-28.309,22.566 -56.913,44.738 -85.977,66.28Z" style="fill:#e7a983;fill-rule:nonzero;"/><path d="M374.706,1970.83l-70.263,0c15.614,-18.976 29.274,-39.689 40.033,-62.833c28.184,-60.67 40.435,-125.474 47.018,-191.645c29.064,-21.542 57.668,-43.714 85.977,-66.28l0,209.775c0,61.039 -46.246,110.983 -102.765,110.983Z" style="fill:#fbe6a8;fill-rule:nonzero;"/></svg>