<?xml version="1.0" encoding="UTF-8" standalone="no"?><!DOCTYPE svg PUBLIC "-//W3C//DTD SVG 1.1//EN" "http://www.w3.org/Graphics/SVG/1.1/DTD/svg11.dtd"><svg width="100%" height="100%" viewBox="0 0 2084 2084" version="1.1" xmlns="http://www.w3.org/2000/svg" xmlns:xlink="http://www.w3.org/1999/xlink" xml:space="preserve" xmlns:serif="http://www.serif.com/" style="fill-rule:evenodd;clip-rule:evenodd;stroke-linejoin:round;stroke-miterlimit:2;"><g id="FAUTEUIL"><path d="M1426.11,1937.79l46.74,0l-25.23,-205.998l-67.756,-0l46.246,205.998Zm52.553,5.148l-56.678,-0l-48.559,-216.294l78.758,0l26.479,216.294Z" style="fill:#233452;fill-rule:nonzero;"/><path d="M742.983,1937.79l46.74,0l46.246,-205.998l-67.763,-0l-25.223,205.998Zm50.865,5.148l-56.685,-0l26.486,-216.294l78.751,0l-48.552,216.294Z" style="fill:#233452;fill-rule:nonzero;"/><path d="M1269.12,1937.79l46.733,0l-25.223,-205.998l-67.755,-0l46.245,205.998Zm52.554,5.148l-56.679,-0l-48.558,-216.294l78.757,0l26.48,216.294Z" style="fill:#fff;fill-rule:nonzero;"/><path d="M899.977,1937.79l46.746,0l46.239,-205.998l-67.755,-0l-25.23,205.998Zm50.864,5.148l-56.678,-0l26.486,-216.294l78.751,0l-48.559,216.294Z" style="fill:#fff;fill-rule:nonzero;"/><path d="M909.64,1393.97l395.106,0l62.643,-5.168l111.461,31.023l36.768,65.497l27.577,135.594l-35.621,68.949l-521.235,17.234l-325.195,-57.46l11.489,-127.55l74.255,-106.863l88.916,-43.665l73.836,22.409Z" style="fill:#6f8bae;fill-rule:nonzero;"/><path d="M1515.63,1485.4l-0.013,-0.076l-36.768,-65.497l-111.461,-31.023l-62.643,5.168l-395.106,0l-73.836,-22.409l-88.916,43.665l-48.757,70.172l817.5,-0Z" style="fill:#85a8c7;fill-rule:nonzero;"/><path d="M517.081,1298.17l164.104,-62.341c16.781,-5.539 26.204,-16.239 31.235,-34.283l59.321,-238.057c7.021,-27.749 24.035,-42.539 51.716,-43.528l90.061,0l-46.115,255.964l-159.437,141.345l-136.884,0l-54.001,-19.1Z" style="fill:#7997b9;fill-rule:nonzero;"/><path d="M1699.01,1298.17l-164.111,-62.341c-16.781,-5.539 -26.204,-16.239 -31.228,-34.283l-59.328,-238.057c-7.014,-27.749 -24.036,-42.539 -51.709,-43.528l-90.061,0l46.108,255.964l159.437,141.345l136.891,0l54.001,-19.1Z" style="fill:#7997b9;fill-rule:nonzero;"/><path d="M754.939,1627.95l0,-134.873c0.213,-19.177 7.969,-36.411 25.525,-45.134l129.176,-19.465c23.267,-101.702 -49.835,-193.548 -135.312,-186.19l-160.803,56.561l-42.587,123.843l28.73,95.958l71.242,94.797l71.565,26.109l12.464,-11.606Z" style="fill:#7997b9;fill-rule:nonzero;"/><path d="M1459.45,1627.95l-0,-134.873c-0.22,-19.177 -7.969,-36.411 -25.532,-45.134l-129.17,-19.465c-23.267,-101.702 49.836,-193.548 135.306,-186.19l160.809,56.561l21.483,64.091l-21.407,109.45c-0,0 -28.435,118.072 -28.435,121.517c-0,3.452 -19.822,81.881 -19.822,81.881l-74.447,-0l-18.785,-47.838Z" style="fill:#7997b9;fill-rule:nonzero;"/><path d="M1368.86,966.686c-8.998,-30.082 -30.192,-46.726 -63.445,-46.726l-395.003,0c-33.26,0 -54.454,16.644 -63.452,46.726l-70.769,299.067l133.445,162.724l395.106,0l134.887,-162.724l-70.769,-299.067Z" style="fill:#6f8bae;fill-rule:nonzero;"/><path d="M1690.14,1296.58l-70.967,0c-13.926,0 -23.054,0.632 -30.069,18.868l-94.166,285.353c-11.208,19.609 -26.287,30.377 -55.161,31.029l9.41,0l-673.136,0c-28.868,-0.652 -43.953,-11.42 -55.154,-31.029l-94.173,-285.353c-7.008,-18.236 -16.143,-18.868 -30.062,-18.868l-70.968,0c-14.797,0 -21.118,11.345 -16.932,23.514l116.472,402.223c8.401,20.687 31.243,39.65 62.91,39.65l839.54,0c31.674,0 54.509,-18.963 62.916,-39.65l116.466,-402.223c4.186,-12.169 -2.135,-23.514 -16.926,-23.514Z" style="fill:#2e3a55;fill-rule:nonzero;"/><rect x="784.671" y="1482.82" width="641.317" height="5.148" style="fill:#233452;fill-rule:nonzero;"/><path d="M614.425,1301.26l-1.799,-4.825l119.993,-44.701l1.792,4.825l-119.986,44.701Z" style="fill:#233452;fill-rule:nonzero;"/><path d="M1597.33,1301.26l-119.986,-44.701l1.791,-4.825l119.993,44.701l-1.798,4.825Z" style="fill:#233452;fill-rule:nonzero;"/><path d="M839.654,1111.24c-72.265,-22.327 -227.57,13.157 -244.392,51.214c-16.836,38.051 113.102,292.862 179.519,305.964c66.424,13.103 254.866,-28.634 255.957,-65.484c-2.663,-86.197 -118.812,-269.368 -191.084,-291.694Z" style="fill:#c99867;fill-rule:nonzero;"/><path d="M791.617,1461.39l-4.839,-1.77c9.314,-25.546 -25.126,-118.84 -73.706,-199.657c-37.611,-62.56 -72.978,-100.371 -97.035,-103.727l0.714,-5.092c36.356,5.072 82.553,75.936 100.734,106.17c44.654,74.282 85.093,174.001 74.132,204.076Z" style="fill:#233452;fill-rule:nonzero;"/></g></svg>