<?xml version="1.0" encoding="UTF-8" standalone="no"?><!DOCTYPE svg PUBLIC "-//W3C//DTD SVG 1.1//EN" "http://www.w3.org/Graphics/SVG/1.1/DTD/svg11.dtd"><svg width="100%" height="100%" viewBox="0 0 100 100" version="1.1" xmlns="http://www.w3.org/2000/svg" xmlns:xlink="http://www.w3.org/1999/xlink" xml:space="preserve" xmlns:serif="http://www.serif.com/" style="fill-rule:evenodd;clip-rule:evenodd;stroke-linejoin:round;stroke-miterlimit:2;"><path d="M62.5,0l-25,0c-11.424,0.014 -20.82,9.41 -20.833,20.833l-0,58.334c0.013,11.423 9.409,20.819 20.833,20.833l25,0c11.424,-0.014 20.82,-9.41 20.833,-20.833l0,-58.334c-0.013,-11.423 -9.409,-20.819 -20.833,-20.833Zm-25,8.333l25,0c6.857,0 12.5,5.643 12.5,12.5l0,45.834l-50,-0l0,-45.834c0,-6.857 5.643,-12.5 12.5,-12.5Zm25,83.334l-25,-0c-6.857,-0 -12.5,-5.643 -12.5,-12.5l0,-4.167l50,0l0,4.167c0,6.857 -5.643,12.5 -12.5,12.5Z" style="fill:#ff860b;fill-rule:nonzero;"/><circle cx="50" cy="83.333" r="4.167" style="fill:#ff860b;"/></svg>