<?xml version="1.0" encoding="UTF-8" standalone="no"?><!DOCTYPE svg PUBLIC "-//W3C//DTD SVG 1.1//EN" "http://www.w3.org/Graphics/SVG/1.1/DTD/svg11.dtd"><svg width="100%" height="100%" viewBox="0 0 3750 3750" version="1.1" xmlns="http://www.w3.org/2000/svg" xmlns:xlink="http://www.w3.org/1999/xlink" xml:space="preserve" xmlns:serif="http://www.serif.com/" style="fill-rule:evenodd;clip-rule:evenodd;stroke-linejoin:round;stroke-miterlimit:2;"><path d="M2236.61,2871.14l-12.765,76.22l-587.524,70.254l-48.851,-108.748l649.14,-37.726Z" style="fill:#f69988;fill-rule:nonzero;"/><path d="M3154.18,2578.6c-3.519,13.268 11.709,19.09 40.676,27.031c23.661,31.787 -52.018,45.407 -52.018,45.407l-63.849,2.274c-0,-0 -23.661,-0 -9.475,-31.775c14.199,-31.8 15.579,-24.86 35.477,-27.251c18.923,-2.275 67.612,-6.55 49.663,-29.527c-7.092,-9.084 -51.598,-24.964 -78.034,-24.964c-10.26,-0 -42.584,34.061 -61.493,52.216c-17.042,16.375 -37.048,70.385 -37.048,70.385c-290.074,60.547 -455.618,-18.922 -455.618,-18.922c-41.447,-121.496 -95.671,-738.959 -317.077,-709.16c-41.474,5.588 -128.05,135.727 -114.866,256.937c4.223,192.427 117.776,381.735 165.517,641.427c33.095,180.12 519.466,26.485 778.001,-15.894c0,0 404.398,-59.026 397.305,-93.088c-7.093,-34.048 -182.084,-4.548 -182.084,-4.548c-0,-0 193.914,2.274 189.177,-29.5c-4.724,-31.801 -224.655,-2.275 -224.655,-2.275l28.777,-21.326c9.651,-7.147 13.469,-19.441 9.475,-30.487l-15.606,-43.25c-3.276,-9.058 -11.208,-15.764 -20.981,-17.674c-11.072,-2.157 -24.622,-6.316 -35.275,-9.162c-10.896,-2.911 -23.2,2.599 -25.989,13.126Z" style="fill:#f69988;fill-rule:nonzero;"/><path d="M2128.08,1110.43c58.259,-158.054 -27.085,-305.112 -182.748,-342.254c-251.334,-59.962 -233.074,-49.565 -337.219,-301.954c-56.526,-137.001 -166.924,-252.792 -304.07,-318.94c-69.141,-33.347 -151.06,-54.256 -223.558,-28.356c-244.999,87.513 10.707,214.883 88.01,277.379c12.223,9.89 24.73,21.508 27.153,36.661c1.99,12.424 -3.316,24.951 -10.599,35.387c-38.888,55.699 -121.119,59.195 -190.964,58.87c-69.845,-0.312 -153.361,9.123 -185.049,68.89c-29.778,56.193 5.997,124.927 52.98,168.983c47.01,44.055 106.487,77.311 141.314,130.775c34.571,53.075 39.809,118.3 47.511,180.458c38.984,314.534 169.835,565.714 526.316,624.831c250.129,41.469 566.368,-65.29 557.596,-353.183l-6.673,-237.547Z" style="fill:#3f080e;fill-rule:nonzero;"/><path d="M2125.33,1056.57c46.767,28.214 69.345,-60.195 75.625,-85.953c14.186,-58.182 17.651,-121.197 -3.235,-178.352c-16.568,-45.355 -47.673,-87.097 -90.88,-112.257c-45.589,-26.537 -98.73,-28.356 -150.248,-21.793c-58.353,7.433 -116.314,24.912 -175.668,22.157c-60.343,-2.82 -109.681,-33.503 -140.516,-82.886c-67.463,-108.098 -32.744,-240.043 -72.959,-355.652c-37.575,-108.007 -135.02,-192.817 -250.129,-219.315c-6.673,-1.533 -9.516,8.343 -2.829,9.877c101.627,23.392 188.825,93.088 231.558,184.72c49.541,106.2 20.832,227.333 61.06,335.756c15.066,40.637 38.943,79.494 75.409,105.641c39.389,28.253 88.132,35.115 136.117,31.281c103.305,-8.239 219.809,-58.766 308.888,17.648c48.567,41.664 72.16,102.939 74.123,164.486c1.11,35.309 -4.156,70.515 -13.211,104.68c-4.982,18.792 -23.323,91.867 -57.717,71.112c-5.834,-3.508 -11.194,5.342 -5.388,8.85Z" style="fill:#3f080e;fill-rule:nonzero;"/><path d="M1820.26,1645.67c-117.992,117.597 -306.222,152.997 -460.193,82.223c-72.2,-33.191 -134.194,-86.434 -174.68,-152.907c-44.005,-72.23 -61.615,-155.545 -64.526,-238.444c-3.343,-95.167 10.924,-189.958 26.368,-283.695c1.056,-6.446 -9.218,-9.227 -10.287,-2.717c-27.559,167.32 -55.917,354.132 28.507,511.289c76.802,142.978 244.484,230.348 411.219,211.075c95.049,-10.981 184.697,-53.373 251.131,-119.586c4.765,-4.743 -2.761,-11.995 -7.539,-7.238Z" style="fill:#3f080e;fill-rule:nonzero;"/><path d="M1714.98,1305.09c-1.313,5.691 -7.215,9.239 -13.103,7.771c-24.608,-6.108 -80.119,-25.004 -104.51,34.906c-24.649,60.56 28.114,110.879 64.931,121.938c10.64,3.184 34.963,11.372 40.242,20.78c16.27,28.929 13.252,82.77 13.645,150.88c0.866,150.438 -53.751,282.63 -53.751,282.63c-0,-0 304.8,193.505 349.401,10.422c0,0 -1.367,-353.105 0.866,-354.379c37.698,-21.533 171.541,-8.72 161.321,-265.527c-9.475,-237.872 -182.748,-263.344 -227.674,-266.515c-37.9,-2.677 -165.854,-25.783 -231.368,257.094Z" style="fill:#f69988;fill-rule:nonzero;"/><path d="M1620.62,1372.51c0,-0 59.436,-68.968 80.796,48.071" style="fill:#f3705c;fill-rule:nonzero;"/><path d="M1915.62,1470.69c-4.44,-0 -8.934,-0.468 -13.441,-1.469c-32.121,-7.095 -52.167,-37.856 -44.777,-68.681c6.349,-26.525 30.93,-44.485 58.11,-44.485c4.44,0 8.933,0.481 13.441,1.482c32.121,7.096 52.167,37.843 44.777,68.695c-6.349,26.511 -30.93,44.458 -58.11,44.458Z" style="fill:#f48479;fill-rule:nonzero;"/><path d="M2166.11,1432.73c4.413,-20.663 7.282,-44.601 8.176,-72.412c0.582,21.547 -0.488,50.436 -8.176,72.412Z" style="fill:#f79f98;fill-rule:nonzero;"/><path d="M2164.49,1437.02c-25.258,-11.072 -39.796,-37.986 -33.326,-64.978c4.982,-20.806 21.17,-36.336 41.041,-42.067c0,-0 1.597,12.723 2.085,30.345c-0.894,27.811 -3.763,51.749 -8.176,72.412c-0.514,1.468 -1.042,2.885 -1.624,4.288Z" style="fill:#f48479;fill-rule:nonzero;"/><path d="M2021.06,1413.81c0.148,0.247 4.114,6.342 12.453,12.476c8.324,6.121 21.143,12.255 38.55,12.255c4.101,-0 8.46,-0.338 13.048,-1.092c14.741,-2.417 25.543,-10.916 32.635,-18.636c7.093,-7.732 10.599,-14.802 10.694,-14.984c0.839,-1.702 0.081,-3.742 -1.692,-4.548c-1.774,-0.806 -3.899,-0.091 -4.738,1.624l-0.555,1.027c-2.721,5.003 -15.729,25.381 -37.535,28.785c-4.209,0.689 -8.162,0.988 -11.857,0.988c-15.634,-0 -26.815,-5.419 -34.233,-10.851c-3.681,-2.704 -6.416,-5.419 -8.189,-7.434l-1.976,-2.404l-0.46,-0.637l-0.108,-0.169c-1.029,-1.598 -3.222,-2.092 -4.9,-1.092c-1.665,0.988 -2.18,3.093 -1.137,4.692Z" style="fill-rule:nonzero;"/><path d="M2074.24,1353.58l-8.406,43.718l24.067,-0.351c4.426,-0.078 7.174,-4.679 4.981,-8.383l-20.642,-34.984Z" style="fill:#f3705c;fill-rule:nonzero;"/><path d="M1972.54,1281.88c-10.356,8.395 3.546,-26.342 18.286,-31.514c14.755,-5.173 30.483,0.546 35.14,12.775c-0,-0 -28.534,-1.443 -53.426,18.739Z" style="fill-rule:nonzero;"/><path d="M2145.3,1263.56c11.749,6.498 -8.365,-25.315 -23.823,-27.888c-15.485,-2.574 -29.901,5.743 -32.216,18.57c0,0 27.803,-6.289 56.039,9.318Z" style="fill-rule:nonzero;"/><path d="M2025.23,1576.69c-0,-0 -70.996,5.12 -125.573,-11.84c30.294,78.676 96.227,73.66 125.573,11.84Z" style="fill:#f3705c;fill-rule:nonzero;"/><path d="M2114.42,1006.07c140.366,69.28 74.149,237.288 74.149,237.288c-67.761,7.94 -137.146,-82.666 -156.786,-145.447l-6.375,-20.352c5.076,75.908 -43.802,145.565 -118.981,169.568l-134.33,42.899l41.19,-148.801l-64.566,174.792l-94.602,-27.239c-0,-0 132.935,-444.309 460.301,-282.708Z" style="fill:#3f080e;fill-rule:nonzero;"/><path d="M2003.01,1363c6.957,2.287 14.808,4.77 22.889,4.782c7.932,0.065 16.256,-2.677 22.727,-10.24c1.245,-1.456 1.042,-3.6 -0.461,-4.809c-1.516,-1.208 -3.763,-1 -5.008,0.442c-5.252,5.965 -10.829,7.72 -17.258,7.785c-6.511,0.013 -13.739,-2.144 -20.575,-4.419c-1.854,-0.611 -3.884,0.338 -4.521,2.118c-0.636,1.794 0.352,3.73 2.207,4.341Z" style="fill-rule:nonzero;"/><path d="M2094.45,1355.44c6.944,2.274 14.795,4.769 22.876,4.782c7.945,0.065 16.256,-2.69 22.726,-10.253c1.259,-1.443 1.056,-3.6 -0.46,-4.809c-1.516,-1.196 -3.749,-1.001 -5.008,0.455c-5.252,5.965 -10.815,7.719 -17.258,7.784c-6.511,0.013 -13.739,-2.144 -20.575,-4.418c-1.854,-0.611 -3.871,0.338 -4.507,2.131c-0.636,1.78 0.352,3.717 2.206,4.328Z" style="fill-rule:nonzero;"/><path d="M2027.76,1781.46c-0,-0 293.241,-52.216 368.92,401.878l-340.536,54.478l-28.384,-456.356Z" style="fill:#617abc;fill-rule:nonzero;"/><path d="M2275.17,2202.78c-31.619,-112.698 -84.666,-239.302 -149.057,-327.022c39.268,29.656 77.385,60.741 112.253,96.648c58.408,60.17 108.436,126.682 155.365,195.234c0.961,5.276 2.044,10.28 2.951,15.699l-121.512,19.441Z" style="fill:#3c60ac;fill-rule:nonzero;"/><path d="M2020.67,1779.2c153.713,72.646 279.99,434.055 286.027,597.527c6.077,164.707 -9.34,428.714 -9.34,428.714c-0,-0 -573.854,11.956 -742.565,22.703c-92.707,-271.167 -104.645,-729.069 -47.294,-938.455c0,-0 92.653,-65.667 173.422,-99.898c-0,0 245.459,309.089 339.75,-10.591Z" style="fill:#617abc;fill-rule:nonzero;"/><path d="M1554.79,2828.13c-19.843,-58.051 -35.992,-124.68 -48.539,-195.571c31.308,-100.301 66.068,-190.789 89.066,-277.821l44.614,14.776c3.479,-7.187 6.836,-14.283 10.098,-21.3c8.135,14.984 16.541,29.864 25.149,44.627c-19.897,15.257 -41.352,28.746 -63.997,40.169c23.024,-10.344 45.047,-22.846 65.717,-37.219c31.078,53.009 65.12,104.667 101.478,154.96c-8.149,12.255 -15.81,24.809 -22.97,37.584c-17.448,31.215 -32.27,63.73 -44.398,97.103c-11.844,33.477 -21.103,67.708 -27.857,102.341c8.446,-34.296 19.356,-67.954 32.73,-100.625c13.075,-32.776 28.56,-64.628 46.672,-95.025c6.781,-11.436 13.901,-22.677 21.386,-33.711c63.05,86.409 132.922,168.775 206.355,247.035c-117.938,0.325 -261.284,3.314 -391.35,13.606c-1.989,2.275 -3.939,4.588 -5.915,6.953c-14.307,0.702 -27.139,1.417 -38.239,2.118Z" style="fill:#3c60ac;fill-rule:nonzero;"/><path d="M557.32,2578.6c3.506,13.268 -11.722,19.09 -40.688,27.031c-23.648,31.787 52.031,45.407 52.031,45.407l63.849,2.274c0,-0 23.647,-0 9.462,-31.775c-14.186,-31.8 -15.567,-24.86 -35.478,-27.251c-18.909,-2.275 -67.612,-6.55 -49.663,-29.527c7.093,-9.084 51.599,-24.964 78.048,-24.964c10.247,-0 42.57,34.061 61.48,52.216c17.055,16.375 37.048,70.385 37.048,70.385c290.087,60.547 455.63,-18.922 455.63,-18.922c41.447,-121.496 95.672,-738.959 317.078,-709.16c41.474,5.588 128.05,135.727 114.866,256.937c-4.21,192.427 -117.776,381.735 -165.503,641.427c-33.109,180.12 -519.466,26.485 -778.029,-15.894c0,0 -404.384,-59.026 -397.305,-93.088c7.107,-34.048 182.098,-4.548 182.098,-4.548c0,-0 -193.915,2.274 -189.177,-29.5c4.724,-31.801 224.655,-2.275 224.655,-2.275l-28.777,-21.326c-9.651,-7.147 -13.469,-19.441 -9.475,-30.487l15.606,-43.25c3.276,-9.058 11.208,-15.764 20.981,-17.674c11.072,-2.157 24.622,-6.316 35.274,-9.162c10.883,-2.911 23.201,2.599 25.989,13.126Z" style="fill:#f69988;fill-rule:nonzero;"/><path d="M1573.73,1838.22c119.454,24.003 250.657,149.853 66.204,531.289l-411.477,-136.234c-0,0 141.883,-435.926 345.273,-395.055Z" style="fill:#617abc;fill-rule:nonzero;"/><path d="M1598.95,2819.06c-181.299,208.88 -306.073,761.39 -306.073,761.39l1245.69,-28.798c-0,-0 -71.74,-542.634 -300.334,-743.95c-0.23,0.429 -29.549,-0.325 -78.061,-1.078c-119.888,-1.859 -356.941,-3.73 -561.225,12.436Z" style="fill:#fde0d1;fill-rule:nonzero;"/><path d="M2520.18,3552.08c-25.082,-13.216 -45.521,-27.043 -57.405,-40.923c-45.995,-53.711 -88.66,-74.699 -119.251,-82.418c-5.983,-1.508 -12.061,-2.249 -18.098,-2.249c-17.163,0 -34.002,5.927 -47.416,16.817c-10.098,8.187 -23.241,16.92 -36.574,20.377l2.288,-109.241c-0,-0 -4.413,-1.963 -12.656,-5.589l0.067,-3.054l-109.6,-44.25c-163.242,-69.41 -455.536,-189.243 -659.373,-247.528c40.229,-92.048 86.319,-176.832 136.78,-234.962c138.581,-10.968 292.199,-13.632 414.13,-13.632c57.826,0 108.531,0.598 147.095,1.196c38.618,0.597 65.08,1.208 74.379,1.208c2.383,0 3.641,-0.039 3.682,-0.13c228.594,201.316 300.334,743.95 300.334,743.95l-18.382,0.428Z" style="fill:#f9cfba;fill-rule:nonzero;"/><path d="M1502.65,2326.61c0.447,-0.702 0.88,-1.403 1.313,-2.118l0.325,0.104c-0.541,0.688 -1.083,1.351 -1.638,2.014Z" style="fill:#f9b3a7;fill-rule:nonzero;"/><path d="M1352.77,1976.08c-0.014,-0.039 -0.014,-0.078 -0.028,-0.117c0.014,0.039 0.028,0.065 0.041,0.091l-0.013,0.026Z" style="fill:#f5f1f1;fill-rule:nonzero;"/><path d="M1504.29,2324.6l-0.325,-0.104c17.272,-28.643 18.72,-62.912 11.086,-93.92c-7.81,-32.06 -23.2,-62.379 -43.572,-88.955c-19.911,-27.2 -43.761,-51.879 -65.459,-78.494c-21.631,-26.446 -42.016,-54.959 -53.25,-87.045l0.013,-0.026c15.282,30.371 36.777,56.83 59.544,82.081c22.835,25.302 46.645,50.137 67.788,77.506c20.412,27.979 36.479,59.455 42.976,93.348c3.086,16.894 3.804,34.347 0.785,51.294c-3.14,15.984 -9.515,31.501 -19.586,44.315Z" style="fill:#8c9dd0;fill-rule:nonzero;"/><path d="M1285.17,2095.23c-4.196,-5.406 -8.46,-10.786 -12.723,-16.179c5.021,3.95 9.84,8.109 14.524,12.45c-0.596,1.247 -1.219,2.482 -1.801,3.729Z" style="fill:#f5f1f1;fill-rule:nonzero;"/><path d="M1381.22,2266.24c-6.809,-16.959 -13.604,-33.698 -21.319,-50.02c-7.824,-16.258 -15.959,-32.307 -25.123,-47.837c-8.947,-15.647 -18.896,-30.735 -29.197,-45.667c-6.524,-9.305 -13.373,-18.428 -20.412,-27.486c0.582,-1.247 1.205,-2.482 1.801,-3.729c8.96,8.304 17.298,17.232 25.176,26.537c12.088,14.113 22.551,29.461 31.945,45.354c9.164,16.011 17.258,32.633 23.431,49.917c6.253,17.219 11.18,34.88 13.698,52.931Z" style="fill:#8c9dd0;fill-rule:nonzero;"/><path d="M1695.28,2158.48c-31.755,-5.237 -61.223,-21.209 -85.222,-42.158c-24.148,-21.066 -42.908,-47.291 -57.175,-75.323c-13.455,-28.395 -22.876,-58.298 -28.981,-88.617c-6.131,-30.332 -9.745,-60.885 -12.182,-91.528c6.782,30.033 12.453,60.248 20.169,89.838c7.715,29.553 16.798,58.78 30.645,85.941c13.035,27.408 31.119,52.58 53.196,73.984c22.05,21.365 49.013,38.48 79.55,47.863Z" style="fill:#8c9dd0;fill-rule:nonzero;"/><path d="M2309.7,2334.01c-2.302,-0.584 -4.616,-1.13 -6.931,-1.663c-0.013,-0.117 -0.027,-0.234 -0.04,-0.351c2.328,0.65 4.656,1.313 6.971,2.014Z" style="fill:#f9b3a7;fill-rule:nonzero;"/><path d="M1783.94,2558.42c-1.868,-2.56 -3.709,-5.094 -5.563,-7.667c31.593,-47.551 70.44,-90.814 115.65,-127.149c57.365,-45.043 125.045,-78.143 197.083,-94.661c33.921,-7.68 68.735,-11.839 103.522,-11.839c2.125,0 4.264,0.013 6.389,0.052c34.462,0.78 68.776,5.653 101.709,14.841c0.013,0.117 0.027,0.234 0.04,0.351c-30.185,-6.966 -61.168,-10.305 -92.044,-10.305c-3.235,-0 -6.47,0.038 -9.705,0.103c-36.466,0.507 -72.769,5.498 -107.921,14.439c-70.306,17.778 -136.591,50.176 -192.278,94.907c-45.737,35.868 -84.599,79.338 -116.882,126.928Z" style="fill:#8c9dd0;fill-rule:nonzero;"/><path d="M1683.15,2787.78c6.754,-34.633 16.013,-68.864 27.857,-102.341c12.128,-33.373 26.95,-65.888 44.398,-97.103c7.16,-12.775 14.821,-25.329 22.97,-37.584c1.854,2.573 3.695,5.107 5.563,7.667c-7.485,11.034 -14.605,22.275 -21.386,33.711c-18.112,30.397 -33.597,62.249 -46.672,95.025c-13.374,32.671 -24.284,66.329 -32.73,100.625Z" style="fill:#7488c4;fill-rule:nonzero;"/><path d="M2320.53,2542.64c-4.345,-2.067 -8.703,-4.172 -13.075,-6.225c0.013,-0.585 0.027,-1.17 0.027,-1.755c4.412,2.587 8.757,5.277 13.048,7.98Z" style="fill:#f9b3a7;fill-rule:nonzero;"/><path d="M1994.53,2768.64c-3.695,-18.766 4.616,-38.142 16.839,-52.996c12.466,-15.049 29.467,-26.121 46.766,-34.971c17.245,-9.149 35.315,-16.167 51.64,-25.563c16.365,-9.214 30.74,-21.209 42.475,-35.374c11.925,-13.957 21.17,-30.072 27.018,-47.278c2.964,-8.564 4.995,-17.934 9.218,-27.083c4.006,-9.24 11.532,-17.557 20.561,-22.6c11.018,-6.302 23.457,-9.058 35.802,-9.058c7.973,0 15.905,1.144 23.39,3.249c14.118,4.068 26.977,10.501 39.241,17.7c-0,0.585 -0.014,1.17 -0.027,1.755c-13.117,-6.173 -26.422,-11.878 -40.473,-14.62c-5.915,-1.339 -12.033,-2.04 -18.097,-2.04c-12.697,-0 -25.217,3.054 -35.423,9.629c-7.54,4.835 -13.049,11.54 -16.541,19.533c-3.574,8.031 -5.428,17.115 -8.406,26.329c-5.915,18.441 -15.472,35.777 -27.965,50.904c-12.724,14.932 -28.493,27.577 -45.887,36.999c-17.353,9.395 -35.383,16.686 -52.803,24.535c-17.394,7.85 -33.772,17.492 -46.51,31.203c-12.926,13.217 -22.009,30.826 -20.818,49.747Z" style="fill:#8c9dd0;fill-rule:nonzero;"/><path d="M2344.98,2029.77c-26.057,-8.915 -50.705,-21.677 -73.608,-36.856c-22.998,-15.101 -43.883,-33.138 -62.644,-52.957c-18.571,-19.987 -35.072,-41.807 -48.31,-65.342c-13.333,-23.457 -23.985,-48.318 -30.523,-74.114c10.707,24.431 23.052,47.967 37.575,70.15c14.619,22.093 30.876,43.133 49.176,62.457c18.111,19.481 38.226,37.194 59.585,53.465c21.455,16.179 44.56,30.41 68.749,43.197Z" style="fill:#8c9dd0;fill-rule:nonzero;"/><path d="M1676.9,2395.79c-0.569,-0.988 -1.151,-1.962 -1.72,-2.95c9.841,-7.538 19.303,-15.504 28.345,-23.873c27.626,-25.043 51.449,-53.724 70.738,-85.018c9.705,-15.685 18.964,-31.839 30.063,-47.148c10.978,-15.283 23.932,-29.981 40.594,-40.754c8.325,-5.342 17.516,-9.474 27.086,-12.398c9.61,-2.729 19.41,-4.198 29.169,-5.095c19.506,-1.559 38.713,-0.831 57.447,-1.702c18.639,-0.793 37.156,-3.652 52.668,-12.45c15.539,-8.694 27.356,-22.742 34.854,-38.818c15.228,-32.567 16.582,-69.786 17.096,-106.109c0.542,-36.57 -0.731,-73.179 -3.573,-109.697c-2.518,-36.544 -6.714,-73.009 -12.602,-109.267c7.594,35.959 13.522,72.282 17.773,108.826c3.938,36.569 6.104,73.347 6.564,110.138c0.704,36.517 -0.582,74.803 -16.432,109.956c-7.905,17.362 -20.954,33.399 -38.51,43.366c-17.569,10.163 -38.008,13.295 -57.311,14.27c-19.451,0.792 -38.523,-0.143 -57.121,1.234c-9.272,0.767 -18.395,2.106 -27.166,4.497c-8.677,2.599 -16.947,6.225 -24.582,11.007c-30.807,19.753 -48.512,53.542 -69.019,84.264c-20.493,31.358 -45.508,60.027 -74.204,84.589c-9.678,8.161 -19.748,15.88 -30.157,23.132Z" style="fill:#8c9dd0;fill-rule:nonzero;"/><path d="M1611.18,2433.01c22.645,-11.423 44.1,-24.912 63.997,-40.169c0.569,0.988 1.151,1.962 1.72,2.95c-20.67,14.373 -42.693,26.875 -65.717,37.219Z" style="fill:#7488c4;fill-rule:nonzero;"/><path d="M2776.22,3687.3c22.713,-3.781 -0.555,-44.263 -53.331,-59.468c-84.437,-24.328 -220.283,-70.15 -260.105,-116.675c-45.995,-53.711 -88.66,-74.699 -119.251,-82.418c-22.984,-5.796 -47.376,-0.156 -65.514,14.568c-12.304,9.981 -29.129,20.767 -45.318,21.832c-19.072,1.248 -42.015,-3.443 -42.015,-3.443l9.718,246.995c0,0 473.323,-4.288 575.816,-21.391Z" style="fill:#f69988;fill-rule:nonzero;"/><path d="M2236.32,3706.44c-0,-0 -1582.63,-22.249 -1593.63,-415.263c-10.179,-363.138 618.874,-276.873 685.078,-267.776c248.058,34.023 915.959,331.039 915.959,331.039l-7.404,352Z" style="fill:#fde0d1;fill-rule:nonzero;"/><path d="M2200.32,3706.41c-7.147,-0.403 -15.918,-0.91 -26.205,-1.521c9.813,0.312 18.544,0.559 26.165,0.754l0.04,0.767Z" style="fill:#8e373d;fill-rule:nonzero;"/><path d="M2222.23,3707.62c-0,0 -7.702,-0.402 -21.915,-1.208l-0.04,-0.767c8.92,0.234 16.283,0.403 21.995,0.533l-0.04,1.442Z" style="fill:#f6927f;fill-rule:nonzero;"/><path d="M2231.07,3348.85c-18.842,-8.291 -57.663,-25.237 -109.533,-47.304l109.6,44.25l-0.067,3.054Z" style="fill:#eec2ac;fill-rule:nonzero;"/><path d="M2222.27,3706.18c-5.712,-0.13 -13.075,-0.299 -21.995,-0.533c-7.621,-0.195 -16.352,-0.442 -26.165,-0.754c-204.527,-12.112 -1000.68,-65.004 -1208.35,-164.694l849.16,-362.423l306.614,123.771c51.87,22.067 90.691,39.013 109.533,47.304l-8.799,357.329Z" style="fill:#fdd4c0;fill-rule:nonzero;"/><path d="M2097.92,3703.78l45.386,-403.645l-14.131,-1.469l-45.386,403.645" style="fill:#fff;fill-rule:nonzero;"/><path d="M1743.98,3686.36c0,-0 1515.45,-49.631 1470.92,-440.462c-33.096,-290.622 -529.713,-233.922 -766.199,-154.389c-236.471,79.534 -723.627,290.609 -723.627,290.609l18.909,304.242Z" style="fill:#fde0d1;fill-rule:nonzero;"/><path d="M1173.46,3687.12c-22.984,-1.65 -3.926,-44.12 47.064,-64.172c81.567,-32.06 212.161,-90.333 247.111,-140.353c40.337,-57.727 80.66,-82.601 110.344,-93.14c22.28,-7.902 47.132,-4.562 66.678,8.408c13.252,8.785 31.078,17.96 47.321,17.505c19.086,-0.52 41.461,-7.329 41.461,-7.329l15.282,246.735c-0,0 -471.536,39.819 -575.261,32.346Z" style="fill:#f69988;fill-rule:nonzero;"/><path d="M1799.97,3352.5l31.525,316.353l14.158,-1.299l-31.525,-316.353" style="fill:#fff;fill-rule:nonzero;"/></svg>