<?xml version="1.0" encoding="UTF-8" standalone="no"?><!DOCTYPE svg PUBLIC "-//W3C//DTD SVG 1.1//EN" "http://www.w3.org/Graphics/SVG/1.1/DTD/svg11.dtd"><svg width="100%" height="100%" viewBox="0 0 1667 1667" version="1.1" xmlns="http://www.w3.org/2000/svg" xmlns:xlink="http://www.w3.org/1999/xlink" xml:space="preserve" xmlns:serif="http://www.serif.com/" style="fill-rule:evenodd;clip-rule:evenodd;stroke-linejoin:round;stroke-miterlimit:2;"><g id="LOGO"><g id="LOGO1" serif:id="LOGO"><path d="M839.862,122.086c-124.732,-9.07 -283.641,53.388 -300.357,133.186c-25.373,121.122 398.012,269.415 350.093,440.288c-47.919,170.873 -84.979,258.912 77.576,307.224c51.521,15.313 136.177,-36.981 204.718,-108.307c184.234,-191.719 204.184,-733.403 -332.03,-772.391Z" style="fill:#ffc088;fill-opacity:0.2;"/><g id="ENERGIE"><path d="M822.928,151.365l-2.915,-0.025c-47.235,0.228 -92.604,8.318 -134.881,23.02c-43.741,15.21 -84.175,37.487 -119.907,65.494c-49.608,38.88 -90.157,88.776 -117.968,145.976c-26.833,55.191 -41.822,117.179 -41.566,182.642c0.194,56.227 11.613,109.807 32.11,158.64c21.21,50.531 52.14,95.981 90.475,133.975c17.507,17.371 36.559,33.187 56.929,47.223c20.236,13.942 41.772,26.128 64.389,36.334c26.398,11.942 54.273,21.176 83.266,27.385c28.103,6.018 57.259,9.196 87.153,9.176c47.515,0.034 93.164,-8.001 135.678,-22.751c44.074,-15.292 84.786,-37.806 120.679,-66.17c14.85,-11.728 28.872,-24.457 41.979,-38.074c13.104,-13.614 25.294,-28.115 36.454,-43.416c25.249,-34.594 45.245,-73.259 58.862,-114.811c13.158,-40.151 20.36,-83 20.52,-127.511c0.14,-35.263 -4.15,-69.517 -12.319,-102.246c-8.453,-33.868 -21.065,-66.101 -37.275,-96.119c-6.895,-12.77 -14.441,-25.138 -22.592,-37.062c-8.184,-11.972 -16.979,-23.493 -26.339,-34.523c-38.594,-45.505 -86.817,-82.593 -141.501,-108.166c-52.105,-24.367 -110.081,-38.267 -171.231,-38.991Zm-2.915,9.704c-46.206,-0.223 -90.666,7.254 -132.153,21.253c-43.054,14.528 -82.905,36.065 -118.205,63.235c-49.18,37.855 -89.54,86.639 -117.391,142.734c-26.97,54.322 -42.211,115.485 -42.464,180.181c-0.193,55.744 10.752,108.949 30.762,157.491c20.759,50.36 51.267,95.7 89.144,133.69c17.346,17.378 36.236,33.215 56.448,47.286c20.095,13.99 41.495,26.235 63.981,36.514c26.286,11.987 54.049,21.301 82.945,27.554c28.023,6.064 57.11,9.249 86.933,9.269c47.396,-0.034 92.935,-8.071 135.308,-22.886c43.891,-15.347 84.38,-37.963 120.059,-66.355c14.742,-11.739 28.664,-24.463 41.654,-38.085c12.979,-13.61 25.025,-28.115 36.052,-43.402c24.893,-34.531 44.574,-73.065 57.839,-114.453c12.792,-39.911 19.611,-82.472 19.453,-126.623c-0.139,-34.904 -4.635,-68.78 -12.992,-101.108c-8.629,-33.38 -21.375,-65.104 -37.645,-94.611c-6.911,-12.533 -14.46,-24.665 -22.602,-36.354c-8.168,-11.726 -16.934,-23.003 -26.252,-33.79c-38.353,-44.372 -86.068,-80.422 -140.06,-105.037c-51.227,-23.355 -108.106,-36.397 -167.961,-36.508l-2.853,0.005Z" style="fill:#ff7905;"/><path d="M834.667,186.347c-114.704,0.814 -218.21,48.111 -293.035,123.764c-30.413,30.749 -56.01,66.206 -75.866,105.089c-14.645,28.68 -26.206,59.204 -34.049,91.211c-7.603,31.026 -11.818,63.403 -12.048,96.735c-0.988,114.911 44.848,219.4 119.633,295.365c53.281,54.121 121.234,93.878 197.449,112.518c31.391,7.677 64.196,11.666 97.916,11.748c56.828,-0.241 111.032,-11.673 160.337,-32.516c50.959,-21.543 96.661,-53.069 134.833,-91.945c52.937,-53.913 91.234,-122.136 108.784,-198.195c7.188,-31.152 10.938,-63.615 10.697,-96.975c-0.082,-44.702 -7.358,-87.714 -20.444,-128.076c-20.412,-62.957 -55.223,-119.436 -100.759,-165.371c-74.963,-75.619 -178.665,-122.744 -293.448,-123.352Zm0,6.296c113.52,-0.601 216.641,44.937 291.428,119.075c45.694,45.297 80.931,101.229 101.334,163.822c13.094,40.17 19.971,83.093 19.888,127.606c-0.239,33.143 -4.355,65.355 -12.012,96.181c-18.567,74.742 -57.74,141.296 -110.932,193.525c-38.027,37.337 -83.31,67.215 -133.425,87.636c-48.239,19.655 -100.983,30.563 -156.281,30.329c-43.985,0.141 -86.35,-6.776 -126.122,-19.475c-62.146,-19.843 -117.949,-53.962 -163.389,-98.685c-74.972,-73.791 -121.817,-176.114 -122.792,-289.511c-0.229,-33.17 3.417,-65.469 10.662,-96.421c7.493,-32.008 18.716,-62.617 33.338,-91.219c19.817,-38.765 45.801,-73.874 76.463,-104.2c74.926,-74.106 178.239,-119.468 291.84,-118.663Z" style="fill:#ff7905;"/><path d="M823.893,167.864c-117.887,1.276 -224.216,50.056 -300.753,128.172c-75.941,77.507 -122.66,183.784 -121.537,300.753c0.833,116.216 48.77,221.058 125.389,296.901c76.315,75.542 181.144,122.43 296.901,122.081c115.775,0.397 220.652,-46.449 296.995,-121.987c76.659,-75.852 124.596,-180.742 125.429,-296.995c1.1,-116.997 -45.649,-223.291 -121.623,-300.801c-76.559,-78.106 -182.906,-126.873 -300.801,-128.124Zm-0,30.548c110.416,-1.171 210.924,42.6 284.075,114.302c73.743,72.283 119.756,172.763 120.802,284.075c0.803,112.053 -43.886,213.991 -116.996,287.881c-73.418,74.2 -175.355,120.052 -287.881,120.438c-112.544,-0.339 -214.53,-46.147 -287.975,-120.344c-73.15,-73.899 -117.84,-175.886 -117.037,-287.975c1.07,-111.34 47.112,-211.837 120.889,-284.123c73.172,-71.693 173.697,-115.448 284.123,-114.254Z" style="fill:#ff7905;fill-opacity:0.15;"/></g><path d="M245.198,855.254c-0,-0 402.932,-86.843 656.657,143.337c253.724,230.18 -409.19,110.225 -656.657,-143.337Z" style="fill:url(#_Linear1);"/><path d="M750.078,1136.5c-0,-0 219.829,-348.672 561.806,-368.943c341.976,-20.271 -207.499,369.5 -561.806,368.943Z" style="fill:url(#_Linear2);"/></g><g><path d="M253.387,1354.66l-77.085,-69.625l5.94,3.316l0.415,62.164l-20.307,0l-0,-105.68l0.828,0l75.427,69.349l-4.42,-1.934l-0.415,-63.409l20.169,0l0,105.819l-0.552,-0Z" style="fill-rule:nonzero;"/><path d="M268.721,1350.52l45.864,-105.68l1.105,0l45.864,105.68l-23.209,0l-29.286,-74.321l14.505,-9.947l-35.089,84.268l-19.754,0Zm31.358,-36.746l30.53,0l7.046,16.854l-43.792,-0l6.216,-16.854Z" style="fill-rule:nonzero;"/><path d="M361.139,1248.84l68.52,0l-0,19.34l-24.728,0l-0,82.334l-20.031,0l0,-82.334l-23.761,0l0,-19.34Z" style="fill-rule:nonzero;"/><path d="M534.51,1248.84l0,101.674l-20.031,0l0,-41.305l-45.449,0l-0,41.305l-20.031,0l-0,-101.674l20.031,0l-0,41.029l45.449,0l0,-41.029l20.031,0Z" style="fill-rule:nonzero;"/><path d="M549.292,1350.52l45.864,-105.68l1.105,0l45.864,105.68l-23.209,0l-29.286,-74.321l14.505,-9.947l-35.089,84.268l-19.754,0Zm31.358,-36.746l30.53,0l7.046,16.854l-43.792,-0l6.216,-16.854Z" style="fill-rule:nonzero;"/><path d="M656.906,1248.84l20.031,0l0,82.334l47.798,0l-0,19.34l-67.829,0l0,-101.674Z" style="fill-rule:nonzero;"/><rect x="745.457" y="1248.84" width="20.031" height="101.674" style="fill-rule:nonzero;"/><path d="M791.735,1248.84l69.348,0l0,19.34l-49.317,0l-0,21.689l43.653,0l0,19.34l-43.653,0l-0,21.965l51.251,0l0,19.34l-71.282,0l-0,-101.674Z" style="fill-rule:nonzero;"/><path d="M1004.89,1342.09c-1.106,0.921 -3.155,2.164 -6.148,3.73c-2.993,1.565 -6.654,2.947 -10.982,4.144c-4.329,1.197 -9.118,1.75 -14.367,1.658c-8.013,-0.185 -15.173,-1.635 -21.482,-4.352c-6.308,-2.717 -11.65,-6.424 -16.025,-11.121c-4.374,-4.696 -7.713,-10.084 -10.015,-16.162c-2.302,-6.079 -3.454,-12.572 -3.454,-19.479c0,-7.736 1.175,-14.827 3.523,-21.274c2.349,-6.447 5.71,-12.019 10.085,-16.715c4.374,-4.697 9.601,-8.335 15.679,-10.914c6.078,-2.579 12.801,-3.868 20.169,-3.868c6.815,0 12.847,0.921 18.097,2.763c5.249,1.842 9.532,3.822 12.847,5.94l-7.874,18.926c-2.302,-1.75 -5.364,-3.569 -9.186,-5.457c-3.822,-1.888 -8.22,-2.832 -13.193,-2.832c-3.868,0 -7.575,0.806 -11.121,2.418c-3.546,1.612 -6.677,3.891 -9.394,6.838c-2.716,2.947 -4.858,6.378 -6.423,10.292c-1.566,3.914 -2.349,8.173 -2.349,12.778c0,4.881 0.714,9.348 2.141,13.4c1.428,4.052 3.477,7.529 6.148,10.43c2.671,2.901 5.871,5.134 9.601,6.7c3.73,1.566 7.943,2.348 12.64,2.348c5.434,0 10.085,-0.874 13.953,-2.624c3.868,-1.75 6.815,-3.592 8.841,-5.526l8.289,17.959Z" style="fill-rule:nonzero;"/><path d="M1013.46,1350.52l45.864,-105.68l1.106,0l45.863,105.68l-23.208,0l-29.286,-74.321l14.505,-9.947l-35.089,84.268l-19.755,0Zm31.359,-36.746l30.53,0l7.045,16.854l-43.791,-0l6.216,-16.854Z" style="fill-rule:nonzero;"/><path d="M1151.88,1248.84c6.355,0 12.019,0.806 16.992,2.418c4.973,1.611 9.14,3.914 12.502,6.907c3.361,2.993 5.917,6.585 7.667,10.775c1.75,4.191 2.625,8.911 2.625,14.16c-0,4.144 -0.622,8.289 -1.865,12.433c-1.244,4.144 -3.27,7.92 -6.079,11.328c-2.809,3.407 -6.515,6.147 -11.12,8.219c-4.605,2.073 -10.315,3.109 -17.13,3.109l-14.367,-0l-0,32.325l-20.031,0l-0,-101.674l30.806,0Zm3.454,50.009c3.039,-0 5.571,-0.507 7.598,-1.52c2.026,-1.013 3.614,-2.302 4.766,-3.868c1.151,-1.566 1.98,-3.2 2.486,-4.904c0.507,-1.704 0.76,-3.293 0.76,-4.766c-0,-1.105 -0.161,-2.51 -0.484,-4.214c-0.322,-1.703 -0.99,-3.43 -2.003,-5.18c-1.013,-1.75 -2.555,-3.223 -4.627,-4.421c-2.073,-1.197 -4.859,-1.796 -8.358,-1.796l-14.367,0l-0,30.669l14.229,-0Zm18.787,12.432l25.143,39.233l-23.347,0l-25.695,-38.68l23.899,-0.553Z" style="fill-rule:nonzero;"/><path d="M1206.86,1248.84l68.52,0l0,19.34l-24.728,0l0,82.334l-20.031,0l0,-82.334l-23.761,0l0,-19.34Z" style="fill-rule:nonzero;"/><rect x="1294.72" y="1248.84" width="20.031" height="101.674" style="fill-rule:nonzero;"/><path d="M1341,1248.84l69.348,0l-0,19.34l-49.318,0l0,21.689l43.654,0l0,19.34l-43.654,0l0,21.965l51.252,0l0,19.34l-71.282,0l-0,-101.674Z" style="fill-rule:nonzero;"/><path d="M1463.81,1248.84c6.354,0 12.018,0.806 16.992,2.418c4.973,1.611 9.14,3.914 12.502,6.907c3.361,2.993 5.917,6.585 7.667,10.775c1.749,4.191 2.624,8.911 2.624,14.16c0,4.144 -0.621,8.289 -1.865,12.433c-1.243,4.144 -3.269,7.92 -6.078,11.328c-2.809,3.407 -6.516,6.147 -11.121,8.219c-4.604,2.073 -10.314,3.109 -17.129,3.109l-14.367,-0l-0,32.325l-20.031,0l-0,-101.674l30.806,0Zm3.453,50.009c3.04,-0 5.572,-0.507 7.598,-1.52c2.026,-1.013 3.615,-2.302 4.766,-3.868c1.152,-1.566 1.98,-3.2 2.487,-4.904c0.506,-1.704 0.76,-3.293 0.76,-4.766c-0,-1.105 -0.161,-2.51 -0.484,-4.214c-0.322,-1.703 -0.99,-3.43 -2.003,-5.18c-1.013,-1.75 -2.556,-3.223 -4.628,-4.421c-2.072,-1.197 -4.858,-1.796 -8.357,-1.796l-14.367,0l-0,30.669l14.228,-0Zm18.788,12.432l25.142,39.233l-23.346,0l-25.695,-38.68l23.899,-0.553Z" style="fill-rule:nonzero;"/><path d="M43.394,1435.19l57.099,0l0,5.771l-25.664,0l0,81.413l-6.017,0l0,-81.413l-25.418,0l-0,-5.771Z" style="fill-rule:nonzero;"/><path d="M118.299,1522.37l-0,-93.324l5.648,0l0,58.082l-0.368,-2.087c1.637,-3.357 4.277,-6.201 7.92,-8.535c3.643,-2.333 7.838,-3.499 12.587,-3.499c4.502,-0 8.145,1.33 10.928,3.991c2.784,2.66 4.216,6.119 4.298,10.376l0,34.996l-5.894,0l-0,-33.4c-0.082,-3.111 -1.064,-5.689 -2.947,-7.736c-1.883,-2.046 -4.625,-3.111 -8.227,-3.193c-3.193,0 -6.181,0.819 -8.964,2.456c-2.784,1.638 -5.015,3.848 -6.693,6.631c-1.678,2.784 -2.517,5.935 -2.517,9.455l-0,25.787l-5.771,0Z" style="fill-rule:nonzero;"/><path d="M202.045,1523.36c-4.994,-0 -9.415,-1.105 -13.262,-3.316c-3.848,-2.21 -6.856,-5.219 -9.026,-9.025c-2.169,-3.807 -3.254,-8.084 -3.254,-12.832c0,-4.666 1.146,-8.923 3.439,-12.771c2.292,-3.847 5.382,-6.917 9.271,-9.209c3.888,-2.293 8.206,-3.439 12.954,-3.439c5.731,0 10.54,1.678 14.429,5.035c3.888,3.356 6.692,7.736 8.411,13.139l-41.996,16.209l-1.719,-4.175l38.435,-14.981l-1.228,1.719c-1.391,-3.275 -3.499,-6.099 -6.324,-8.473c-2.824,-2.374 -6.283,-3.561 -10.376,-3.561c-3.684,0 -6.999,0.901 -9.946,2.702c-2.947,1.801 -5.301,4.215 -7.061,7.244c-1.76,3.029 -2.64,6.468 -2.64,10.315c-0,3.602 0.839,6.959 2.517,10.069c1.678,3.111 4.032,5.608 7.061,7.491c3.029,1.883 6.508,2.824 10.437,2.824c2.62,0 5.137,-0.491 7.552,-1.473c2.415,-0.983 4.564,-2.252 6.447,-3.807l2.947,4.175c-2.292,1.801 -4.932,3.275 -7.92,4.421c-2.988,1.146 -6.037,1.719 -9.148,1.719Zm8.473,-75.396l-13.017,16.331l-4.175,0l10.683,-16.331l6.509,-0Z" style="fill-rule:nonzero;"/><path d="M246.005,1474.36l0.614,14.735l-0.737,-1.842c1.065,-2.947 2.743,-5.485 5.035,-7.613c2.292,-2.129 4.85,-3.766 7.675,-4.912c2.824,-1.146 5.546,-1.719 8.166,-1.719l-0.246,5.648c-3.684,0 -7.02,0.819 -10.008,2.456c-2.988,1.638 -5.362,3.827 -7.122,6.57c-1.76,2.742 -2.64,5.833 -2.64,9.271l0,25.418l-5.771,0l-0,-48.012l5.034,-0Z" style="fill-rule:nonzero;"/><path d="M302.245,1523.36c-4.584,-0 -8.739,-1.044 -12.463,-3.132c-3.725,-2.087 -6.672,-5.014 -8.842,-8.779c-2.169,-3.766 -3.254,-8.146 -3.254,-13.139c0,-5.322 1.146,-9.885 3.439,-13.692c2.292,-3.807 5.403,-6.713 9.332,-8.718c3.929,-2.006 8.391,-3.009 13.385,-3.009c4.257,0 8.288,1.269 12.095,3.807c3.807,2.537 6.529,5.73 8.166,9.578l-0.86,1.719l0.737,-13.63l5.157,-0l0,48.012l-5.771,0l0,-14.858l1.228,2.211c-0.573,1.637 -1.555,3.254 -2.947,4.85c-1.392,1.596 -3.09,3.07 -5.096,4.421c-2.006,1.35 -4.216,2.414 -6.631,3.192c-2.415,0.778 -4.973,1.167 -7.675,1.167Zm1.228,-4.912c3.602,-0 6.856,-0.757 9.762,-2.272c2.907,-1.514 5.26,-3.622 7.061,-6.324c1.801,-2.701 2.824,-5.812 3.07,-9.332l0,-6.877c-0.655,-3.029 -1.944,-5.73 -3.868,-8.104c-1.924,-2.374 -4.277,-4.257 -7.061,-5.649c-2.783,-1.391 -5.812,-2.087 -9.087,-2.087c-3.601,-0 -6.917,0.839 -9.946,2.517c-3.029,1.678 -5.444,4.032 -7.245,7.061c-1.801,3.029 -2.701,6.59 -2.701,10.683c-0,3.766 0.9,7.183 2.701,10.253c1.801,3.07 4.237,5.526 7.307,7.368c3.069,1.842 6.405,2.763 10.007,2.763Z" style="fill-rule:nonzero;"/><path d="M377.519,1523.36c-4.585,-0 -8.883,-1.208 -12.894,-3.623c-4.011,-2.415 -6.958,-5.546 -8.841,-9.394l0.982,-2.087l0,37.207l-5.771,-0l-0,-71.467l5.157,0l0.614,15.718l-1.105,-3.561c2.129,-3.848 5.239,-7.02 9.333,-9.517c4.093,-2.497 8.554,-3.745 13.384,-3.745c4.585,0 8.719,1.105 12.402,3.316c3.684,2.21 6.611,5.218 8.78,9.025c2.17,3.807 3.254,8.166 3.254,13.078c0,4.83 -1.125,9.148 -3.376,12.954c-2.252,3.807 -5.281,6.775 -9.087,8.903c-3.807,2.129 -8.084,3.193 -12.832,3.193Zm-0.983,-4.789c3.766,-0 7.184,-0.901 10.254,-2.702c3.07,-1.801 5.525,-4.236 7.367,-7.306c1.842,-3.07 2.763,-6.488 2.763,-10.253c0,-3.848 -0.9,-7.307 -2.701,-10.377c-1.801,-3.069 -4.196,-5.505 -7.184,-7.306c-2.988,-1.801 -6.365,-2.701 -10.13,-2.701c-3.602,-0 -6.877,0.818 -9.824,2.456c-2.947,1.637 -5.321,3.847 -7.122,6.63c-1.801,2.784 -2.865,5.936 -3.193,9.456l0,3.929c0.246,3.356 1.29,6.426 3.132,9.21c1.841,2.783 4.216,4.973 7.122,6.569c2.906,1.597 6.078,2.395 9.516,2.395Z" style="fill-rule:nonzero;"/><path d="M440.881,1523.36c-4.994,-0 -9.414,-1.105 -13.262,-3.316c-3.848,-2.21 -6.856,-5.219 -9.025,-9.025c-2.17,-3.807 -3.255,-8.084 -3.255,-12.832c0,-4.666 1.147,-8.923 3.439,-12.771c2.292,-3.847 5.382,-6.917 9.271,-9.209c3.888,-2.293 8.207,-3.439 12.955,-3.439c5.73,0 10.539,1.678 14.428,5.035c3.889,3.356 6.692,7.736 8.411,13.139l-41.995,16.209l-1.72,-4.175l38.435,-14.981l-1.228,1.719c-1.391,-3.275 -3.499,-6.099 -6.324,-8.473c-2.824,-2.374 -6.283,-3.561 -10.376,-3.561c-3.684,0 -6.999,0.901 -9.946,2.702c-2.947,1.801 -5.301,4.215 -7.061,7.244c-1.76,3.029 -2.64,6.468 -2.64,10.315c0,3.602 0.839,6.959 2.517,10.069c1.679,3.111 4.032,5.608 7.061,7.491c3.029,1.883 6.508,2.824 10.438,2.824c2.619,0 5.137,-0.491 7.551,-1.473c2.415,-0.983 4.564,-2.252 6.447,-3.807l2.947,4.175c-2.292,1.801 -4.932,3.275 -7.92,4.421c-2.988,1.146 -6.037,1.719 -9.148,1.719Z" style="fill-rule:nonzero;"/><path d="M494.911,1523.72c-4.503,0 -8.105,-1.33 -10.806,-3.991c-2.702,-2.66 -4.134,-6.119 -4.298,-10.376l-0,-34.996l5.771,-0l0,33.277c0.164,3.111 1.167,5.689 3.009,7.736c1.842,2.047 4.604,3.152 8.288,3.316c3.111,-0 6.017,-0.819 8.719,-2.456c2.701,-1.638 4.891,-3.868 6.569,-6.693c1.678,-2.824 2.518,-6.037 2.518,-9.639l-0,-25.541l5.771,-0l-0,48.012l-5.157,0l-0.614,-15.103l0.859,3.315c-0.819,2.456 -2.272,4.687 -4.359,6.692c-2.088,2.006 -4.544,3.582 -7.368,4.728c-2.824,1.146 -5.792,1.719 -8.902,1.719Z" style="fill-rule:nonzero;"/><path d="M547.098,1453.24l5.895,-0l-0,21.735l14.858,-0l-0,4.666l-14.858,-0l-0,42.732l-5.895,0l0,-42.732l-10.192,-0l0,-4.666l10.192,-0l0,-21.735Z" style="fill-rule:nonzero;"/><path d="M603.093,1523.36c-4.994,-0 -9.414,-1.105 -13.262,-3.316c-3.848,-2.21 -6.856,-5.219 -9.025,-9.025c-2.17,-3.807 -3.254,-8.084 -3.254,-12.832c-0,-4.666 1.146,-8.923 3.438,-12.771c2.292,-3.847 5.382,-6.917 9.271,-9.209c3.888,-2.293 8.207,-3.439 12.955,-3.439c5.73,0 10.54,1.678 14.428,5.035c3.889,3.356 6.692,7.736 8.412,13.139l-41.996,16.209l-1.719,-4.175l38.434,-14.981l-1.228,1.719c-1.391,-3.275 -3.499,-6.099 -6.324,-8.473c-2.824,-2.374 -6.283,-3.561 -10.376,-3.561c-3.684,0 -6.999,0.901 -9.946,2.702c-2.947,1.801 -5.301,4.215 -7.061,7.244c-1.76,3.029 -2.64,6.468 -2.64,10.315c0,3.602 0.839,6.959 2.517,10.069c1.679,3.111 4.032,5.608 7.061,7.491c3.029,1.883 6.508,2.824 10.438,2.824c2.619,0 5.137,-0.491 7.552,-1.473c2.415,-0.983 4.563,-2.252 6.446,-3.807l2.947,4.175c-2.292,1.801 -4.932,3.275 -7.92,4.421c-2.988,1.146 -6.037,1.719 -9.148,1.719Z" style="fill-rule:nonzero;"/><path d="M682.664,1522.37l-0,-89.149l0.123,0l42.978,61.029l-2.579,-0.368l42.856,-60.661l0.123,0l-0,89.149l-5.895,0l0,-75.273l0.492,2.947l-36.348,51.206l-0.245,-0l-36.593,-51.206l0.982,-2.701l0,75.027l-5.894,0Z" style="fill-rule:nonzero;"/><path d="M811.844,1523.36c-4.993,-0 -9.414,-1.105 -13.262,-3.316c-3.847,-2.21 -6.856,-5.219 -9.025,-9.025c-2.169,-3.807 -3.254,-8.084 -3.254,-12.832c-0,-4.666 1.146,-8.923 3.438,-12.771c2.292,-3.847 5.383,-6.917 9.271,-9.209c3.889,-2.293 8.207,-3.439 12.955,-3.439c5.73,0 10.54,1.678 14.428,5.035c3.889,3.356 6.693,7.736 8.412,13.139l-41.996,16.209l-1.719,-4.175l38.435,-14.981l-1.228,1.719c-1.392,-3.275 -3.5,-6.099 -6.324,-8.473c-2.824,-2.374 -6.283,-3.561 -10.376,-3.561c-3.684,0 -7,0.901 -9.947,2.702c-2.947,1.801 -5.3,4.215 -7.06,7.244c-1.761,3.029 -2.641,6.468 -2.641,10.315c0,3.602 0.84,6.959 2.518,10.069c1.678,3.111 4.032,5.608 7.06,7.491c3.029,1.883 6.509,2.824 10.438,2.824c2.62,0 5.137,-0.491 7.552,-1.473c2.415,-0.983 4.564,-2.252 6.447,-3.807l2.947,4.175c-2.292,1.801 -4.933,3.275 -7.921,4.421c-2.988,1.146 -6.037,1.719 -9.148,1.719Zm8.473,-75.396l-13.016,16.331l-4.175,0l10.683,-16.331l6.508,-0Z" style="fill-rule:nonzero;"/><path d="M870.417,1523.36c-4.502,-0 -8.595,-1.085 -12.279,-3.254c-3.684,-2.17 -6.611,-5.178 -8.78,-9.026c-2.169,-3.847 -3.254,-8.186 -3.254,-13.016c0,-5.157 1.105,-9.619 3.315,-13.385c2.211,-3.765 5.219,-6.672 9.026,-8.718c3.807,-2.047 8.002,-3.07 12.586,-3.07c4.585,0 8.944,1.187 13.078,3.561c4.134,2.374 7.143,5.485 9.025,9.333l-0.982,2.701l0,-59.433l5.771,0l0,93.324l-5.894,0l0,-14.735l1.228,2.701c-2.046,3.848 -5.116,6.979 -9.209,9.394c-4.094,2.415 -8.637,3.623 -13.631,3.623Zm1.474,-5.035c3.684,0 6.999,-0.798 9.946,-2.394c2.947,-1.597 5.321,-3.766 7.122,-6.508c1.801,-2.743 2.825,-5.833 3.07,-9.271l0,-6.14c-0.573,-3.111 -1.842,-5.894 -3.806,-8.35c-1.965,-2.456 -4.339,-4.4 -7.122,-5.833c-2.784,-1.433 -5.854,-2.149 -9.21,-2.149c-3.684,0 -7.04,0.86 -10.069,2.579c-3.029,1.719 -5.444,4.093 -7.245,7.122c-1.801,3.029 -2.702,6.549 -2.702,10.56c0,3.766 0.901,7.184 2.702,10.254c1.801,3.069 4.236,5.525 7.306,7.367c3.07,1.842 6.406,2.763 10.008,2.763Z" style="fill-rule:nonzero;"/><path d="M940.656,1523.36c-4.994,-0 -9.414,-1.105 -13.262,-3.316c-3.847,-2.21 -6.856,-5.219 -9.025,-9.025c-2.17,-3.807 -3.254,-8.084 -3.254,-12.832c-0,-4.666 1.146,-8.923 3.438,-12.771c2.292,-3.847 5.383,-6.917 9.271,-9.209c3.889,-2.293 8.207,-3.439 12.955,-3.439c5.73,0 10.54,1.678 14.428,5.035c3.889,3.356 6.693,7.736 8.412,13.139l-41.996,16.209l-1.719,-4.175l38.435,-14.981l-1.228,1.719c-1.392,-3.275 -3.5,-6.099 -6.324,-8.473c-2.825,-2.374 -6.283,-3.561 -10.377,-3.561c-3.683,0 -6.999,0.901 -9.946,2.702c-2.947,1.801 -5.301,4.215 -7.061,7.244c-1.76,3.029 -2.64,6.468 -2.64,10.315c0,3.602 0.839,6.959 2.518,10.069c1.678,3.111 4.031,5.608 7.06,7.491c3.029,1.883 6.508,2.824 10.438,2.824c2.62,0 5.137,-0.491 7.552,-1.473c2.415,-0.983 4.564,-2.252 6.446,-3.807l2.948,4.175c-2.293,1.801 -4.933,3.275 -7.921,4.421c-2.988,1.146 -6.037,1.719 -9.148,1.719Z" style="fill-rule:nonzero;"/><path d="M1016.67,1517.71c-2.21,1.801 -4.707,3.193 -7.49,4.175c-2.784,0.983 -5.69,1.474 -8.719,1.474c-4.912,-0 -9.291,-1.085 -13.139,-3.254c-3.847,-2.17 -6.876,-5.137 -9.087,-8.903c-2.21,-3.766 -3.315,-8.063 -3.315,-12.893c-0,-4.83 1.146,-9.128 3.438,-12.894c2.292,-3.766 5.342,-6.733 9.148,-8.903c3.807,-2.169 7.962,-3.254 12.464,-3.254c3.356,0 6.467,0.492 9.332,1.474c2.866,0.982 5.362,2.374 7.491,4.175l-3.07,3.929c-1.719,-1.391 -3.725,-2.537 -6.017,-3.438c-2.292,-0.9 -4.748,-1.351 -7.368,-1.351c-3.602,0 -6.897,0.901 -9.885,2.702c-2.988,1.801 -5.362,4.236 -7.122,7.306c-1.76,3.07 -2.64,6.488 -2.64,10.254c0,3.683 0.88,7.06 2.64,10.13c1.76,3.07 4.175,5.505 7.245,7.306c3.07,1.801 6.488,2.702 10.254,2.702c2.455,-0 4.748,-0.389 6.876,-1.167c2.129,-0.777 4.052,-1.821 5.771,-3.131l3.193,3.561Z" style="fill-rule:nonzero;"/><path d="M1032.75,1474.36l5.772,-0l-0,48.012l-5.772,0l0,-48.012Zm-1.228,-17.683c0,-1.146 0.451,-2.108 1.351,-2.886c0.901,-0.777 1.883,-1.166 2.947,-1.166c1.146,-0 2.129,0.389 2.947,1.166c0.819,0.778 1.228,1.74 1.228,2.886c0,1.228 -0.409,2.231 -1.228,3.009c-0.818,0.777 -1.801,1.166 -2.947,1.166c-1.064,0 -2.046,-0.409 -2.947,-1.228c-0.9,-0.818 -1.351,-1.801 -1.351,-2.947Z" style="fill-rule:nonzero;"/><path d="M1065.42,1474.36l0.614,15.103l-0.737,-2.947c1.392,-4.175 4.032,-7.47 7.92,-9.885c3.889,-2.415 8.207,-3.622 12.955,-3.622c4.503,-0 8.145,1.33 10.929,3.991c2.783,2.66 4.216,6.119 4.298,10.376l-0,34.996l-5.895,0l0,-33.4c-0.081,-3.111 -1.064,-5.689 -2.947,-7.736c-1.882,-2.046 -4.625,-3.111 -8.227,-3.193c-3.193,0 -6.181,0.778 -8.964,2.334c-2.783,1.555 -5.014,3.724 -6.692,6.508c-1.678,2.783 -2.518,6.017 -2.518,9.7l0,25.787l-5.771,0l0,-48.012l5.035,-0Z" style="fill-rule:nonzero;"/><path d="M1144.13,1523.36c-4.993,-0 -9.414,-1.105 -13.262,-3.316c-3.847,-2.21 -6.856,-5.219 -9.025,-9.025c-2.169,-3.807 -3.254,-8.084 -3.254,-12.832c-0,-4.666 1.146,-8.923 3.438,-12.771c2.292,-3.847 5.383,-6.917 9.271,-9.209c3.889,-2.293 8.207,-3.439 12.955,-3.439c5.73,0 10.54,1.678 14.428,5.035c3.889,3.356 6.693,7.736 8.412,13.139l-41.996,16.209l-1.719,-4.175l38.435,-14.981l-1.228,1.719c-1.392,-3.275 -3.5,-6.099 -6.324,-8.473c-2.824,-2.374 -6.283,-3.561 -10.376,-3.561c-3.684,0 -7,0.901 -9.947,2.702c-2.947,1.801 -5.3,4.215 -7.06,7.244c-1.76,3.029 -2.641,6.468 -2.641,10.315c0,3.602 0.84,6.959 2.518,10.069c1.678,3.111 4.032,5.608 7.06,7.491c3.029,1.883 6.509,2.824 10.438,2.824c2.62,0 5.137,-0.491 7.552,-1.473c2.415,-0.983 4.564,-2.252 6.447,-3.807l2.947,4.175c-2.292,1.801 -4.933,3.275 -7.921,4.421c-2.988,1.146 -6.037,1.719 -9.148,1.719Z" style="fill-rule:nonzero;"/><path d="M1194.35,1523.36c-2.783,-0 -5.689,-0.512 -8.718,-1.535c-3.029,-1.023 -5.485,-2.681 -7.368,-4.973l2.702,-3.807c1.637,1.719 3.581,3.09 5.832,4.114c2.252,1.023 4.646,1.535 7.184,1.535c1.883,-0 3.663,-0.267 5.342,-0.799c1.678,-0.532 3.049,-1.453 4.113,-2.763c1.064,-1.309 1.597,-3.069 1.597,-5.28c-0,-2.292 -0.635,-4.052 -1.904,-5.28c-1.269,-1.228 -2.865,-2.231 -4.789,-3.008c-1.924,-0.778 -3.95,-1.494 -6.078,-2.149c-3.52,-1.146 -6.406,-2.702 -8.657,-4.666c-2.251,-1.965 -3.377,-4.749 -3.377,-8.351c-0,-2.619 0.634,-4.911 1.903,-6.876c1.269,-1.965 3.009,-3.5 5.219,-4.605c2.21,-1.105 4.707,-1.658 7.491,-1.658c2.537,0 5.055,0.41 7.551,1.228c2.497,0.819 4.769,2.211 6.816,4.175l-2.579,4.053c-1.31,-1.801 -3.05,-3.029 -5.219,-3.684c-2.169,-0.655 -4.073,-1.024 -5.71,-1.105c-1.392,-0 -2.845,0.286 -4.359,0.859c-1.515,0.573 -2.783,1.412 -3.807,2.517c-1.023,1.106 -1.535,2.559 -1.535,4.36c0,1.883 0.532,3.417 1.597,4.605c1.064,1.187 2.435,2.148 4.113,2.885c1.678,0.737 3.418,1.433 5.219,2.088c2.374,0.736 4.605,1.617 6.692,2.64c2.088,1.023 3.807,2.374 5.158,4.052c1.351,1.678 2.026,3.909 2.026,6.692c-0,2.784 -0.614,5.301 -1.842,7.552c-1.228,2.251 -3.049,4.012 -5.464,5.28c-2.415,1.269 -5.465,1.904 -9.149,1.904Z" style="fill-rule:nonzero;"/><path d="M1268.89,1522.37l-0,-87.184l21.489,0c8.432,0 15.615,1.33 21.55,3.991c5.936,2.66 10.745,6.16 14.429,10.499c3.684,4.339 6.385,9.087 8.104,14.244c1.719,5.157 2.579,10.274 2.579,15.349c0,6.631 -1.146,12.587 -3.438,17.867c-2.292,5.28 -5.424,9.803 -9.394,13.569c-3.97,3.766 -8.493,6.651 -13.569,8.657c-5.075,2.006 -10.437,3.008 -16.086,3.008l-25.664,0Zm6.017,-5.771l18.051,0c5.239,0 10.151,-0.86 14.735,-2.579c4.584,-1.719 8.616,-4.216 12.095,-7.49c3.48,-3.275 6.202,-7.225 8.166,-11.85c1.965,-4.625 2.947,-9.885 2.947,-15.779c0,-4.994 -0.839,-9.762 -2.517,-14.306c-1.678,-4.543 -4.195,-8.575 -7.552,-12.095c-3.356,-3.52 -7.49,-6.303 -12.402,-8.35c-4.912,-2.047 -10.642,-3.07 -17.191,-3.07l-16.332,0l-0,75.519Z" style="fill-rule:nonzero;"/><path d="M1351.65,1498.06c-0,-4.666 1.125,-8.923 3.377,-12.771c2.251,-3.847 5.321,-6.897 9.209,-9.148c3.889,-2.251 8.248,-3.377 13.078,-3.377c4.912,0 9.291,1.126 13.139,3.377c3.847,2.251 6.876,5.301 9.087,9.148c2.21,3.848 3.315,8.105 3.315,12.771c0,4.666 -1.105,8.923 -3.315,12.771c-2.211,3.847 -5.26,6.897 -9.149,9.148c-3.888,2.251 -8.247,3.377 -13.077,3.377c-4.912,-0 -9.292,-1.085 -13.139,-3.254c-3.848,-2.17 -6.897,-5.158 -9.148,-8.964c-2.252,-3.807 -3.377,-8.166 -3.377,-13.078Zm5.771,0.123c0,3.765 0.88,7.183 2.64,10.253c1.76,3.07 4.134,5.505 7.122,7.306c2.988,1.801 6.324,2.702 10.008,2.702c3.684,-0 7.02,-0.901 10.008,-2.702c2.988,-1.801 5.362,-4.236 7.122,-7.306c1.76,-3.07 2.64,-6.488 2.64,-10.253c-0,-3.766 -0.88,-7.184 -2.64,-10.254c-1.76,-3.069 -4.134,-5.525 -7.122,-7.367c-2.988,-1.842 -6.324,-2.763 -10.008,-2.763c-3.766,-0 -7.143,0.962 -10.131,2.886c-2.988,1.923 -5.341,4.441 -7.06,7.551c-1.719,3.111 -2.579,6.427 -2.579,9.947Z" style="fill-rule:nonzero;"/><path d="M1435.15,1523.72c-4.502,0 -8.104,-1.33 -10.806,-3.991c-2.701,-2.66 -4.134,-6.119 -4.298,-10.376l0,-34.996l5.772,-0l-0,33.277c0.164,3.111 1.166,5.689 3.008,7.736c1.842,2.047 4.605,3.152 8.289,3.316c3.111,-0 6.017,-0.819 8.718,-2.456c2.702,-1.638 4.892,-3.868 6.57,-6.693c1.678,-2.824 2.517,-6.037 2.517,-9.639l0,-25.541l5.772,-0l-0,48.012l-5.158,0l-0.614,-15.103l0.86,3.315c-0.819,2.456 -2.272,4.687 -4.359,6.692c-2.088,2.006 -4.544,3.582 -7.368,4.728c-2.824,1.146 -5.792,1.719 -8.903,1.719Z" style="fill-rule:nonzero;"/><path d="M1519.63,1517.71c-2.21,1.801 -4.707,3.193 -7.49,4.175c-2.784,0.983 -5.69,1.474 -8.719,1.474c-4.912,-0 -9.291,-1.085 -13.139,-3.254c-3.847,-2.17 -6.876,-5.137 -9.087,-8.903c-2.21,-3.766 -3.315,-8.063 -3.315,-12.893c-0,-4.83 1.146,-9.128 3.438,-12.894c2.292,-3.766 5.342,-6.733 9.148,-8.903c3.807,-2.169 7.962,-3.254 12.464,-3.254c3.356,0 6.467,0.492 9.332,1.474c2.866,0.982 5.362,2.374 7.491,4.175l-3.07,3.929c-1.719,-1.391 -3.725,-2.537 -6.017,-3.438c-2.292,-0.9 -4.748,-1.351 -7.368,-1.351c-3.602,0 -6.897,0.901 -9.885,2.702c-2.988,1.801 -5.362,4.236 -7.122,7.306c-1.76,3.07 -2.64,6.488 -2.64,10.254c0,3.683 0.88,7.06 2.64,10.13c1.76,3.07 4.175,5.505 7.245,7.306c3.07,1.801 6.488,2.702 10.254,2.702c2.455,-0 4.748,-0.389 6.876,-1.167c2.129,-0.777 4.052,-1.821 5.771,-3.131l3.193,3.561Z" style="fill-rule:nonzero;"/><path d="M1556.6,1523.36c-4.993,-0 -9.414,-1.105 -13.261,-3.316c-3.848,-2.21 -6.857,-5.219 -9.026,-9.025c-2.169,-3.807 -3.254,-8.084 -3.254,-12.832c0,-4.666 1.146,-8.923 3.438,-12.771c2.292,-3.847 5.383,-6.917 9.271,-9.209c3.889,-2.293 8.207,-3.439 12.955,-3.439c5.731,0 10.54,1.678 14.429,5.035c3.888,3.356 6.692,7.736 8.411,13.139l-41.996,16.209l-1.719,-4.175l38.435,-14.981l-1.228,1.719c-1.392,-3.275 -3.5,-6.099 -6.324,-8.473c-2.824,-2.374 -6.283,-3.561 -10.376,-3.561c-3.684,0 -7,0.901 -9.947,2.702c-2.947,1.801 -5.3,4.215 -7.06,7.244c-1.76,3.029 -2.64,6.468 -2.64,10.315c-0,3.602 0.839,6.959 2.517,10.069c1.678,3.111 4.032,5.608 7.061,7.491c3.029,1.883 6.508,2.824 10.437,2.824c2.62,0 5.137,-0.491 7.552,-1.473c2.415,-0.983 4.564,-2.252 6.447,-3.807l2.947,4.175c-2.292,1.801 -4.932,3.275 -7.92,4.421c-2.988,1.146 -6.038,1.719 -9.149,1.719Z" style="fill-rule:nonzero;"/><path d="M1606.82,1523.36c-2.783,-0 -5.689,-0.512 -8.718,-1.535c-3.029,-1.023 -5.485,-2.681 -7.368,-4.973l2.702,-3.807c1.637,1.719 3.581,3.09 5.833,4.114c2.251,1.023 4.645,1.535 7.183,1.535c1.883,-0 3.663,-0.267 5.342,-0.799c1.678,-0.532 3.049,-1.453 4.113,-2.763c1.065,-1.309 1.597,-3.069 1.597,-5.28c-0,-2.292 -0.635,-4.052 -1.904,-5.28c-1.269,-1.228 -2.865,-2.231 -4.789,-3.008c-1.923,-0.778 -3.95,-1.494 -6.078,-2.149c-3.52,-1.146 -6.406,-2.702 -8.657,-4.666c-2.251,-1.965 -3.377,-4.749 -3.377,-8.351c0,-2.619 0.635,-4.911 1.903,-6.876c1.269,-1.965 3.009,-3.5 5.219,-4.605c2.21,-1.105 4.707,-1.658 7.491,-1.658c2.537,0 5.055,0.41 7.552,1.228c2.496,0.819 4.768,2.211 6.815,4.175l-2.579,4.053c-1.31,-1.801 -3.049,-3.029 -5.219,-3.684c-2.169,-0.655 -4.073,-1.024 -5.71,-1.105c-1.391,-0 -2.845,0.286 -4.359,0.859c-1.514,0.573 -2.783,1.412 -3.807,2.517c-1.023,1.106 -1.535,2.559 -1.535,4.36c0,1.883 0.533,3.417 1.597,4.605c1.064,1.187 2.435,2.148 4.113,2.885c1.679,0.737 3.418,1.433 5.219,2.088c2.374,0.736 4.605,1.617 6.692,2.64c2.088,1.023 3.807,2.374 5.158,4.052c1.351,1.678 2.026,3.909 2.026,6.692c-0,2.784 -0.614,5.301 -1.842,7.552c-1.228,2.251 -3.049,4.012 -5.464,5.28c-2.415,1.269 -5.465,1.904 -9.149,1.904Z" style="fill-rule:nonzero;"/></g></g><rect x="0" y="0" width="1666.67" height="1666.67" style="fill:none;"/><defs><linearGradient id="_Linear1" x1="0" y1="0" x2="1" y2="0" gradientUnits="userSpaceOnUse" gradientTransform="matrix(479.331,474.766,-253.875,256.316,372.086,727.146)"><stop offset="0" style="stop-color:#f67;stop-opacity:0.6"/><stop offset="1" style="stop-color:#ffc0c1;stop-opacity:0.6"/></linearGradient><linearGradient id="_Linear2" x1="0" y1="0" x2="1" y2="0" gradientUnits="userSpaceOnUse" gradientTransform="matrix(674.577,-10.3724,5.54649,360.721,747.306,956.205)"><stop offset="0" style="stop-color:#f67;stop-opacity:0.9"/><stop offset="1" style="stop-color:#ffc0c1;stop-opacity:0.9"/></linearGradient></defs></svg>