<?xml version="1.0" encoding="UTF-8" standalone="no"?><!DOCTYPE svg PUBLIC "-//W3C//DTD SVG 1.1//EN" "http://www.w3.org/Graphics/SVG/1.1/DTD/svg11.dtd"><svg width="100%" height="100%" viewBox="0 0 1459 417" version="1.1" xmlns="http://www.w3.org/2000/svg" xmlns:xlink="http://www.w3.org/1999/xlink" xml:space="preserve" xmlns:serif="http://www.serif.com/" style="fill-rule:evenodd;clip-rule:evenodd;stroke-linejoin:round;stroke-miterlimit:2;"><g id="LOGO"><path d="M175.463,71.771c-34.091,-2.479 -77.522,14.592 -82.091,36.401c-6.935,33.105 108.781,73.635 95.685,120.337c-13.097,46.701 -23.226,70.763 21.202,83.968c14.081,4.185 37.219,-10.108 55.952,-29.602c50.354,-52.399 55.806,-200.448 -90.748,-211.104Z" style="fill:#ffc088;fill-opacity:0.2;"/><g id="ENERGIE"><path d="M171.66,77.481l-1.622,-0.033c-13.156,0.174 -25.772,2.523 -37.515,6.712c-12.118,4.324 -23.31,10.582 -33.177,18.439c-13.659,10.874 -24.791,24.771 -32.38,40.67c-7.299,15.293 -11.34,32.429 -11.146,50.505c0.146,15.483 3.377,30.216 9.097,43.632c5.906,13.851 14.458,26.3 25.045,36.685c4.824,4.746 10.069,9.064 15.674,12.891c5.565,3.799 11.483,7.116 17.696,9.888c7.241,3.253 14.887,5.758 22.834,7.444c7.7,1.634 15.685,2.501 23.872,2.486c13.015,0.026 25.518,-2.17 37.171,-6.186c12.09,-4.166 23.269,-10.295 33.131,-18.041c4.084,-3.202 7.94,-6.683 11.55,-10.403c3.612,-3.722 6.977,-7.685 10.06,-11.87c6.986,-9.47 12.525,-20.068 16.331,-31.464c3.685,-11.031 5.742,-22.811 5.863,-35.062c0.106,-9.724 -1.02,-19.175 -3.207,-28.217c-2.267,-9.373 -5.684,-18.302 -10.099,-26.63c-1.88,-3.547 -3.943,-6.982 -6.173,-10.297c-2.24,-3.332 -4.651,-6.538 -7.219,-9.611c-10.603,-12.71 -23.907,-23.087 -39.017,-30.309c-14.219,-6.796 -30.043,-10.77 -46.769,-11.229Zm-3.938,7.257c-11.557,0.085 -22.699,1.96 -33.153,5.394c-11.603,3.812 -22.357,9.515 -31.901,16.745c-13.338,10.105 -24.328,23.167 -31.947,38.237c-7.402,14.642 -11.632,31.159 -11.82,48.66c-0.143,15.121 2.732,29.572 8.087,42.77c5.567,13.723 13.802,26.089 24.047,36.471c4.702,4.752 9.826,9.085 15.313,12.939c5.459,3.835 11.275,7.196 17.389,10.023c7.158,3.287 14.719,5.851 22.594,7.571c7.64,1.668 15.573,2.54 23.707,2.555c12.926,-0.025 25.346,-2.222 36.893,-6.287c11.953,-4.207 22.965,-10.413 32.666,-18.179c4.004,-3.211 7.785,-6.688 11.307,-10.412c3.518,-3.719 6.776,-7.684 9.758,-11.859c6.719,-9.423 12.022,-19.924 15.564,-31.196c3.41,-10.851 5.181,-22.414 5.063,-34.396c-0.103,-9.455 -1.384,-18.622 -3.712,-27.363c-2.398,-9.008 -5.917,-17.555 -10.377,-25.499c-1.892,-3.37 -3.957,-6.628 -6.18,-9.767c-2.228,-3.147 -4.617,-6.169 -7.154,-9.061c-10.422,-11.861 -23.345,-21.458 -37.936,-27.962c-14.009,-6.244 -29.56,-9.602 -45.892,-9.378l-1.159,-0.009l-1.157,0.003Z" style="fill:#ff7905;"/><path d="M174.043,88.096c-31.57,0.546 -59.893,13.842 -80.325,34.83c-8.262,8.487 -15.182,18.245 -20.617,28.897c-4.008,7.854 -7.233,16.179 -9.446,24.927c-2.15,8.496 -3.411,17.358 -3.566,26.501c-0.664,31.709 11.673,60.681 32.076,81.878c14.643,15.213 33.436,26.472 54.59,31.799c8.737,2.2 17.887,3.31 27.288,3.365c15.834,-0.164 30.937,-3.381 44.62,-9.317c14.096,-6.115 26.671,-15.042 37.129,-25.977c14.416,-15.074 24.717,-34.034 29.309,-55.088c1.871,-8.579 2.827,-17.499 2.665,-26.66c-0.055,-12.255 -2.122,-24.028 -5.697,-35.097c-5.58,-17.28 -15.011,-32.822 -27.426,-45.503c-20.522,-20.963 -48.978,-34.146 -80.6,-34.555Zm0,4.198c30.78,-0.398 58.849,11.728 79.254,31.703c12.519,12.255 22.234,27.433 27.809,44.47c3.58,10.941 5.381,22.655 5.326,34.784c-0.159,9.016 -1.357,17.769 -3.542,26.131c-5.27,20.176 -16.154,38.023 -30.741,51.974c-10.361,9.909 -22.657,17.738 -36.19,23.105c-12.972,5.144 -27.102,8.012 -41.916,7.859c-8.774,0.051 -17.307,-0.964 -25.503,-2.842c-8.486,-1.944 -16.61,-4.821 -24.249,-8.564c-10.412,-5.1 -19.939,-11.734 -28.223,-19.688c-20.547,-19.729 -33.538,-47.275 -34.182,-77.975c-0.152,-9.035 0.731,-17.845 2.642,-26.292c1.979,-8.748 4.979,-17.13 8.971,-24.933c5.409,-10.572 12.587,-20.098 21.016,-28.304c20.499,-19.956 48.693,-31.962 79.528,-31.428Z" style="fill:#ff7905;"/><path d="M171.099,73.183c-34.949,1.384 -66.173,16.306 -88.242,40.088c-21.485,23.153 -34.649,54.213 -33.453,88.242c0.872,33.271 15.071,62.969 37.305,84.39c21.917,21.116 51.583,34.36 84.39,33.998c32.825,0.411 62.537,-12.792 84.484,-33.904c22.274,-21.428 36.471,-51.176 37.345,-84.484c1.171,-34.056 -12.02,-65.135 -33.54,-88.29c-22.092,-23.771 -53.332,-38.683 -88.289,-40.04Zm-0,30.549c27.482,-1.067 52.875,8.849 71.563,26.217c19.292,17.93 31.743,43.19 32.719,71.564c0.763,29.109 -10.186,55.903 -28.913,75.37c-19.021,19.774 -45.793,31.984 -75.369,32.354c-29.594,-0.326 -56.416,-12.489 -75.464,-32.26c-18.765,-19.477 -29.717,-46.318 -28.953,-75.464c0.998,-28.403 13.48,-53.678 32.805,-71.612c18.709,-17.361 44.119,-27.258 71.612,-26.169Z" style="fill:#ff7905;fill-opacity:0.15;"/></g><path d="M12.934,272.155c0,-0 110.127,-23.736 179.473,39.176c69.346,62.911 -111.837,30.125 -179.473,-39.176Z" style="fill:url(#_Linear1);"/><path d="M150.924,349.022c0,-0 60.082,-95.297 153.548,-100.837c93.467,-5.54 -56.711,100.989 -153.548,100.837Z" style="fill:url(#_Linear2);"/></g><g><path d="M443.65,185.319l-51.204,-46.249l3.946,2.203l0.275,41.293l-13.489,0l-0,-70.199l0.55,0l50.103,46.065l-2.936,-1.284l-0.275,-42.12l13.397,0l0,70.291l-0.367,0Z" style="fill-rule:nonzero;"/><path d="M453.836,182.566l30.465,-70.199l0.734,0l30.466,70.199l-15.416,0l-19.454,-49.369l9.635,-6.607l-23.308,55.976l-13.122,0Zm20.83,-24.409l20.28,0l4.68,11.195l-29.089,0l4.129,-11.195Z" style="fill-rule:nonzero;"/><path d="M515.226,115.028l45.514,0l0,12.847l-16.425,0l-0,54.691l-13.306,0l-0,-54.691l-15.783,0l-0,-12.847Z" style="fill-rule:nonzero;"/><path d="M630.389,115.028l0,67.538l-13.306,0l0,-27.437l-30.19,-0l0,27.437l-13.306,0l0,-67.538l13.306,0l0,27.254l30.19,0l0,-27.254l13.306,0Z" style="fill-rule:nonzero;"/><path d="M640.208,182.566l30.465,-70.199l0.734,0l30.466,70.199l-15.416,0l-19.454,-49.369l9.635,-6.607l-23.308,55.976l-13.122,0Zm20.83,-24.409l20.28,0l4.68,11.195l-29.089,0l4.129,-11.195Z" style="fill-rule:nonzero;"/><path d="M711.692,115.028l13.305,0l0,54.691l31.751,0l-0,12.847l-45.056,0l-0,-67.538Z" style="fill-rule:nonzero;"/><rect x="770.512" y="115.028" width="13.306" height="67.538" style="fill-rule:nonzero;"/><path d="M801.253,115.028l46.065,0l0,12.847l-32.759,0l-0,14.407l28.997,0l-0,12.847l-28.997,-0l-0,14.59l34.044,0l-0,12.847l-47.35,0l-0,-67.538Z" style="fill-rule:nonzero;"/><path d="M942.844,176.969c-0.734,0.611 -2.095,1.437 -4.083,2.477c-1.988,1.04 -4.42,1.958 -7.295,2.753c-2.876,0.796 -6.057,1.163 -9.544,1.101c-5.322,-0.122 -10.079,-1.085 -14.269,-2.89c-4.191,-1.805 -7.739,-4.267 -10.645,-7.387c-2.906,-3.12 -5.123,-6.699 -6.653,-10.736c-1.529,-4.038 -2.294,-8.351 -2.294,-12.939c0,-5.139 0.78,-9.849 2.34,-14.132c1.56,-4.282 3.793,-7.983 6.699,-11.103c2.906,-3.12 6.378,-5.537 10.415,-7.249c4.038,-1.713 8.504,-2.57 13.398,-2.57c4.527,0 8.534,0.612 12.021,1.835c3.487,1.224 6.331,2.539 8.534,3.946l-5.231,12.572c-1.529,-1.162 -3.563,-2.371 -6.102,-3.625c-2.539,-1.254 -5.46,-1.881 -8.763,-1.881c-2.57,0 -5.032,0.535 -7.387,1.606c-2.356,1.071 -4.436,2.585 -6.24,4.542c-1.805,1.958 -3.227,4.237 -4.267,6.837c-1.04,2.6 -1.56,5.429 -1.56,8.488c-0,3.242 0.474,6.209 1.422,8.901c0.948,2.692 2.309,5.001 4.083,6.928c1.775,1.927 3.9,3.411 6.378,4.451c2.478,1.04 5.276,1.56 8.396,1.56c3.61,-0 6.699,-0.582 9.269,-1.744c2.569,-1.162 4.527,-2.386 5.872,-3.671l5.506,11.93Z" style="fill-rule:nonzero;"/><path d="M948.534,182.566l30.465,-70.199l0.734,0l30.466,70.199l-15.417,0l-19.453,-49.369l9.635,-6.607l-23.308,55.976l-13.122,0Zm20.83,-24.409l20.28,0l4.68,11.195l-29.089,0l4.129,-11.195Z" style="fill-rule:nonzero;"/><path d="M1040.48,115.028c4.221,0 7.983,0.536 11.287,1.606c3.303,1.071 6.071,2.6 8.304,4.588c2.233,1.989 3.931,4.374 5.093,7.158c1.163,2.783 1.744,5.919 1.744,9.406c-0,2.753 -0.413,5.505 -1.239,8.258c-0.826,2.753 -2.172,5.262 -4.038,7.525c-1.866,2.264 -4.328,4.083 -7.387,5.46c-3.058,1.376 -6.851,2.065 -11.378,2.065l-9.544,-0l0,21.472l-13.306,0l0,-67.538l20.464,0Zm2.294,33.219c2.019,-0 3.701,-0.337 5.047,-1.01c1.346,-0.673 2.401,-1.529 3.166,-2.569c0.764,-1.04 1.315,-2.126 1.651,-3.258c0.337,-1.131 0.505,-2.187 0.505,-3.166c0,-0.734 -0.107,-1.667 -0.321,-2.798c-0.214,-1.132 -0.658,-2.279 -1.331,-3.441c-0.673,-1.163 -1.697,-2.142 -3.074,-2.937c-1.376,-0.795 -3.227,-1.193 -5.551,-1.193l-9.544,0l0,20.372l9.452,-0Zm12.48,8.258l16.701,26.061l-15.508,0l-17.068,-25.694l15.875,-0.367Z" style="fill-rule:nonzero;"/><path d="M1077,115.028l45.514,0l0,12.847l-16.425,0l-0,54.691l-13.306,0l0,-54.691l-15.783,0l-0,-12.847Z" style="fill-rule:nonzero;"/><rect x="1135.36" y="115.028" width="13.306" height="67.538" style="fill-rule:nonzero;"/><path d="M1166.11,115.028l46.066,0l-0,12.847l-32.76,0l-0,14.407l28.997,0l0,12.847l-28.997,-0l-0,14.59l34.044,0l0,12.847l-47.35,0l0,-67.538Z" style="fill-rule:nonzero;"/><path d="M1247.68,115.028c4.221,0 7.984,0.536 11.287,1.606c3.304,1.071 6.072,2.6 8.305,4.588c2.233,1.989 3.93,4.374 5.093,7.158c1.162,2.783 1.743,5.919 1.743,9.406c0,2.753 -0.413,5.505 -1.239,8.258c-0.826,2.753 -2.172,5.262 -4.037,7.525c-1.866,2.264 -4.329,4.083 -7.387,5.46c-3.059,1.376 -6.852,2.065 -11.379,2.065l-9.543,-0l-0,21.472l-13.306,0l-0,-67.538l20.463,0Zm2.294,33.219c2.019,-0 3.701,-0.337 5.047,-1.01c1.346,-0.673 2.401,-1.529 3.166,-2.569c0.765,-1.04 1.315,-2.126 1.652,-3.258c0.336,-1.131 0.504,-2.187 0.504,-3.166c0,-0.734 -0.107,-1.667 -0.321,-2.798c-0.214,-1.132 -0.657,-2.279 -1.33,-3.441c-0.673,-1.163 -1.698,-2.142 -3.074,-2.937c-1.377,-0.795 -3.227,-1.193 -5.552,-1.193l-9.543,0l-0,20.372l9.451,-0Zm12.48,8.258l16.701,26.061l-15.508,0l-17.068,-25.694l15.875,-0.367Z" style="fill-rule:nonzero;"/><path d="M379.028,238.81l37.929,0l-0,3.834l-17.048,-0l0,54.079l-3.997,0l0,-54.079l-16.884,-0l-0,-3.834Z" style="fill-rule:nonzero;"/><path d="M428.784,296.723l0,-61.991l3.752,-0l0,38.581l-0.244,-1.386c1.087,-2.23 2.841,-4.119 5.261,-5.669c2.42,-1.55 5.207,-2.325 8.36,-2.325c2.991,0 5.411,0.884 7.26,2.651c1.849,1.767 2.801,4.065 2.855,6.892l-0,23.247l-3.915,0l-0,-22.186c-0.055,-2.067 -0.707,-3.779 -1.958,-5.139c-1.251,-1.359 -3.072,-2.066 -5.465,-2.121c-2.121,0 -4.106,0.544 -5.954,1.632c-1.849,1.087 -3.331,2.555 -4.446,4.404c-1.115,1.849 -1.672,3.943 -1.672,6.281l-0,17.129l-3.834,0Z" style="fill-rule:nonzero;"/><path d="M484.413,297.376c-3.317,-0 -6.253,-0.734 -8.809,-2.203c-2.556,-1.468 -4.554,-3.466 -5.995,-5.995c-1.441,-2.528 -2.162,-5.37 -2.162,-8.524c0,-3.099 0.762,-5.927 2.284,-8.483c1.523,-2.555 3.576,-4.595 6.159,-6.117c2.583,-1.523 5.451,-2.284 8.605,-2.284c3.806,-0 7.001,1.115 9.584,3.344c2.583,2.23 4.446,5.139 5.588,8.728l-27.897,10.767l-1.142,-2.773l25.531,-9.952l-0.815,1.142c-0.925,-2.175 -2.325,-4.051 -4.201,-5.628c-1.876,-1.577 -4.174,-2.365 -6.893,-2.365c-2.447,-0 -4.649,0.598 -6.607,1.794c-1.957,1.196 -3.521,2.801 -4.69,4.813c-1.169,2.012 -1.754,4.295 -1.754,6.851c0,2.393 0.558,4.622 1.673,6.689c1.114,2.066 2.678,3.725 4.69,4.975c2.012,1.251 4.323,1.877 6.933,1.877c1.74,-0 3.412,-0.327 5.016,-0.979c1.605,-0.653 3.032,-1.496 4.283,-2.529l1.957,2.773c-1.522,1.197 -3.276,2.176 -5.261,2.937c-1.985,0.761 -4.01,1.142 -6.077,1.142Zm5.629,-50.083l-8.647,10.849l-2.773,-0l7.097,-10.849l4.323,0Z" style="fill-rule:nonzero;"/><path d="M513.615,264.83l0.408,9.788l-0.49,-1.223c0.707,-1.958 1.822,-3.643 3.344,-5.057c1.523,-1.414 3.222,-2.502 5.098,-3.263c1.876,-0.761 3.685,-1.142 5.425,-1.142l-0.164,3.752c-2.447,0 -4.662,0.544 -6.647,1.632c-1.985,1.087 -3.562,2.542 -4.731,4.363c-1.169,1.822 -1.754,3.875 -1.754,6.159l0,16.884l-3.834,0l0,-31.893l3.345,0Z" style="fill-rule:nonzero;"/><path d="M550.973,297.376c-3.046,-0 -5.805,-0.694 -8.279,-2.08c-2.475,-1.387 -4.432,-3.331 -5.873,-5.832c-1.441,-2.502 -2.162,-5.411 -2.162,-8.728c0,-3.535 0.761,-6.566 2.284,-9.095c1.523,-2.528 3.589,-4.459 6.199,-5.791c2.61,-1.332 5.574,-1.999 8.891,-1.999c2.828,0 5.506,0.843 8.034,2.529c2.529,1.686 4.337,3.807 5.425,6.362l-0.571,1.142l0.489,-9.054l3.426,0l-0,31.893l-3.834,0l0,-9.869l0.816,1.468c-0.381,1.087 -1.033,2.161 -1.958,3.222c-0.924,1.06 -2.052,2.039 -3.385,2.936c-1.332,0.897 -2.8,1.604 -4.404,2.121c-1.605,0.516 -3.304,0.775 -5.098,0.775Zm0.815,-3.263c2.393,0 4.555,-0.503 6.485,-1.509c1.93,-1.006 3.494,-2.406 4.69,-4.201c1.196,-1.794 1.876,-3.861 2.039,-6.199l0,-4.568c-0.435,-2.012 -1.291,-3.806 -2.569,-5.383c-1.278,-1.577 -2.841,-2.828 -4.69,-3.752c-1.849,-0.925 -3.861,-1.387 -6.036,-1.387c-2.393,0 -4.595,0.558 -6.607,1.672c-2.012,1.115 -3.616,2.678 -4.813,4.69c-1.196,2.012 -1.794,4.378 -1.794,7.097c-0,2.501 0.598,4.772 1.794,6.811c1.197,2.039 2.814,3.67 4.854,4.894c2.039,1.223 4.255,1.835 6.647,1.835Z" style="fill-rule:nonzero;"/><path d="M600.974,297.376c-3.046,-0 -5.9,-0.802 -8.565,-2.406c-2.664,-1.605 -4.622,-3.685 -5.873,-6.24l0.653,-1.387l-0,24.715l-3.834,-0l0,-47.472l3.426,-0l0.408,10.44l-0.734,-2.365c1.413,-2.556 3.48,-4.663 6.199,-6.322c2.719,-1.658 5.682,-2.488 8.891,-2.488c3.045,0 5.791,0.735 8.238,2.203c2.447,1.468 4.391,3.466 5.832,5.995c1.441,2.529 2.162,5.424 2.162,8.687c-0,3.208 -0.748,6.077 -2.244,8.605c-1.495,2.529 -3.507,4.5 -6.036,5.914c-2.528,1.414 -5.369,2.121 -8.523,2.121Zm-0.653,-3.181c2.502,-0 4.772,-0.599 6.811,-1.795c2.039,-1.196 3.671,-2.814 4.894,-4.853c1.224,-2.039 1.835,-4.31 1.835,-6.811c0,-2.556 -0.598,-4.853 -1.794,-6.892c-1.196,-2.04 -2.787,-3.657 -4.772,-4.854c-1.985,-1.196 -4.228,-1.794 -6.729,-1.794c-2.393,-0 -4.568,0.544 -6.526,1.631c-1.957,1.088 -3.534,2.556 -4.731,4.405c-1.196,1.849 -1.903,3.942 -2.12,6.28l-0,2.611c0.163,2.229 0.856,4.268 2.08,6.117c1.223,1.849 2.8,3.304 4.731,4.364c1.93,1.06 4.037,1.591 6.321,1.591Z" style="fill-rule:nonzero;"/><path d="M643.063,297.376c-3.317,-0 -6.254,-0.734 -8.81,-2.203c-2.556,-1.468 -4.554,-3.466 -5.995,-5.995c-1.441,-2.528 -2.161,-5.37 -2.161,-8.524c-0,-3.099 0.761,-5.927 2.283,-8.483c1.523,-2.555 3.576,-4.595 6.159,-6.117c2.583,-1.523 5.451,-2.284 8.605,-2.284c3.807,-0 7.001,1.115 9.584,3.344c2.583,2.23 4.446,5.139 5.588,8.728l-27.896,10.767l-1.142,-2.773l25.53,-9.952l-0.815,1.142c-0.925,-2.175 -2.325,-4.051 -4.201,-5.628c-1.876,-1.577 -4.174,-2.365 -6.893,-2.365c-2.447,-0 -4.649,0.598 -6.607,1.794c-1.957,1.196 -3.521,2.801 -4.69,4.813c-1.169,2.012 -1.753,4.295 -1.753,6.851c-0,2.393 0.557,4.622 1.672,6.689c1.115,2.066 2.678,3.725 4.69,4.975c2.012,1.251 4.323,1.877 6.933,1.877c1.74,-0 3.412,-0.327 5.017,-0.979c1.604,-0.653 3.031,-1.496 4.282,-2.529l1.958,2.773c-1.523,1.197 -3.277,2.176 -5.262,2.937c-1.984,0.761 -4.01,1.142 -6.076,1.142Z" style="fill-rule:nonzero;"/><path d="M678.952,297.62c-2.99,0 -5.383,-0.883 -7.178,-2.65c-1.794,-1.768 -2.746,-4.065 -2.854,-6.893l-0,-23.247l3.833,0l0,22.105c0.109,2.067 0.775,3.779 1.999,5.139c1.223,1.359 3.058,2.093 5.505,2.202c2.067,0 3.997,-0.544 5.792,-1.631c1.794,-1.088 3.249,-2.57 4.364,-4.446c1.114,-1.876 1.672,-4.01 1.672,-6.403l-0,-16.966l3.833,0l0,31.893l-3.425,0l-0.408,-10.033l0.571,2.203c-0.544,1.631 -1.509,3.113 -2.896,4.445c-1.387,1.332 -3.018,2.379 -4.894,3.141c-1.876,0.761 -3.847,1.141 -5.914,1.141Z" style="fill-rule:nonzero;"/><path d="M713.619,250.801l3.915,-0l-0,14.437l9.87,0l-0,3.1l-9.87,-0l-0,28.385l-3.915,0l-0,-28.385l-6.77,-0l-0,-3.1l6.77,0l-0,-14.437Z" style="fill-rule:nonzero;"/><path d="M750.814,297.376c-3.318,-0 -6.254,-0.734 -8.81,-2.203c-2.556,-1.468 -4.554,-3.466 -5.995,-5.995c-1.441,-2.528 -2.162,-5.37 -2.162,-8.524c0,-3.099 0.762,-5.927 2.284,-8.483c1.523,-2.555 3.576,-4.595 6.159,-6.117c2.583,-1.523 5.451,-2.284 8.605,-2.284c3.807,-0 7.001,1.115 9.584,3.344c2.583,2.23 4.446,5.139 5.588,8.728l-27.896,10.767l-1.142,-2.773l25.53,-9.952l-0.815,1.142c-0.925,-2.175 -2.325,-4.051 -4.201,-5.628c-1.876,-1.577 -4.174,-2.365 -6.893,-2.365c-2.447,-0 -4.649,0.598 -6.607,1.794c-1.957,1.196 -3.521,2.801 -4.69,4.813c-1.169,2.012 -1.753,4.295 -1.753,6.851c-0,2.393 0.557,4.622 1.672,6.689c1.114,2.066 2.678,3.725 4.69,4.975c2.012,1.251 4.323,1.877 6.933,1.877c1.74,-0 3.412,-0.327 5.016,-0.979c1.605,-0.653 3.032,-1.496 4.283,-2.529l1.957,2.773c-1.522,1.197 -3.276,2.176 -5.261,2.937c-1.985,0.761 -4.01,1.142 -6.076,1.142Z" style="fill-rule:nonzero;"/><path d="M803.669,296.723l0,-59.218l0.082,0l28.549,40.539l-1.713,-0.244l28.467,-40.295l0.081,0l0,59.218l-3.915,0l0,-50.001l0.326,1.958l-24.144,34.014l-0.163,-0l-24.307,-34.014l0.653,-1.795l-0,49.838l-3.916,0Z" style="fill-rule:nonzero;"/><path d="M889.479,297.376c-3.318,-0 -6.254,-0.734 -8.81,-2.203c-2.556,-1.468 -4.554,-3.466 -5.995,-5.995c-1.441,-2.528 -2.161,-5.37 -2.161,-8.524c-0,-3.099 0.761,-5.927 2.283,-8.483c1.523,-2.555 3.576,-4.595 6.159,-6.117c2.583,-1.523 5.451,-2.284 8.605,-2.284c3.807,-0 7.001,1.115 9.584,3.344c2.583,2.23 4.446,5.139 5.588,8.728l-27.896,10.767l-1.142,-2.773l25.53,-9.952l-0.815,1.142c-0.925,-2.175 -2.325,-4.051 -4.201,-5.628c-1.876,-1.577 -4.174,-2.365 -6.893,-2.365c-2.447,-0 -4.649,0.598 -6.607,1.794c-1.957,1.196 -3.521,2.801 -4.69,4.813c-1.169,2.012 -1.753,4.295 -1.753,6.851c-0,2.393 0.557,4.622 1.672,6.689c1.115,2.066 2.678,3.725 4.69,4.975c2.012,1.251 4.323,1.877 6.933,1.877c1.74,-0 3.412,-0.327 5.017,-0.979c1.604,-0.653 3.031,-1.496 4.282,-2.529l1.957,2.773c-1.522,1.197 -3.276,2.176 -5.261,2.937c-1.984,0.761 -4.01,1.142 -6.076,1.142Zm5.628,-50.083l-8.646,10.849l-2.774,-0l7.097,-10.849l4.323,0Z" style="fill-rule:nonzero;"/><path d="M928.386,297.376c-2.99,-0 -5.709,-0.721 -8.156,-2.162c-2.447,-1.441 -4.391,-3.439 -5.832,-5.995c-1.442,-2.556 -2.162,-5.438 -2.162,-8.646c-0,-3.426 0.734,-6.39 2.202,-8.891c1.469,-2.501 3.467,-4.432 5.996,-5.791c2.528,-1.36 5.315,-2.04 8.36,-2.04c3.045,0 5.941,0.789 8.687,2.366c2.746,1.577 4.745,3.643 5.995,6.199l-0.652,1.795l-0,-39.479l3.834,-0l-0,61.991l-3.916,0l0,-9.788l0.816,1.795c-1.36,2.555 -3.399,4.635 -6.118,6.24c-2.719,1.604 -5.737,2.406 -9.054,2.406Zm0.979,-3.344c2.447,-0 4.65,-0.531 6.607,-1.591c1.958,-1.06 3.535,-2.501 4.731,-4.323c1.196,-1.822 1.876,-3.875 2.039,-6.159l0,-4.078c-0.38,-2.066 -1.223,-3.915 -2.528,-5.546c-1.305,-1.632 -2.882,-2.923 -4.731,-3.875c-1.849,-0.952 -3.888,-1.427 -6.118,-1.427c-2.447,-0 -4.676,0.571 -6.688,1.713c-2.012,1.141 -3.617,2.718 -4.813,4.73c-1.196,2.012 -1.794,4.351 -1.794,7.015c-0,2.502 0.598,4.772 1.794,6.811c1.196,2.039 2.814,3.671 4.853,4.894c2.04,1.224 4.256,1.836 6.648,1.836Z" style="fill-rule:nonzero;"/><path d="M975.043,297.376c-3.317,-0 -6.253,-0.734 -8.809,-2.203c-2.556,-1.468 -4.554,-3.466 -5.995,-5.995c-1.441,-2.528 -2.162,-5.37 -2.162,-8.524c0,-3.099 0.761,-5.927 2.284,-8.483c1.523,-2.555 3.575,-4.595 6.158,-6.117c2.583,-1.523 5.452,-2.284 8.606,-2.284c3.806,-0 7.001,1.115 9.584,3.344c2.583,2.23 4.445,5.139 5.587,8.728l-27.896,10.767l-1.142,-2.773l25.531,-9.952l-0.816,1.142c-0.924,-2.175 -2.325,-4.051 -4.201,-5.628c-1.876,-1.577 -4.173,-2.365 -6.892,-2.365c-2.447,-0 -4.649,0.598 -6.607,1.794c-1.958,1.196 -3.521,2.801 -4.69,4.813c-1.169,2.012 -1.754,4.295 -1.754,6.851c0,2.393 0.558,4.622 1.672,6.689c1.115,2.066 2.678,3.725 4.69,4.975c2.012,1.251 4.323,1.877 6.934,1.877c1.74,-0 3.412,-0.327 5.016,-0.979c1.604,-0.653 3.032,-1.496 4.282,-2.529l1.958,2.773c-1.523,1.197 -3.276,2.176 -5.261,2.937c-1.985,0.761 -4.011,1.142 -6.077,1.142Z" style="fill-rule:nonzero;"/><path d="M1025.53,293.624c-1.468,1.196 -3.126,2.12 -4.975,2.773c-1.849,0.653 -3.779,0.979 -5.791,0.979c-3.263,-0 -6.172,-0.721 -8.728,-2.162c-2.556,-1.441 -4.568,-3.412 -6.036,-5.913c-1.468,-2.502 -2.203,-5.357 -2.203,-8.565c0,-3.208 0.762,-6.063 2.284,-8.565c1.523,-2.501 3.549,-4.472 6.077,-5.913c2.529,-1.441 5.288,-2.162 8.279,-2.162c2.23,0 4.296,0.326 6.199,0.979c1.904,0.653 3.562,1.577 4.976,2.773l-2.039,2.61c-1.142,-0.924 -2.474,-1.685 -3.997,-2.283c-1.523,-0.599 -3.154,-0.898 -4.894,-0.898c-2.393,0 -4.581,0.598 -6.566,1.795c-1.985,1.196 -3.562,2.814 -4.731,4.853c-1.169,2.039 -1.754,4.31 -1.754,6.811c0,2.447 0.585,4.69 1.754,6.729c1.169,2.04 2.773,3.657 4.812,4.854c2.04,1.196 4.31,1.794 6.811,1.794c1.632,0 3.154,-0.258 4.568,-0.775c1.414,-0.516 2.692,-1.21 3.834,-2.08l2.12,2.366Z" style="fill-rule:nonzero;"/><path d="M1036.22,264.83l3.834,0l-0,31.893l-3.834,0l-0,-31.893Zm-0.816,-11.745c0,-0.762 0.299,-1.401 0.897,-1.917c0.599,-0.517 1.251,-0.775 1.958,-0.775c0.761,-0 1.414,0.258 1.958,0.775c0.543,0.516 0.815,1.155 0.815,1.917c0,0.815 -0.272,1.481 -0.815,1.998c-0.544,0.517 -1.197,0.775 -1.958,0.775c-0.707,-0 -1.359,-0.272 -1.958,-0.816c-0.598,-0.544 -0.897,-1.196 -0.897,-1.957Z" style="fill-rule:nonzero;"/><path d="M1057.92,264.83l0.408,10.033l-0.49,-1.958c0.925,-2.773 2.678,-4.962 5.261,-6.566c2.583,-1.604 5.452,-2.406 8.606,-2.406c2.991,0 5.41,0.884 7.259,2.651c1.849,1.767 2.801,4.065 2.855,6.892l0,23.247l-3.915,0l-0,-22.186c-0.054,-2.067 -0.707,-3.779 -1.958,-5.139c-1.25,-1.359 -3.072,-2.066 -5.465,-2.121c-2.12,0 -4.105,0.517 -5.954,1.55c-1.849,1.033 -3.331,2.474 -4.446,4.323c-1.114,1.849 -1.672,3.997 -1.672,6.444l0,17.129l-3.833,0l-0,-31.893l3.344,0Z" style="fill-rule:nonzero;"/><path d="M1110.2,297.376c-3.317,-0 -6.254,-0.734 -8.81,-2.203c-2.555,-1.468 -4.554,-3.466 -5.995,-5.995c-1.441,-2.528 -2.161,-5.37 -2.161,-8.524c-0,-3.099 0.761,-5.927 2.284,-8.483c1.522,-2.555 3.575,-4.595 6.158,-6.117c2.583,-1.523 5.451,-2.284 8.605,-2.284c3.807,-0 7.002,1.115 9.585,3.344c2.582,2.23 4.445,5.139 5.587,8.728l-27.896,10.767l-1.142,-2.773l25.53,-9.952l-0.815,1.142c-0.925,-2.175 -2.325,-4.051 -4.201,-5.628c-1.876,-1.577 -4.173,-2.365 -6.892,-2.365c-2.447,-0 -4.65,0.598 -6.607,1.794c-1.958,1.196 -3.521,2.801 -4.691,4.813c-1.169,2.012 -1.753,4.295 -1.753,6.851c-0,2.393 0.557,4.622 1.672,6.689c1.115,2.066 2.678,3.725 4.69,4.975c2.012,1.251 4.323,1.877 6.933,1.877c1.74,-0 3.413,-0.327 5.017,-0.979c1.604,-0.653 3.031,-1.496 4.282,-2.529l1.958,2.773c-1.523,1.197 -3.277,2.176 -5.261,2.937c-1.985,0.761 -4.011,1.142 -6.077,1.142Z" style="fill-rule:nonzero;"/><path d="M1143.56,297.376c-1.849,-0 -3.779,-0.34 -5.791,-1.02c-2.012,-0.68 -3.644,-1.781 -4.894,-3.303l1.794,-2.529c1.088,1.142 2.379,2.053 3.875,2.733c1.495,0.679 3.085,1.019 4.771,1.019c1.251,0 2.434,-0.177 3.548,-0.53c1.115,-0.353 2.026,-0.965 2.733,-1.835c0.707,-0.87 1.06,-2.039 1.06,-3.508c0,-1.522 -0.421,-2.691 -1.264,-3.507c-0.843,-0.816 -1.903,-1.482 -3.181,-1.998c-1.278,-0.517 -2.624,-0.993 -4.038,-1.428c-2.338,-0.761 -4.255,-1.794 -5.75,-3.099c-1.496,-1.306 -2.243,-3.154 -2.243,-5.547c-0,-1.74 0.421,-3.263 1.264,-4.568c0.843,-1.305 1.998,-2.325 3.467,-3.059c1.468,-0.734 3.126,-1.101 4.975,-1.101c1.686,0 3.358,0.272 5.017,0.816c1.658,0.544 3.167,1.468 4.527,2.773l-1.713,2.692c-0.87,-1.196 -2.026,-2.012 -3.467,-2.447c-1.441,-0.435 -2.705,-0.68 -3.793,-0.734c-0.924,-0 -1.889,0.19 -2.895,0.571c-1.006,0.38 -1.849,0.938 -2.529,1.672c-0.68,0.734 -1.02,1.699 -1.02,2.896c0,1.25 0.354,2.27 1.061,3.058c0.707,0.789 1.617,1.428 2.732,1.917c1.115,0.49 2.271,0.952 3.467,1.387c1.577,0.489 3.059,1.074 4.445,1.753c1.387,0.68 2.529,1.577 3.426,2.692c0.897,1.115 1.346,2.597 1.346,4.446c0,1.849 -0.408,3.521 -1.224,5.016c-0.815,1.495 -2.025,2.665 -3.629,3.507c-1.604,0.843 -3.63,1.265 -6.077,1.265Z" style="fill-rule:nonzero;"/><path d="M1193.07,296.723l-0,-57.913l14.274,0c5.601,0 10.373,0.884 14.315,2.651c3.942,1.767 7.137,4.092 9.584,6.974c2.447,2.882 4.242,6.036 5.384,9.462c1.142,3.426 1.713,6.825 1.713,10.196c-0,4.405 -0.762,8.361 -2.284,11.868c-1.523,3.507 -3.603,6.512 -6.24,9.013c-2.638,2.502 -5.642,4.419 -9.013,5.751c-3.372,1.332 -6.934,1.998 -10.686,1.998l-17.047,0Zm3.996,-3.833l11.991,-0c3.48,-0 6.743,-0.571 9.788,-1.713c3.045,-1.142 5.723,-2.801 8.034,-4.976c2.311,-2.175 4.119,-4.799 5.425,-7.871c1.305,-3.073 1.957,-6.566 1.957,-10.482c0,-3.317 -0.557,-6.484 -1.672,-9.502c-1.115,-3.018 -2.787,-5.696 -5.016,-8.035c-2.23,-2.338 -4.976,-4.187 -8.239,-5.546c-3.262,-1.36 -7.069,-2.04 -11.419,-2.04l-10.849,0l0,50.165Z" style="fill-rule:nonzero;"/><path d="M1248.05,280.573c0,-3.1 0.748,-5.927 2.243,-8.483c1.496,-2.556 3.535,-4.582 6.118,-6.077c2.583,-1.495 5.478,-2.243 8.687,-2.243c3.262,-0 6.172,0.748 8.728,2.243c2.555,1.495 4.567,3.521 6.036,6.077c1.468,2.556 2.202,5.383 2.202,8.483c-0,3.099 -0.734,5.927 -2.202,8.483c-1.469,2.556 -3.494,4.581 -6.077,6.077c-2.583,1.495 -5.479,2.243 -8.687,2.243c-3.263,-0 -6.172,-0.721 -8.728,-2.162c-2.556,-1.441 -4.581,-3.426 -6.077,-5.954c-1.495,-2.529 -2.243,-5.424 -2.243,-8.687Zm3.834,0.081c-0,2.502 0.584,4.772 1.754,6.811c1.169,2.04 2.746,3.657 4.73,4.854c1.985,1.196 4.201,1.794 6.648,1.794c2.447,0 4.663,-0.598 6.648,-1.794c1.985,-1.197 3.562,-2.814 4.731,-4.854c1.169,-2.039 1.754,-4.309 1.754,-6.811c-0,-2.501 -0.585,-4.771 -1.754,-6.81c-1.169,-2.04 -2.746,-3.671 -4.731,-4.895c-1.985,-1.223 -4.201,-1.835 -6.648,-1.835c-2.501,0 -4.744,0.639 -6.729,1.917c-1.985,1.278 -3.548,2.95 -4.69,5.016c-1.142,2.067 -1.713,4.269 -1.713,6.607Z" style="fill-rule:nonzero;"/><path d="M1303.52,297.62c-2.991,0 -5.383,-0.883 -7.178,-2.65c-1.794,-1.768 -2.746,-4.065 -2.855,-6.893l0,-23.247l3.834,0l0,22.105c0.109,2.067 0.775,3.779 1.998,5.139c1.224,1.359 3.059,2.093 5.506,2.202c2.067,0 3.997,-0.544 5.792,-1.631c1.794,-1.088 3.249,-2.57 4.363,-4.446c1.115,-1.876 1.673,-4.01 1.673,-6.403l-0,-16.966l3.833,0l0,31.893l-3.426,0l-0.407,-10.033l0.571,2.203c-0.544,1.631 -1.509,3.113 -2.896,4.445c-1.387,1.332 -3.018,2.379 -4.894,3.141c-1.876,0.761 -3.847,1.141 -5.914,1.141Z" style="fill-rule:nonzero;"/><path d="M1359.63,293.624c-1.468,1.196 -3.127,2.12 -4.976,2.773c-1.849,0.653 -3.779,0.979 -5.791,0.979c-3.263,-0 -6.172,-0.721 -8.728,-2.162c-2.556,-1.441 -4.568,-3.412 -6.036,-5.913c-1.468,-2.502 -2.202,-5.357 -2.202,-8.565c-0,-3.208 0.761,-6.063 2.284,-8.565c1.522,-2.501 3.548,-4.472 6.076,-5.913c2.529,-1.441 5.289,-2.162 8.28,-2.162c2.229,0 4.295,0.326 6.199,0.979c1.903,0.653 3.561,1.577 4.975,2.773l-2.039,2.61c-1.142,-0.924 -2.474,-1.685 -3.997,-2.283c-1.522,-0.599 -3.154,-0.898 -4.894,-0.898c-2.392,0 -4.581,0.598 -6.566,1.795c-1.985,1.196 -3.562,2.814 -4.731,4.853c-1.169,2.039 -1.754,4.31 -1.754,6.811c0,2.447 0.585,4.69 1.754,6.729c1.169,2.04 2.773,3.657 4.813,4.854c2.039,1.196 4.309,1.794 6.811,1.794c1.631,0 3.153,-0.258 4.567,-0.775c1.414,-0.516 2.692,-1.21 3.834,-2.08l2.121,2.366Z" style="fill-rule:nonzero;"/><path d="M1384.19,297.376c-3.317,-0 -6.254,-0.734 -8.81,-2.203c-2.555,-1.468 -4.554,-3.466 -5.995,-5.995c-1.441,-2.528 -2.161,-5.37 -2.161,-8.524c-0,-3.099 0.761,-5.927 2.283,-8.483c1.523,-2.555 3.576,-4.595 6.159,-6.117c2.583,-1.523 5.451,-2.284 8.605,-2.284c3.807,-0 7.001,1.115 9.584,3.344c2.583,2.23 4.446,5.139 5.588,8.728l-27.896,10.767l-1.142,-2.773l25.53,-9.952l-0.815,1.142c-0.925,-2.175 -2.325,-4.051 -4.201,-5.628c-1.876,-1.577 -4.174,-2.365 -6.893,-2.365c-2.447,-0 -4.649,0.598 -6.607,1.794c-1.957,1.196 -3.521,2.801 -4.69,4.813c-1.169,2.012 -1.753,4.295 -1.753,6.851c-0,2.393 0.557,4.622 1.672,6.689c1.115,2.066 2.678,3.725 4.69,4.975c2.012,1.251 4.323,1.877 6.933,1.877c1.74,-0 3.412,-0.327 5.017,-0.979c1.604,-0.653 3.031,-1.496 4.282,-2.529l1.958,2.773c-1.523,1.197 -3.277,2.176 -5.262,2.937c-1.984,0.761 -4.01,1.142 -6.076,1.142Z" style="fill-rule:nonzero;"/><path d="M1417.55,297.376c-1.849,-0 -3.78,-0.34 -5.792,-1.02c-2.012,-0.68 -3.643,-1.781 -4.894,-3.303l1.795,-2.529c1.087,1.142 2.379,2.053 3.874,2.733c1.496,0.679 3.086,1.019 4.772,1.019c1.251,0 2.434,-0.177 3.548,-0.53c1.115,-0.353 2.026,-0.965 2.733,-1.835c0.707,-0.87 1.06,-2.039 1.06,-3.508c0,-1.522 -0.421,-2.691 -1.264,-3.507c-0.843,-0.816 -1.903,-1.482 -3.181,-1.998c-1.278,-0.517 -2.624,-0.993 -4.038,-1.428c-2.338,-0.761 -4.255,-1.794 -5.75,-3.099c-1.496,-1.306 -2.243,-3.154 -2.243,-5.547c-0,-1.74 0.421,-3.263 1.264,-4.568c0.843,-1.305 1.998,-2.325 3.466,-3.059c1.469,-0.734 3.127,-1.101 4.976,-1.101c1.686,0 3.358,0.272 5.016,0.816c1.659,0.544 3.168,1.468 4.527,2.773l-1.712,2.692c-0.87,-1.196 -2.026,-2.012 -3.467,-2.447c-1.441,-0.435 -2.705,-0.68 -3.793,-0.734c-0.924,-0 -1.89,0.19 -2.896,0.571c-1.006,0.38 -1.848,0.938 -2.528,1.672c-0.68,0.734 -1.02,1.699 -1.02,2.896c0,1.25 0.354,2.27 1.061,3.058c0.706,0.789 1.617,1.428 2.732,1.917c1.115,0.49 2.27,0.952 3.467,1.387c1.577,0.489 3.059,1.074 4.445,1.753c1.387,0.68 2.529,1.577 3.426,2.692c0.897,1.115 1.346,2.597 1.346,4.446c-0,1.849 -0.408,3.521 -1.224,5.016c-0.815,1.495 -2.025,2.665 -3.629,3.507c-1.605,0.843 -3.63,1.265 -6.077,1.265Z" style="fill-rule:nonzero;"/></g><defs><linearGradient id="_Linear1" x1="0" y1="0" x2="1" y2="0" gradientUnits="userSpaceOnUse" gradientTransform="matrix(131.007,129.759,-69.387,70.0542,47.6143,237.141)"><stop offset="0" style="stop-color:#f67;stop-opacity:0.6"/><stop offset="1" style="stop-color:#ffc0c1;stop-opacity:0.6"/></linearGradient><linearGradient id="_Linear2" x1="0" y1="0" x2="1" y2="0" gradientUnits="userSpaceOnUse" gradientTransform="matrix(184.37,-2.8349,1.51592,98.5894,150.166,299.746)"><stop offset="0" style="stop-color:#f67;stop-opacity:0.9"/><stop offset="1" style="stop-color:#ffc0c1;stop-opacity:0.9"/></linearGradient></defs></svg>