<?xml version="1.0" encoding="UTF-8" standalone="no"?><!DOCTYPE svg PUBLIC "-//W3C//DTD SVG 1.1//EN" "http://www.w3.org/Graphics/SVG/1.1/DTD/svg11.dtd"><svg width="100%" height="100%" viewBox="0 0 3750 3750" version="1.1" xmlns="http://www.w3.org/2000/svg" xmlns:xlink="http://www.w3.org/1999/xlink" xml:space="preserve" xmlns:serif="http://www.serif.com/" style="fill-rule:evenodd;clip-rule:evenodd;stroke-linejoin:round;stroke-miterlimit:2;"><path d="M2871.36,1653.35c-12.054,0 -21.828,-10.067 -21.828,-22.498c0,-12.431 9.774,-22.498 21.828,-22.498c12.067,0 21.84,10.067 21.84,22.498c-0,12.431 -9.773,22.498 -21.84,22.498Z" style="fill:#c2dbd3;fill-rule:nonzero;"/><path d="M887.239,1247.17c116.89,252.886 342.39,784.131 459.689,873.104c144.178,109.352 422.524,141.686 422.524,141.686c-426.23,604.785 -626.776,453.766 -626.776,453.766c-287.208,-228.703 -419.411,-1207.15 -443.203,-1381.54l-143.44,-176.493c-0,0 -50.842,-54.384 -62.606,-123.522c-11.765,-69.138 -23.45,-129.622 -9.43,-126.864c14.033,2.772 51.172,94.775 56.922,112.028c5.737,17.268 25.599,48.828 34.053,54.52c8.441,5.706 -54.575,-166.861 -57.687,-207.224c-3.139,-40.363 -17.62,-100.833 -3.627,-100.942c14.006,-0.123 48.178,68.825 48.178,68.825c-0,0 -11.896,-83.566 2.097,-86.568c13.967,-3.003 34.027,51.64 39.83,77.561c5.815,25.908 68.581,166.739 85.422,172.363c0,0 19.876,-140.097 30.914,-160.394c11.04,-20.283 110.745,14.931 113.634,26.438c2.888,11.521 -44.551,32.117 -64.176,29.4l-13.255,92.437c-0,0 45.382,71.733 78.947,65.674c0,0 27.367,-79.558 25.89,-88.213c-1.465,-8.64 -46.503,-37.102 -28.739,-90.63c17.779,-53.515 103.479,154.905 103.479,154.905c-0,0 -55.445,143.262 -48.64,219.682Z" style="fill:#f79982;fill-rule:nonzero;"/><path d="M554.49,827.168c18.755,79.218 50.895,154.511 94.932,222.277c3.389,5.189 11.592,0.312 8.19,-4.918c-43.615,-67.128 -75.399,-141.483 -93.996,-219.968c-1.437,-6.086 -10.563,-3.505 -9.126,2.609Z" style="fill:#f3705c;fill-rule:nonzero;"/><path d="M818.342,1052.91c-9.786,-0.652 -20.417,-0.584 -29.358,4.13c-10.235,5.38 -13.189,15.882 -13.268,27.009c-0.211,30.35 3.864,60.864 11.158,90.236c1.503,6.087 10.642,3.505 9.139,-2.595c-6.238,-25.092 -9.878,-50.756 -10.657,-76.651c-0.302,-10.039 -2.307,-23.625 7.822,-29.25c7.464,-4.157 16.973,-3.654 25.164,-3.111c6.093,0.394 6.066,-9.36 -0,-9.768Z" style="fill:#f3705c;fill-rule:nonzero;"/><path d="M620.684,1120.23c21.233,-28.068 42.48,-56.136 63.727,-84.218c3.706,-4.891 -2.954,-11.846 -6.7,-6.901c-21.246,28.082 -42.493,56.15 -63.727,84.218c-3.706,4.904 2.941,11.847 6.7,6.901Z" style="fill:#f3705c;fill-rule:nonzero;"/><path d="M1629.81,1129.71c0,0 -300.74,59.914 -451.645,766.986l227.082,373.106l224.563,-1140.09Z" style="fill:#fde0d1;fill-rule:nonzero;"/><path d="M1373.49,2217.61l-128.537,-211.177c25.335,-94.789 53.585,-188.748 85.699,-281.417c31.693,-91.432 67.988,-180.704 105.813,-269.596c10.881,-25.582 21.919,-51.11 33.697,-76.189c-5.816,24.06 -10.301,46.762 -13.571,66.353l-83.101,772.026Zm215.422,-1071.43c-0.039,-0.136 -0.092,-0.271 -0.145,-0.407c0.831,-0.421 1.649,-0.829 2.453,-1.223l-2.308,1.63Z" style="fill:#fdd4c0;fill-rule:nonzero;"/><path d="M2519.94,2964.18c0,-0 11.118,-1135.53 -51.844,-1477.9c-62.976,-342.362 -411.446,-433.699 -411.446,-433.699l-123.432,-53.148l-256.505,84.667l-90.065,63.677c-75.017,55.226 -115.177,208.555 -130.053,297.8l-163.368,1517.6l1226.71,1.006Z" style="fill:#fde0d1;fill-rule:nonzero;"/><path d="M2520.25,2921.84c0.396,-64.628 0.883,-197.66 -0.277,-359.507c1.226,-0.951 2.48,-1.916 3.707,-2.867c1.885,163.152 1.964,296.062 1.872,357.048c-1.767,1.78 -3.535,3.546 -5.302,5.326Zm-0.475,-384.6c-2.914,-359.412 -14.099,-846.544 -51.686,-1050.96c37.759,205.308 50.856,691.666 55.3,1048.18c-1.2,0.924 -2.413,1.848 -3.614,2.772Z" style="fill:#e6dcd6;fill-rule:nonzero;"/><path d="M2525.45,2952.61l-5.407,-0.027c0.053,-7.159 0.132,-17.539 0.211,-30.744c1.767,-1.78 3.535,-3.546 5.302,-5.326c-0.04,23.3 -0.106,36.097 -0.106,36.097Z" style="fill:#97bdb0;fill-rule:nonzero;"/><path d="M2519.98,2562.33c-0.066,-8.301 -0.132,-16.643 -0.198,-25.093c1.201,-0.924 2.414,-1.848 3.614,-2.772c0.105,8.41 0.198,16.724 0.291,24.998c-1.227,0.951 -2.481,1.916 -3.707,2.867Z" style="fill:#97bdb0;fill-rule:nonzero;"/><path d="M2468.09,1486.28c-0.053,-0.285 -0.118,-0.611 -0.171,-0.897c0.053,0.299 0.105,0.598 0.171,0.897Zm-0.224,-1.195c-0.04,-0.204 -0.079,-0.395 -0.119,-0.598c0.04,0.19 0.079,0.407 0.119,0.598Zm-0.185,-0.965c-0.039,-0.19 -0.066,-0.381 -0.105,-0.571c0.039,0.177 0.079,0.394 0.105,0.571Zm-0.171,-0.91c-0.053,-0.272 -0.106,-0.557 -0.159,-0.816c0.053,0.272 0.106,0.544 0.159,0.816Zm-0.238,-1.278c-0.026,-0.122 -0.066,-0.299 -0.092,-0.42c0.04,0.135 0.053,0.271 0.092,0.42Zm-0.184,-0.91c-0.027,-0.149 -0.053,-0.258 -0.08,-0.407c0.027,0.136 0.053,0.285 0.08,0.407Zm-0.172,-0.869c-0.026,-0.177 -0.053,-0.299 -0.079,-0.462c0.026,0.136 0.053,0.312 0.079,0.462Zm-0.25,-1.318c-0.026,-0.109 -0.053,-0.231 -0.066,-0.34c0.013,0.109 0.04,0.218 0.066,0.34Zm-0.185,-0.883c-0.013,-0.095 -0.039,-0.218 -0.052,-0.326c0.013,0.108 0.039,0.217 0.052,0.326Zm-0.171,-0.856c-0.013,-0.109 -0.04,-0.217 -0.053,-0.313c0.013,0.109 0.04,0.191 0.053,0.313Zm-0.436,-2.187c-0.026,-0.109 -0.039,-0.19 -0.065,-0.299c0.026,0.109 0.039,0.204 0.065,0.299Zm-0.171,-0.843c-0.026,-0.095 -0.053,-0.217 -0.079,-0.312c0.026,0.109 0.053,0.204 0.079,0.312Zm-0.185,-0.869c-0.013,-0.041 -0.013,-0.082 -0.026,-0.122c-0,0.04 0.013,0.095 0.026,0.122Zm-0.303,-1.427c-0.013,-0.04 -0.027,-0.095 -0.027,-0.136c0.014,0.041 0.014,0.082 0.027,0.136Zm-0.158,-0.76c-0.027,-0.082 -0.027,-0.136 -0.053,-0.218c0.014,0.068 0.039,0.163 0.053,0.218Zm-0.185,-0.857c-0.013,-0.04 -0.013,-0.054 -0.026,-0.095c0.013,0.028 0.013,0.068 0.026,0.095Zm-0.461,-2.119c-0.014,-0.081 -0.04,-0.19 -0.066,-0.272c0.026,0.096 0.039,0.177 0.066,0.272Zm-0.186,-0.856c-0.025,-0.081 -0.025,-0.135 -0.052,-0.217c0.013,0.082 0.027,0.149 0.052,0.217Zm-0.487,-2.187c-0.013,-0.054 -0.04,-0.136 -0.053,-0.19c0.013,0.054 0.04,0.136 0.053,0.19Zm-0.185,-0.802c-0.013,-0.081 -0.026,-0.135 -0.053,-0.217c0.014,0.068 0.04,0.149 0.053,0.217Zm-0.184,-0.828c-0.014,-0.041 -0.027,-0.122 -0.04,-0.163c0.013,0.068 0.026,0.108 0.04,0.163Zm-0.502,-2.133c-0.012,-0.082 -0.026,-0.163 -0.053,-0.245c0.027,0.082 0.041,0.177 0.053,0.245Zm-0.184,-0.829c-0.014,-0.054 -0.04,-0.163 -0.053,-0.217c0.013,0.081 0.039,0.149 0.053,0.217Zm-0.514,-2.16c-0.014,-0.068 -0.04,-0.136 -0.053,-0.204c0.026,0.068 0.039,0.136 0.053,0.204Zm-0.185,-0.775c-0.013,-0.081 -0.053,-0.19 -0.066,-0.271c0.026,0.095 0.039,0.177 0.066,0.271Zm-0.198,-0.828c-0.026,-0.082 -0.04,-0.163 -0.066,-0.245c0.026,0.082 0.04,0.163 0.066,0.245Zm-0.33,-1.359c-0.013,-0.054 -0.039,-0.136 -0.053,-0.19c0.014,0.054 0.04,0.136 0.053,0.19Zm-0.185,-0.72c-0.026,-0.122 -0.052,-0.204 -0.079,-0.326c0.027,0.109 0.053,0.218 0.079,0.326Zm-0.197,-0.815c-0.027,-0.122 -0.066,-0.258 -0.093,-0.38c0.027,0.122 0.066,0.244 0.093,0.38Zm-0.211,-0.842c-0.053,-0.204 -0.106,-0.422 -0.146,-0.611c0.04,0.203 0.093,0.407 0.146,0.611Zm-0.29,-1.196c-0.04,-0.136 -0.079,-0.285 -0.106,-0.421c0.027,0.163 0.066,0.272 0.106,0.421Zm-0.211,-0.828c-0.054,-0.164 -0.093,-0.34 -0.132,-0.503c0.039,0.149 0.092,0.339 0.132,0.503Zm-0.225,-0.843c-0.052,-0.231 -0.105,-0.448 -0.171,-0.693c0.066,0.231 0.119,0.462 0.171,0.693Zm-0.237,-0.937c-0.053,-0.231 -0.132,-0.517 -0.185,-0.747c0.053,0.244 0.119,0.502 0.185,0.747Zm-0.264,-1.033c-0.053,-0.204 -0.105,-0.394 -0.158,-0.598c0.053,0.204 0.105,0.394 0.158,0.598Zm-0.224,-0.883c-0.079,-0.258 -0.132,-0.503 -0.197,-0.747c0.052,0.244 0.131,0.503 0.197,0.747Zm-0.224,-0.842c-0.08,-0.313 -0.159,-0.598 -0.237,-0.91c0.078,0.312 0.157,0.611 0.237,0.91Zm-0.264,-0.978c-0.066,-0.272 -0.145,-0.558 -0.224,-0.829c0.079,0.285 0.145,0.543 0.224,0.829Zm-0.25,-0.951c-0.08,-0.286 -0.145,-0.557 -0.225,-0.829c0.08,0.272 0.145,0.543 0.225,0.829Zm-0.238,-0.897c-0.171,-0.639 -0.33,-1.236 -0.501,-1.861c0.158,0.625 0.33,1.236 0.501,1.861Zm-0.514,-1.861c-0.079,-0.313 -0.159,-0.612 -0.238,-0.924c0.079,0.312 0.159,0.611 0.238,0.924Zm-0.251,-0.952c-43.127,-156.942 -148.042,-255.113 -239.756,-313.464c91.701,58.323 196.616,156.508 239.756,313.464Z" style="fill:#e6dcd6;fill-rule:nonzero;"/><path d="M2520.04,2952.58l-1002.88,-2.866c75.439,-244.123 177.704,-552.385 248.052,-798.111c57.634,-201.314 115.756,-402.615 180.314,-601.714c52.109,-160.747 118.144,-317.011 156.642,-481.671c29.701,11.711 71.166,30.65 115.743,59.017c91.714,58.351 196.629,156.522 239.756,313.464c0,0.014 0,0.014 0.013,0.028c0.079,0.312 0.159,0.611 0.238,0.924l0.013,-0c0.171,0.625 0.33,1.222 0.501,1.861c0,0.027 0.013,0.041 0.013,0.068c0.08,0.272 0.145,0.543 0.225,0.829c0.012,0.027 0.026,0.095 0.026,0.122c0.079,0.271 0.158,0.557 0.224,0.829c0.013,0.013 0.013,0.054 0.027,0.068c0.078,0.312 0.157,0.597 0.237,0.91c-0,0.027 0.013,0.054 0.027,0.095c0.065,0.244 0.118,0.489 0.197,0.747c0.013,0.095 0.039,0.19 0.066,0.285c0.053,0.204 0.105,0.394 0.158,0.598c0.027,0.095 0.04,0.177 0.079,0.286c0.053,0.23 0.132,0.516 0.185,0.747c0.026,0.081 0.053,0.176 0.066,0.244c0.066,0.245 0.119,0.462 0.171,0.693c0.04,0.122 0.066,0.217 0.093,0.34c0.039,0.163 0.078,0.339 0.132,0.503c0.026,0.135 0.066,0.271 0.105,0.407c0.027,0.136 0.066,0.285 0.106,0.421c0.039,0.19 0.092,0.394 0.144,0.585c0.04,0.189 0.093,0.407 0.146,0.611c0.04,0.149 0.079,0.312 0.118,0.462c0.027,0.122 0.066,0.258 0.093,0.38c0.039,0.163 0.079,0.312 0.118,0.489c0.027,0.122 0.053,0.204 0.079,0.326c0.053,0.191 0.093,0.34 0.132,0.53c0.014,0.054 0.04,0.136 0.053,0.19c0.093,0.381 0.185,0.748 0.264,1.114c0.026,0.082 0.04,0.163 0.066,0.245c0.04,0.19 0.092,0.367 0.132,0.557c0.013,0.081 0.053,0.19 0.066,0.271c0.039,0.191 0.092,0.381 0.132,0.571c0.013,0.068 0.039,0.136 0.053,0.204c0.158,0.652 0.302,1.291 0.461,1.943c0.013,0.054 0.039,0.163 0.053,0.217c0.04,0.19 0.092,0.394 0.131,0.584c0.027,0.082 0.041,0.163 0.053,0.245c0.159,0.666 0.317,1.317 0.462,1.97c0.013,0.041 0.026,0.122 0.04,0.163c0.039,0.204 0.092,0.408 0.131,0.611c0.027,0.082 0.04,0.136 0.053,0.217c0.04,0.204 0.093,0.408 0.132,0.612c0.013,0.054 0.04,0.136 0.053,0.19c0.145,0.666 0.29,1.318 0.435,1.97c0.027,0.082 0.027,0.136 0.052,0.217c0.041,0.191 0.08,0.395 0.12,0.584c0.026,0.082 0.052,0.191 0.066,0.272c0.145,0.666 0.289,1.359 0.435,2.024c0.013,0.041 0.013,0.055 0.026,0.095c0.053,0.232 0.092,0.422 0.132,0.639c0.026,0.082 0.026,0.136 0.053,0.218c0.039,0.203 0.079,0.421 0.131,0.624c0,0.041 0.014,0.096 0.027,0.136c0.092,0.435 0.185,0.87 0.277,1.305c0.013,0.04 0.013,0.081 0.026,0.122c0.04,0.19 0.066,0.367 0.106,0.557c0.026,0.095 0.053,0.217 0.079,0.312c0.026,0.177 0.066,0.381 0.106,0.544c0.026,0.109 0.039,0.19 0.065,0.299c0.119,0.625 0.251,1.25 0.383,1.874c0.013,0.096 0.04,0.204 0.053,0.313c0.039,0.177 0.078,0.353 0.119,0.53c0.013,0.108 0.039,0.231 0.052,0.326c0.039,0.176 0.079,0.367 0.119,0.543c0.013,0.109 0.04,0.231 0.066,0.34c0.052,0.285 0.106,0.557 0.171,0.856c0.026,0.163 0.053,0.285 0.079,0.462c0.04,0.149 0.066,0.299 0.092,0.462c0.027,0.149 0.053,0.258 0.08,0.407c0.039,0.163 0.066,0.326 0.092,0.49c0.026,0.121 0.066,0.298 0.092,0.42c0.027,0.164 0.053,0.299 0.079,0.462c0.053,0.259 0.106,0.544 0.159,0.816c0.026,0.108 0.039,0.217 0.066,0.339c0.039,0.19 0.066,0.381 0.105,0.571c0.027,0.122 0.04,0.231 0.066,0.367c0.04,0.203 0.079,0.394 0.119,0.598c0.013,0.095 0.04,0.203 0.053,0.298c0.053,0.286 0.118,0.612 0.171,0.897c37.587,204.412 48.772,691.544 51.686,1050.96c0.066,8.45 0.132,16.792 0.198,25.093c1.16,161.847 0.673,294.879 0.277,359.507c-0.079,13.205 -0.158,23.585 -0.211,30.744Z" style="fill:#fdd4c0;fill-rule:nonzero;"/><path d="M1647.38,953.774l-1.49,-32.117l10.155,-0.707l195.877,-198.488c0,0 33.064,20.528 37.509,28.462c4.445,7.934 20.918,-5.529 20.918,-5.529l51.172,260.14c-0,0 -201.536,177.091 -279.019,168.26c-28.949,-3.301 -32.075,-9.605 -32.075,-9.605l-3.047,-210.416Z" style="fill:#f79982;fill-rule:nonzero;"/><path d="M1856.97,711.579l-212.112,213.936l3.851,66.204c-0,-0 112.709,-85.129 158.263,-239.504" style="fill:#f3705c;fill-rule:nonzero;"/><path d="M1917.88,655.172c0,-0 -69.174,6.833 -91.134,40.974l-95.92,-177.702c0,0 -33.803,-133.045 -71.76,-99.991c-37.969,33.067 -70.744,53.732 -97.147,45.091c-26.404,-8.654 -50.644,-50.444 -50.644,-50.444c-0,-0 -185.511,-177.662 -67.566,-313.179c129.038,-148.249 140.394,-33.381 230.775,-0.395c34.831,12.717 102.436,-8.98 138.929,1.549c38.814,11.181 40.291,103.375 63.86,103.307c132.254,-0.367 116.771,189.834 53.875,447.882" style="fill:#3f080e;fill-rule:nonzero;"/><path d="M1846,524.395c-26.892,13.449 -50.579,31.94 -66.536,60.321c-2.203,3.912 -4.643,7.349 -7.188,10.515l54.468,100.915c21.96,-34.141 91.134,-40.974 91.134,-40.974l13.268,-2.908c9.759,-40.024 18.569,-76.379 26.192,-109.732c-35.675,-14.238 -72.563,-22.159 -111.338,-18.137Z" style="fill:#f3705c;fill-rule:nonzero;"/><path d="M1854.95,662.168c2.849,6.385 76.876,-49.126 92.637,15.502c21.419,87.791 -76.573,82.166 -83.299,94.57c-13.677,25.147 -1.095,42.741 -71.258,78.73c-42.771,21.927 -161.733,116.484 -212.285,73.662c-50.538,-42.836 -66.747,-35.282 -74.752,-525.553c-0,0 42.599,-41.477 67.987,-19.224c47.571,41.709 64.466,34.617 75.755,19.156c15.84,-21.696 46.45,-25.351 67.394,-8.858c119.185,93.824 122.35,237.534 137.821,272.015Z" style="fill:#f79982;fill-rule:nonzero;"/><path d="M1933.99,680.319c0,-0 -37.033,-26.941 -50.881,20.12" style="fill:#f3705c;fill-rule:nonzero;"/><path d="M1569.21,583.466l15.708,170.311l-34.95,-2.581c2.203,0.203 19.242,-167.73 19.242,-167.73Z" style="fill:#f3705c;fill-rule:nonzero;"/><path d="M1659,574.906c-31.494,-11.751 -58.715,-3.07 -58.715,-3.07c1.688,-16.737 18.332,-28.693 37.153,-26.709c7.068,0.76 16.973,5.339 21.985,13.558c2.11,3.438 5.987,18.042 -0.423,16.221Z" style="fill-rule:nonzero;"/><path d="M1530.26,581.876c-33.499,0.693 -42.177,10.937 -42.177,10.937c2.427,-13.206 3.772,-20.909 11.646,-30.732c4.51,-5.651 17.698,-1.303 25.256,4.511c3.152,2.418 11.896,14.605 5.275,15.284Z" style="fill-rule:nonzero;"/><path d="M1598.3,657.169c8.6,9.061 18.372,13.531 27.617,13.531c10.842,0.027 20.64,-6.263 26.18,-16.996c0.857,-1.671 0.251,-3.736 -1.359,-4.633c-1.622,-0.883 -3.627,-0.258 -4.497,1.4c-4.629,8.817 -11.975,13.355 -20.324,13.395c-7.134,0 -15.232,-3.437 -22.882,-11.48c-1.279,-1.345 -3.39,-1.372 -4.695,-0.04c-1.306,1.317 -1.332,3.478 -0.04,4.823Z" style="fill-rule:nonzero;"/><path d="M1509.49,663.839c4.365,9.51 12.213,14.089 19.757,14.021c9.496,-0 18.517,-6.82 20.653,-17.376c0.37,-1.848 -0.791,-3.655 -2.584,-4.035c-1.795,-0.381 -3.549,0.801 -3.917,2.649c-1.425,7.241 -7.703,11.942 -14.152,11.928c-5.052,-0.054 -10.221,-2.676 -13.782,-10.149c-0.792,-1.698 -2.77,-2.418 -4.418,-1.602c-1.649,0.815 -2.348,2.866 -1.557,4.564Z" style="fill-rule:nonzero;"/><path d="M1612.8,760.162l-0.053,0.136c-0.409,0.911 -2.782,5.897 -7.794,10.529c-5.039,4.62 -12.569,8.967 -23.964,8.98c-4.076,0 -8.652,-0.556 -13.782,-1.915c-1.781,-0.462 -3.588,0.638 -4.036,2.473c-0.449,1.82 0.62,3.681 2.387,4.157c5.618,1.481 10.762,2.119 15.431,2.119c13.993,0.027 23.66,-5.923 29.542,-11.847c5.935,-5.923 8.283,-11.751 8.402,-12.023c0.698,-1.739 -0.106,-3.75 -1.794,-4.47c-1.702,-0.72 -3.64,0.109 -4.339,1.861Z" style="fill-rule:nonzero;"/><path d="M2883.13,1212.73c-112.776,254.843 -280.074,599.609 -354.391,761.796c5.539,-8.681 -6.41,-100.888 -3.772,-121.131c-183.85,122.748 -401.528,219.832 -401.528,219.832c47.518,334.251 229.944,548.105 332.947,597.53c132.427,63.568 195.099,14.7 195.099,14.7c283.449,-233.594 399.826,-1214.18 420.783,-1388.93l140.577,-178.952c0,0 49.959,-55.239 60.589,-124.581c10.656,-69.329 21.352,-130.003 7.385,-127c-13.992,3.002 -49.641,95.63 -55.101,112.993c-5.46,17.349 -24.808,49.248 -33.17,55.104c-8.348,5.828 51.858,-167.785 54.337,-208.203c2.467,-40.404 15.972,-101.105 1.979,-100.983c-14.007,0.123 -47.044,69.641 -47.044,69.641c-0,0 10.511,-83.756 -3.508,-86.514c-14.033,-2.772 -33.183,52.21 -38.577,78.213c-5.381,26.017 -65.851,167.907 -82.614,173.817c0,-0 -22.13,-139.73 -33.499,-159.837c-11.368,-20.093 -110.494,16.819 -113.198,28.381c-2.717,11.575 45.066,31.356 64.651,28.299l14.745,92.193c-0,-0 -44.235,72.507 -77.879,67.032c-0,0 -28.646,-79.096 -27.327,-87.764c1.346,-8.668 45.923,-37.904 27.287,-91.12c-18.635,-53.202 -100.972,156.671 -100.972,156.671c0,0 57.766,142.284 52.201,218.813Z" style="fill:#f79982;fill-rule:nonzero;"/><path d="M3199.88,784.549c-17.303,78.784 -47.874,153.682 -90.395,221.543c-3.31,5.299 4.88,10.19 8.177,4.932c42.942,-68.527 73.87,-144.349 91.344,-223.88c1.345,-6.114 -7.781,-8.736 -9.126,-2.595Z" style="fill:#f3705c;fill-rule:nonzero;"/><path d="M2948.95,1027.07c8.005,-0.666 17.145,-1.277 24.623,2.323c10.814,5.217 9.1,19.075 8.968,29.386c-0.37,25.908 -3.574,51.64 -9.391,76.841c-1.424,6.114 7.716,8.709 9.127,2.595c6.819,-29.508 10.419,-60.076 9.707,-90.413c-0.251,-11.154 -3.324,-21.575 -13.624,-26.832c-8.995,-4.592 -19.638,-4.47 -29.41,-3.655c-6.028,0.503 -6.08,10.271 -0,9.755Z" style="fill:#f3705c;fill-rule:nonzero;"/><path d="M3154.24,1074.27c-21.695,-27.702 -43.404,-55.403 -65.085,-83.104c-3.825,-4.891 -10.499,2.051 -6.7,6.901c21.682,27.701 43.39,55.403 65.073,83.104c3.837,4.891 10.497,-2.051 6.712,-6.901Z" style="fill:#f3705c;fill-rule:nonzero;"/><path d="M2727.82,3248.36l86.319,76.815c43.47,20.324 74.832,62.834 90.448,103.089l236.142,107.599c73.091,33.992 124.62,130.478 68.238,126.361l-700.369,-22.837l219.222,-391.027Z" style="fill:#f79982;fill-rule:nonzero;"/><path d="M2675.39,3662.24l197.619,-455.328c-0,0 -2162.32,-898.686 -2324.07,-156.562c-121.23,556.229 925.208,593.481 2126.45,611.89Z" style="fill:#3f080e;fill-rule:nonzero;"/><path d="M1197.73,3621.78l-70.572,-414.842c-0,0 1800.41,-982.388 1974.13,-243.144c130.224,554.082 -702.782,618.968 -1903.55,657.986Z" style="fill:#953c42;fill-rule:nonzero;"/><path d="M1138.73,3253.01l-167.89,18.748c-25.099,14.673 -46.042,35.894 -60.417,61.68c-23.859,42.822 -60.497,100.698 -93.758,123.549c-103.993,71.366 -310.065,132.801 -310.065,132.801c-46.925,17.077 -70.519,104.013 -16.908,99.19l719.241,-67.277l-70.203,-368.691Z" style="fill:#f79982;fill-rule:nonzero;"/><path d="M2090.16,2113.91l510.162,-292.883c0,0 -146.209,-763.29 -456.906,-740.425c-310.698,22.865 -53.256,1033.31 -53.256,1033.31Z" style="fill:#fde0d1;fill-rule:nonzero;"/></svg>