<?xml version="1.0" encoding="UTF-8" standalone="no"?><!DOCTYPE svg PUBLIC "-//W3C//DTD SVG 1.1//EN" "http://www.w3.org/Graphics/SVG/1.1/DTD/svg11.dtd"><svg width="100%" height="100%" viewBox="0 0 1459 521" version="1.1" xmlns="http://www.w3.org/2000/svg" xmlns:xlink="http://www.w3.org/1999/xlink" xml:space="preserve" xmlns:serif="http://www.serif.com/" style="fill-rule:evenodd;clip-rule:evenodd;stroke-linejoin:round;stroke-miterlimit:2;"><g id="LOGO"><path d="M250.889,83.505c-43.535,-3.166 -98.997,18.633 -104.831,46.484c-8.856,42.275 138.914,94.032 122.189,153.67c-16.724,59.638 -29.659,90.366 27.076,107.228c17.982,5.344 47.529,-12.907 71.451,-37.801c64.302,-66.914 71.264,-255.973 -115.885,-269.581Z" style="fill:#ffc088;fill-opacity:0.2;"/><g id="ENERGIE"><path d="M246.034,90.592l-2.073,-0.043c-16.822,0.232 -32.952,3.243 -47.964,8.609c-15.49,5.536 -29.795,13.542 -42.405,23.594c-17.451,13.908 -31.671,31.677 -41.361,52.004c-9.318,19.548 -14.473,41.448 -14.214,64.547c0.195,19.782 4.331,38.604 11.645,55.742c7.551,17.693 18.481,33.592 32.011,46.854c6.163,6.06 12.864,11.574 20.026,16.46c7.109,4.851 14.669,9.085 22.606,12.624c9.25,4.153 19.015,7.35 29.166,9.502c9.835,2.086 20.033,3.193 30.49,3.173c16.622,0.034 32.59,-2.77 47.475,-7.897c15.442,-5.319 29.724,-13.144 42.321,-23.035c5.218,-4.089 10.144,-8.534 14.757,-13.284c4.615,-4.753 8.915,-9.813 12.855,-15.158c8.929,-12.094 16.008,-25.632 20.876,-40.188c4.714,-14.092 7.349,-29.14 7.51,-44.793c0.141,-12.425 -1.292,-24.502 -4.081,-36.057c-2.891,-11.98 -7.253,-23.393 -12.889,-34.038c-2.401,-4.535 -5.035,-8.926 -7.882,-13.166c-2.861,-4.259 -5.941,-8.358 -9.221,-12.288c-13.545,-16.255 -30.546,-29.527 -49.856,-38.77c-18.176,-8.701 -38.405,-13.793 -59.792,-14.392Zm-5.028,9.675c-14.737,0.1 -28.948,2.481 -42.282,6.853c-14.802,4.854 -28.524,12.12 -40.702,21.335c-17.023,12.884 -31.054,29.54 -40.784,48.762c-9.455,18.679 -14.863,39.754 -15.113,62.086c-0.191,19.3 3.471,37.746 10.298,54.594c7.1,17.521 17.608,33.31 30.68,46.567c6.002,6.068 12.542,11.603 19.545,16.525c6.968,4.898 14.392,9.192 22.198,12.803c9.138,4.198 18.791,7.475 28.845,9.672c9.755,2.131 19.884,3.245 30.27,3.264c16.504,-0.033 32.361,-2.839 47.104,-8.031c15.26,-5.374 29.319,-13.301 41.702,-23.219c5.11,-4.101 9.937,-8.54 14.432,-13.296c4.49,-4.749 8.647,-9.813 12.452,-15.144c8.574,-12.031 15.338,-25.438 19.855,-39.83c4.346,-13.852 6.599,-28.612 6.442,-43.905c-0.138,-12.067 -1.778,-23.765 -4.754,-34.919c-3.067,-11.492 -7.563,-22.396 -13.26,-32.529c-2.416,-4.299 -5.053,-8.455 -7.891,-12.459c-2.845,-4.013 -5.896,-7.868 -9.134,-11.554c-13.304,-15.124 -29.797,-27.356 -48.415,-35.642c-17.871,-7.954 -37.705,-12.221 -58.533,-11.923l-1.479,-0.013l-1.476,0.003Z" style="fill:#ff7905;"/><path d="M249.075,103.884c-40.399,0.821 -76.58,17.937 -102.664,44.856c-10.533,10.871 -19.341,23.357 -26.284,36.968c-5.12,10.036 -9.264,20.662 -12.116,31.832c-2.772,10.855 -4.424,22.177 -4.656,33.865c-1,40.608 14.686,77.759 40.726,104.994c18.729,19.588 42.812,34.111 69.948,41.003c11.217,2.848 22.971,4.272 35.046,4.356c20.334,-0.247 39.731,-4.389 57.282,-12.061c18.063,-7.896 34.154,-19.411 47.518,-33.493c18.39,-19.379 31.483,-43.707 37.268,-70.694c2.354,-10.981 3.548,-22.389 3.306,-34.105c-0.083,-15.664 -2.752,-30.704 -7.317,-44.854c-7.127,-22.094 -19.139,-41.981 -34.98,-58.223c-26.219,-26.882 -62.6,-43.83 -103.077,-44.444Zm0,6.296c39.214,-0.595 75.014,14.767 101.058,40.168c15.998,15.603 28.436,34.943 35.554,56.673c4.572,13.958 6.843,28.91 6.761,44.384c-0.99,39.181 -17.69,74.282 -44.038,99.335c-13.206,12.556 -28.89,22.41 -46.11,29.184c-16.484,6.484 -34.421,10.102 -53.225,9.874c-11.135,0.077 -21.963,-1.205 -32.369,-3.57c-10.778,-2.45 -21.101,-6.07 -30.814,-10.793c-13.251,-6.444 -25.393,-14.819 -35.956,-24.89c-26.257,-25.033 -42.923,-60.045 -43.886,-99.14c-0.228,-11.527 0.857,-22.77 3.271,-33.551c2.501,-11.172 6.307,-21.882 11.403,-31.84c6.905,-13.492 16.1,-25.631 26.882,-36.079c26.185,-25.372 62.172,-40.553 101.469,-39.755Z" style="fill:#ff7905;"/><path d="M245.315,89.539c-43.587,1.351 -82.627,19.837 -110.382,49.265c-27.168,28.805 -43.804,67.714 -42.63,110.382c0.86,41.911 18.587,79.437 46.482,106.53c27.582,26.789 65.081,43.533 106.53,43.175c41.467,0.407 79.013,-16.295 106.624,-43.081c27.935,-27.1 45.661,-64.676 46.522,-106.624c1.15,-42.695 -15.515,-81.623 -42.716,-110.43c-27.778,-29.417 -66.834,-47.891 -110.43,-49.217Zm-0,30.548c36.119,-1.098 69.332,12.381 93.704,35.395c24.972,23.581 40.898,56.692 41.895,93.704c0.775,37.749 -13.702,72.371 -38.089,97.51c-24.686,25.447 -59.293,41.156 -97.51,41.531c-38.236,-0.33 -72.892,-15.993 -97.604,-41.437c-24.426,-25.149 -38.905,-59.818 -38.13,-97.604c1.019,-37.041 16.976,-70.167 41.982,-93.752c24.393,-23.006 57.623,-36.466 93.752,-35.347Z" style="fill:#ff7905;fill-opacity:0.15;"/></g><path d="M43.338,339.396c0,-0 140.632,-30.31 229.187,50.028c88.555,80.337 -142.815,38.47 -229.187,-50.028Z" style="fill:url(#_Linear1);"/><path d="M219.552,437.555c-0,0 76.725,-121.693 196.082,-128.768c119.357,-7.075 -72.421,128.963 -196.082,128.768Z" style="fill:url(#_Linear2);"/></g><g><path d="M573.199,245.325l-41.85,-37.8l3.225,1.8l0.225,33.75l-11.025,0l-0,-57.375l0.45,0l40.95,37.65l-2.4,-1.05l-0.225,-34.425l10.95,0l-0,57.45l-0.3,0Z" style="fill-rule:nonzero;"/><path d="M581.524,243.075l24.9,-57.375l0.6,0l24.9,57.375l-12.6,0l-15.9,-40.35l7.875,-5.4l-19.05,45.75l-10.725,0Zm17.025,-19.95l16.575,0l3.825,9.15l-23.775,0l3.375,-9.15Z" style="fill-rule:nonzero;"/><path d="M631.699,187.875l37.2,0l-0,10.5l-13.425,0l-0,44.7l-10.875,0l-0,-44.7l-12.9,0l-0,-10.5Z" style="fill-rule:nonzero;"/><path d="M725.824,187.875l-0,55.2l-10.875,0l-0,-22.425l-24.675,0l-0,22.425l-10.875,0l-0,-55.2l10.875,0l-0,22.275l24.675,0l-0,-22.275l10.875,0Z" style="fill-rule:nonzero;"/><path d="M733.849,243.075l24.9,-57.375l0.6,0l24.9,57.375l-12.6,0l-15.9,-40.35l7.875,-5.4l-19.05,45.75l-10.725,0Zm17.025,-19.95l16.575,0l3.825,9.15l-23.775,0l3.375,-9.15Z" style="fill-rule:nonzero;"/><path d="M792.274,187.875l10.875,0l-0,44.7l25.95,0l-0,10.5l-36.825,0l-0,-55.2Z" style="fill-rule:nonzero;"/><rect x="840.349" y="187.875" width="10.875" height="55.2" style="fill-rule:nonzero;"/><path d="M865.474,187.875l37.65,0l-0,10.5l-26.775,0l-0,11.775l23.7,0l-0,10.5l-23.7,0l-0,11.925l27.825,0l-0,10.5l-38.7,0l-0,-55.2Z" style="fill-rule:nonzero;"/><path d="M981.199,238.5c-0.6,0.5 -1.713,1.175 -3.338,2.025c-1.625,0.85 -3.612,1.6 -5.962,2.25c-2.35,0.65 -4.95,0.95 -7.8,0.9c-4.35,-0.1 -8.238,-0.887 -11.663,-2.362c-3.425,-1.475 -6.325,-3.488 -8.7,-6.038c-2.375,-2.55 -4.187,-5.475 -5.437,-8.775c-1.25,-3.3 -1.875,-6.825 -1.875,-10.575c-0,-4.2 0.637,-8.05 1.912,-11.55c1.275,-3.5 3.1,-6.525 5.475,-9.075c2.375,-2.55 5.213,-4.525 8.513,-5.925c3.3,-1.4 6.95,-2.1 10.95,-2.1c3.7,0 6.975,0.5 9.825,1.5c2.85,1 5.175,2.075 6.975,3.225l-4.275,10.275c-1.25,-0.95 -2.913,-1.937 -4.988,-2.962c-2.075,-1.025 -4.462,-1.538 -7.162,-1.538c-2.1,0 -4.113,0.438 -6.038,1.313c-1.925,0.875 -3.625,2.112 -5.1,3.712c-1.475,1.6 -2.637,3.463 -3.487,5.588c-0.85,2.125 -1.275,4.437 -1.275,6.937c-0,2.65 0.387,5.075 1.162,7.275c0.775,2.2 1.888,4.088 3.338,5.663c1.45,1.575 3.187,2.787 5.212,3.637c2.025,0.85 4.313,1.275 6.863,1.275c2.95,0 5.475,-0.475 7.575,-1.425c2.1,-0.95 3.7,-1.95 4.8,-3l4.5,9.75Z" style="fill-rule:nonzero;"/><path d="M985.849,243.075l24.9,-57.375l0.6,0l24.9,57.375l-12.6,0l-15.9,-40.35l7.875,-5.4l-19.05,45.75l-10.725,0Zm17.025,-19.95l16.575,0l3.825,9.15l-23.775,0l3.375,-9.15Z" style="fill-rule:nonzero;"/><path d="M1061,187.875c3.45,0 6.525,0.438 9.225,1.313c2.7,0.875 4.962,2.125 6.787,3.75c1.825,1.625 3.213,3.575 4.163,5.85c0.95,2.275 1.425,4.837 1.425,7.687c-0,2.25 -0.338,4.5 -1.013,6.75c-0.675,2.25 -1.775,4.3 -3.3,6.15c-1.525,1.85 -3.537,3.338 -6.037,4.463c-2.5,1.125 -5.6,1.687 -9.3,1.687l-7.8,0l-0,17.55l-10.875,0l-0,-55.2l16.725,0Zm1.875,27.15c1.65,0 3.025,-0.275 4.125,-0.825c1.1,-0.55 1.962,-1.25 2.587,-2.1c0.625,-0.85 1.075,-1.737 1.35,-2.662c0.275,-0.925 0.413,-1.788 0.413,-2.588c-0,-0.6 -0.088,-1.362 -0.263,-2.287c-0.175,-0.925 -0.537,-1.863 -1.087,-2.813c-0.55,-0.95 -1.388,-1.75 -2.513,-2.4c-1.125,-0.65 -2.637,-0.975 -4.537,-0.975l-7.8,0l-0,16.65l7.725,0Zm10.2,6.75l13.65,21.3l-12.675,0l-13.95,-21l12.975,-0.3Z" style="fill-rule:nonzero;"/><path d="M1090.85,187.875l37.2,0l-0,10.5l-13.425,0l-0,44.7l-10.875,0l-0,-44.7l-12.9,0l-0,-10.5Z" style="fill-rule:nonzero;"/><rect x="1138.55" y="187.875" width="10.875" height="55.2" style="fill-rule:nonzero;"/><path d="M1163.67,187.875l37.65,0l-0,10.5l-26.775,0l-0,11.775l23.7,0l-0,10.5l-23.7,0l-0,11.925l27.825,0l-0,10.5l-38.7,0l-0,-55.2Z" style="fill-rule:nonzero;"/><path d="M1230.35,187.875c3.45,0 6.525,0.438 9.225,1.313c2.7,0.875 4.962,2.125 6.787,3.75c1.825,1.625 3.213,3.575 4.163,5.85c0.95,2.275 1.425,4.837 1.425,7.687c-0,2.25 -0.338,4.5 -1.013,6.75c-0.675,2.25 -1.775,4.3 -3.3,6.15c-1.525,1.85 -3.537,3.338 -6.037,4.463c-2.5,1.125 -5.6,1.687 -9.3,1.687l-7.8,0l-0,17.55l-10.875,0l-0,-55.2l16.725,0Zm1.875,27.15c1.65,0 3.025,-0.275 4.125,-0.825c1.1,-0.55 1.962,-1.25 2.587,-2.1c0.625,-0.85 1.075,-1.737 1.35,-2.662c0.275,-0.925 0.413,-1.788 0.413,-2.588c-0,-0.6 -0.088,-1.362 -0.263,-2.287c-0.175,-0.925 -0.537,-1.863 -1.087,-2.813c-0.55,-0.95 -1.388,-1.75 -2.513,-2.4c-1.125,-0.65 -2.637,-0.975 -4.537,-0.975l-7.8,0l-0,16.65l7.725,0Zm10.2,6.75l13.65,21.3l-12.675,0l-13.95,-21l12.975,-0.3Z" style="fill-rule:nonzero;"/><path d="M520.382,289.045l31,-0l0,3.133l-13.933,-0l-0,44.2l-3.267,-0l0,-44.2l-13.8,-0l0,-3.133Z" style="fill-rule:nonzero;"/><path d="M561.049,336.378l-0,-50.667l3.067,0l-0,31.534l-0.2,-1.134c0.888,-1.822 2.322,-3.366 4.3,-4.633c1.977,-1.267 4.255,-1.9 6.833,-1.9c2.444,-0 4.422,0.722 5.933,2.167c1.511,1.444 2.289,3.322 2.334,5.633l-0,19l-3.2,-0l-0,-18.133c-0.045,-1.689 -0.578,-3.089 -1.6,-4.2c-1.023,-1.112 -2.512,-1.689 -4.467,-1.734c-1.733,0 -3.356,0.445 -4.867,1.334c-1.511,0.888 -2.722,2.088 -3.633,3.6c-0.911,1.511 -1.367,3.222 -1.367,5.133l0,14l-3.133,-0Z" style="fill-rule:nonzero;"/><path d="M606.516,336.911c-2.712,0 -5.112,-0.6 -7.2,-1.8c-2.089,-1.2 -3.723,-2.833 -4.9,-4.9c-1.178,-2.066 -1.767,-4.389 -1.767,-6.966c-0,-2.534 0.622,-4.845 1.867,-6.934c1.244,-2.089 2.922,-3.755 5.033,-5c2.111,-1.244 4.455,-1.866 7.033,-1.866c3.111,-0 5.722,0.911 7.834,2.733c2.111,1.822 3.633,4.2 4.566,7.133l-22.8,8.8l-0.933,-2.266l20.867,-8.134l-0.667,0.934c-0.756,-1.778 -1.9,-3.312 -3.433,-4.6c-1.534,-1.289 -3.412,-1.934 -5.634,-1.934c-2,0 -3.8,0.489 -5.4,1.467c-1.6,0.978 -2.878,2.289 -3.833,3.933c-0.956,1.645 -1.433,3.511 -1.433,5.6c-0,1.956 0.455,3.778 1.366,5.467c0.911,1.689 2.189,3.044 3.834,4.067c1.644,1.022 3.533,1.533 5.666,1.533c1.422,-0 2.789,-0.267 4.1,-0.8c1.311,-0.533 2.478,-1.222 3.5,-2.067l1.6,2.267c-1.244,0.978 -2.678,1.778 -4.3,2.4c-1.622,0.622 -3.278,0.933 -4.966,0.933Zm4.6,-40.933l-7.067,8.867l-2.267,-0l5.8,-8.867l3.534,-0Z" style="fill-rule:nonzero;"/><path d="M630.382,310.311l0.334,8l-0.4,-1c0.577,-1.6 1.488,-2.978 2.733,-4.133c1.244,-1.156 2.633,-2.045 4.167,-2.667c1.533,-0.622 3.011,-0.933 4.433,-0.933l-0.133,3.067c-2,-0 -3.812,0.444 -5.434,1.333c-1.622,0.889 -2.911,2.078 -3.866,3.567c-0.956,1.488 -1.434,3.166 -1.434,5.033l0,13.8l-3.133,-0l-0,-26.067l2.733,0Z" style="fill-rule:nonzero;"/><path d="M660.916,336.911c-2.489,0 -4.745,-0.566 -6.767,-1.7c-2.022,-1.133 -3.622,-2.722 -4.8,-4.766c-1.178,-2.045 -1.767,-4.423 -1.767,-7.134c0,-2.889 0.622,-5.366 1.867,-7.433c1.244,-2.067 2.933,-3.645 5.067,-4.733c2.133,-1.089 4.555,-1.634 7.266,-1.634c2.311,0 4.5,0.689 6.567,2.067c2.067,1.378 3.544,3.111 4.433,5.2l-0.466,0.933l0.4,-7.4l2.8,0l-0,26.067l-3.134,-0l0,-8.067l0.667,1.2c-0.311,0.889 -0.845,1.767 -1.6,2.634c-0.756,0.866 -1.678,1.666 -2.767,2.4c-1.089,0.733 -2.289,1.311 -3.6,1.733c-1.311,0.422 -2.7,0.633 -4.166,0.633Zm0.666,-2.666c1.956,-0 3.722,-0.412 5.3,-1.234c1.578,-0.822 2.856,-1.966 3.834,-3.433c0.977,-1.467 1.533,-3.156 1.666,-5.067l0,-3.733c-0.355,-1.645 -1.055,-3.111 -2.1,-4.4c-1.044,-1.289 -2.322,-2.311 -3.833,-3.067c-1.511,-0.755 -3.156,-1.133 -4.933,-1.133c-1.956,-0 -3.756,0.455 -5.4,1.367c-1.645,0.911 -2.956,2.188 -3.934,3.833c-0.978,1.644 -1.466,3.578 -1.466,5.8c-0,2.044 0.488,3.9 1.466,5.567c0.978,1.666 2.3,3 3.967,4c1.667,1 3.478,1.5 5.433,1.5Z" style="fill-rule:nonzero;"/><path d="M701.782,336.911c-2.489,0 -4.822,-0.655 -7,-1.966c-2.178,-1.312 -3.778,-3.012 -4.8,-5.1l0.534,-1.134l-0,20.2l-3.134,0l0,-38.8l2.8,0l0.334,8.534l-0.6,-1.934c1.155,-2.089 2.844,-3.811 5.066,-5.166c2.222,-1.356 4.645,-2.034 7.267,-2.034c2.489,0 4.733,0.6 6.733,1.8c2,1.2 3.589,2.834 4.767,4.9c1.178,2.067 1.767,4.434 1.767,7.1c-0,2.622 -0.612,4.967 -1.834,7.034c-1.222,2.066 -2.866,3.677 -4.933,4.833c-2.067,1.155 -4.389,1.733 -6.967,1.733Zm-0.533,-2.6c2.044,0 3.9,-0.489 5.567,-1.466c1.666,-0.978 3,-2.3 4,-3.967c1,-1.667 1.5,-3.522 1.5,-5.567c-0,-2.089 -0.489,-3.966 -1.467,-5.633c-0.978,-1.667 -2.278,-2.989 -3.9,-3.967c-1.622,-0.978 -3.456,-1.466 -5.5,-1.466c-1.956,-0 -3.733,0.444 -5.333,1.333c-1.6,0.889 -2.889,2.089 -3.867,3.6c-0.978,1.511 -1.556,3.222 -1.733,5.133l-0,2.134c0.133,1.822 0.7,3.488 1.7,5c1,1.511 2.288,2.7 3.866,3.566c1.578,0.867 3.3,1.3 5.167,1.3Z" style="fill-rule:nonzero;"/><path d="M736.182,336.911c-2.711,0 -5.111,-0.6 -7.2,-1.8c-2.089,-1.2 -3.722,-2.833 -4.9,-4.9c-1.178,-2.066 -1.766,-4.389 -1.766,-6.966c-0,-2.534 0.622,-4.845 1.866,-6.934c1.245,-2.089 2.922,-3.755 5.034,-5c2.111,-1.244 4.455,-1.866 7.033,-1.866c3.111,-0 5.722,0.911 7.833,2.733c2.111,1.822 3.634,4.2 4.567,7.133l-22.8,8.8l-0.933,-2.266l20.866,-8.134l-0.666,0.934c-0.756,-1.778 -1.9,-3.312 -3.434,-4.6c-1.533,-1.289 -3.411,-1.934 -5.633,-1.934c-2,0 -3.8,0.489 -5.4,1.467c-1.6,0.978 -2.878,2.289 -3.833,3.933c-0.956,1.645 -1.434,3.511 -1.434,5.6c0,1.956 0.456,3.778 1.367,5.467c0.911,1.689 2.189,3.044 3.833,4.067c1.645,1.022 3.534,1.533 5.667,1.533c1.422,-0 2.789,-0.267 4.1,-0.8c1.311,-0.533 2.478,-1.222 3.5,-2.067l1.6,2.267c-1.245,0.978 -2.678,1.778 -4.3,2.4c-1.622,0.622 -3.278,0.933 -4.967,0.933Z" style="fill-rule:nonzero;"/><path d="M765.516,337.111c-2.445,0 -4.4,-0.722 -5.867,-2.166c-1.467,-1.445 -2.245,-3.323 -2.333,-5.634l-0,-19l3.133,0l-0,18.067c0.089,1.689 0.633,3.089 1.633,4.2c1,1.111 2.5,1.711 4.5,1.8c1.689,-0 3.267,-0.445 4.734,-1.333c1.466,-0.889 2.655,-2.1 3.566,-3.634c0.911,-1.533 1.367,-3.278 1.367,-5.233l-0,-13.867l3.133,0l0,26.067l-2.8,-0l-0.333,-8.2l0.467,1.8c-0.445,1.333 -1.234,2.544 -2.367,3.633c-1.133,1.089 -2.467,1.945 -4,2.567c-1.533,0.622 -3.145,0.933 -4.833,0.933Z" style="fill-rule:nonzero;"/><path d="M793.849,298.845l3.2,-0l-0,11.8l8.067,-0l-0,2.533l-8.067,-0l-0,23.2l-3.2,-0l-0,-23.2l-5.533,-0l-0,-2.533l5.533,-0l-0,-11.8Z" style="fill-rule:nonzero;"/><path d="M824.249,336.911c-2.711,0 -5.111,-0.6 -7.2,-1.8c-2.089,-1.2 -3.722,-2.833 -4.9,-4.9c-1.178,-2.066 -1.767,-4.389 -1.767,-6.966c0,-2.534 0.622,-4.845 1.867,-6.934c1.244,-2.089 2.922,-3.755 5.033,-5c2.111,-1.244 4.456,-1.866 7.034,-1.866c3.111,-0 5.722,0.911 7.833,2.733c2.111,1.822 3.633,4.2 4.567,7.133l-22.8,8.8l-0.934,-2.266l20.867,-8.134l-0.667,0.934c-0.755,-1.778 -1.9,-3.312 -3.433,-4.6c-1.533,-1.289 -3.411,-1.934 -5.633,-1.934c-2,0 -3.8,0.489 -5.4,1.467c-1.6,0.978 -2.878,2.289 -3.834,3.933c-0.955,1.645 -1.433,3.511 -1.433,5.6c-0,1.956 0.455,3.778 1.367,5.467c0.911,1.689 2.188,3.044 3.833,4.067c1.644,1.022 3.533,1.533 5.667,1.533c1.422,-0 2.788,-0.267 4.1,-0.8c1.311,-0.533 2.477,-1.222 3.5,-2.067l1.6,2.267c-1.245,0.978 -2.678,1.778 -4.3,2.4c-1.623,0.622 -3.278,0.933 -4.967,0.933Z" style="fill-rule:nonzero;"/><path d="M867.449,336.378l-0,-48.4l0.067,-0l23.333,33.133l-1.4,-0.2l23.267,-32.933l0.066,-0l0,48.4l-3.2,-0l0,-40.867l0.267,1.6l-19.733,27.8l-0.134,0l-19.866,-27.8l0.533,-1.466l-0,40.733l-3.2,-0Z" style="fill-rule:nonzero;"/><path d="M937.582,336.911c-2.711,0 -5.111,-0.6 -7.2,-1.8c-2.089,-1.2 -3.722,-2.833 -4.9,-4.9c-1.178,-2.066 -1.766,-4.389 -1.766,-6.966c-0,-2.534 0.622,-4.845 1.866,-6.934c1.245,-2.089 2.922,-3.755 5.034,-5c2.111,-1.244 4.455,-1.866 7.033,-1.866c3.111,-0 5.722,0.911 7.833,2.733c2.111,1.822 3.634,4.2 4.567,7.133l-22.8,8.8l-0.933,-2.266l20.866,-8.134l-0.666,0.934c-0.756,-1.778 -1.9,-3.312 -3.434,-4.6c-1.533,-1.289 -3.411,-1.934 -5.633,-1.934c-2,0 -3.8,0.489 -5.4,1.467c-1.6,0.978 -2.878,2.289 -3.833,3.933c-0.956,1.645 -1.434,3.511 -1.434,5.6c0,1.956 0.456,3.778 1.367,5.467c0.911,1.689 2.189,3.044 3.833,4.067c1.645,1.022 3.534,1.533 5.667,1.533c1.422,-0 2.789,-0.267 4.1,-0.8c1.311,-0.533 2.478,-1.222 3.5,-2.067l1.6,2.267c-1.245,0.978 -2.678,1.778 -4.3,2.4c-1.622,0.622 -3.278,0.933 -4.967,0.933Zm4.6,-40.933l-7.066,8.867l-2.267,-0l5.8,-8.867l3.533,-0Z" style="fill-rule:nonzero;"/><path d="M969.382,336.911c-2.444,0 -4.666,-0.589 -6.666,-1.766c-2,-1.178 -3.589,-2.812 -4.767,-4.9c-1.178,-2.089 -1.767,-4.445 -1.767,-7.067c0,-2.8 0.6,-5.222 1.8,-7.267c1.2,-2.044 2.834,-3.622 4.9,-4.733c2.067,-1.111 4.345,-1.667 6.834,-1.667c2.488,0 4.855,0.645 7.1,1.934c2.244,1.288 3.877,2.977 4.9,5.066l-0.534,1.467l0,-32.267l3.134,0l-0,50.667l-3.2,-0l-0,-8l0.666,1.467c-1.111,2.088 -2.778,3.788 -5,5.1c-2.222,1.311 -4.689,1.966 -7.4,1.966Zm0.8,-2.733c2,-0 3.8,-0.433 5.4,-1.3c1.6,-0.867 2.889,-2.045 3.867,-3.533c0.978,-1.489 1.533,-3.167 1.667,-5.034l-0,-3.333c-0.312,-1.689 -1,-3.2 -2.067,-4.533c-1.067,-1.334 -2.356,-2.389 -3.867,-3.167c-1.511,-0.778 -3.178,-1.167 -5,-1.167c-2,0 -3.822,0.467 -5.466,1.4c-1.645,0.934 -2.956,2.222 -3.934,3.867c-0.978,1.644 -1.466,3.555 -1.466,5.733c-0,2.045 0.488,3.9 1.466,5.567c0.978,1.667 2.3,3 3.967,4c1.667,1 3.478,1.5 5.433,1.5Z" style="fill-rule:nonzero;"/><path d="M1007.52,336.911c-2.712,0 -5.112,-0.6 -7.2,-1.8c-2.089,-1.2 -3.723,-2.833 -4.9,-4.9c-1.178,-2.066 -1.767,-4.389 -1.767,-6.966c-0,-2.534 0.622,-4.845 1.867,-6.934c1.244,-2.089 2.922,-3.755 5.033,-5c2.111,-1.244 4.455,-1.866 7.033,-1.866c3.111,-0 5.722,0.911 7.834,2.733c2.111,1.822 3.633,4.2 4.566,7.133l-22.8,8.8l-0.933,-2.266l20.867,-8.134l-0.667,0.934c-0.756,-1.778 -1.9,-3.312 -3.433,-4.6c-1.534,-1.289 -3.412,-1.934 -5.634,-1.934c-2,0 -3.8,0.489 -5.4,1.467c-1.6,0.978 -2.878,2.289 -3.833,3.933c-0.956,1.645 -1.433,3.511 -1.433,5.6c-0,1.956 0.455,3.778 1.366,5.467c0.911,1.689 2.189,3.044 3.834,4.067c1.644,1.022 3.533,1.533 5.666,1.533c1.422,-0 2.789,-0.267 4.1,-0.8c1.311,-0.533 2.478,-1.222 3.5,-2.067l1.6,2.267c-1.244,0.978 -2.678,1.778 -4.3,2.4c-1.622,0.622 -3.278,0.933 -4.966,0.933Z" style="fill-rule:nonzero;"/><path d="M1048.78,333.845c-1.2,0.977 -2.555,1.733 -4.066,2.266c-1.512,0.534 -3.089,0.8 -4.734,0.8c-2.666,0 -5.044,-0.589 -7.133,-1.766c-2.089,-1.178 -3.733,-2.789 -4.933,-4.834c-1.2,-2.044 -1.8,-4.378 -1.8,-7c-0,-2.622 0.622,-4.955 1.866,-7c1.245,-2.044 2.9,-3.655 4.967,-4.833c2.067,-1.178 4.322,-1.767 6.767,-1.767c1.822,0 3.511,0.267 5.066,0.8c1.556,0.534 2.911,1.289 4.067,2.267l-1.667,2.133c-0.933,-0.755 -2.022,-1.378 -3.266,-1.866c-1.245,-0.489 -2.578,-0.734 -4,-0.734c-1.956,0 -3.745,0.489 -5.367,1.467c-1.622,0.978 -2.911,2.3 -3.867,3.967c-0.955,1.666 -1.433,3.522 -1.433,5.566c-0,2 0.478,3.834 1.433,5.5c0.956,1.667 2.267,2.989 3.934,3.967c1.666,0.978 3.522,1.467 5.566,1.467c1.334,-0 2.578,-0.212 3.734,-0.634c1.155,-0.422 2.2,-0.989 3.133,-1.7l1.733,1.934Z" style="fill-rule:nonzero;"/><path d="M1057.52,310.311l3.133,0l-0,26.067l-3.133,-0l-0,-26.067Zm-0.667,-9.6c-0,-0.622 0.244,-1.144 0.733,-1.566c0.489,-0.423 1.022,-0.634 1.6,-0.634c0.622,0 1.156,0.211 1.6,0.634c0.445,0.422 0.667,0.944 0.667,1.566c-0,0.667 -0.222,1.211 -0.667,1.634c-0.444,0.422 -0.978,0.633 -1.6,0.633c-0.578,-0 -1.111,-0.222 -1.6,-0.667c-0.489,-0.444 -0.733,-0.978 -0.733,-1.6Z" style="fill-rule:nonzero;"/><path d="M1075.25,310.311l0.333,8.2l-0.4,-1.6c0.756,-2.266 2.189,-4.055 4.3,-5.366c2.111,-1.312 4.456,-1.967 7.034,-1.967c2.444,-0 4.422,0.722 5.933,2.167c1.511,1.444 2.289,3.322 2.333,5.633l0,19l-3.2,-0l0,-18.133c-0.044,-1.689 -0.578,-3.089 -1.6,-4.2c-1.022,-1.112 -2.511,-1.689 -4.466,-1.734c-1.734,0 -3.356,0.422 -4.867,1.267c-1.511,0.844 -2.722,2.022 -3.633,3.533c-0.912,1.511 -1.367,3.267 -1.367,5.267l-0,14l-3.133,-0l-0,-26.067l2.733,0Z" style="fill-rule:nonzero;"/><path d="M1117.98,336.911c-2.711,0 -5.111,-0.6 -7.2,-1.8c-2.089,-1.2 -3.722,-2.833 -4.9,-4.9c-1.178,-2.066 -1.766,-4.389 -1.766,-6.966c-0,-2.534 0.622,-4.845 1.866,-6.934c1.245,-2.089 2.922,-3.755 5.034,-5c2.111,-1.244 4.455,-1.866 7.033,-1.866c3.111,-0 5.722,0.911 7.833,2.733c2.111,1.822 3.634,4.2 4.567,7.133l-22.8,8.8l-0.933,-2.266l20.866,-8.134l-0.666,0.934c-0.756,-1.778 -1.9,-3.312 -3.434,-4.6c-1.533,-1.289 -3.411,-1.934 -5.633,-1.934c-2,0 -3.8,0.489 -5.4,1.467c-1.6,0.978 -2.878,2.289 -3.833,3.933c-0.956,1.645 -1.434,3.511 -1.434,5.6c0,1.956 0.456,3.778 1.367,5.467c0.911,1.689 2.189,3.044 3.833,4.067c1.645,1.022 3.534,1.533 5.667,1.533c1.422,-0 2.789,-0.267 4.1,-0.8c1.311,-0.533 2.478,-1.222 3.5,-2.067l1.6,2.267c-1.245,0.978 -2.678,1.778 -4.3,2.4c-1.622,0.622 -3.278,0.933 -4.967,0.933Z" style="fill-rule:nonzero;"/><path d="M1145.25,336.911c-1.511,0 -3.089,-0.278 -4.733,-0.833c-1.645,-0.556 -2.978,-1.456 -4,-2.7l1.466,-2.067c0.889,0.934 1.945,1.678 3.167,2.234c1.222,0.555 2.522,0.833 3.9,0.833c1.022,-0 1.989,-0.145 2.9,-0.433c0.911,-0.289 1.655,-0.789 2.233,-1.5c0.578,-0.712 0.867,-1.667 0.867,-2.867c-0,-1.245 -0.345,-2.2 -1.033,-2.867c-0.689,-0.666 -1.556,-1.211 -2.6,-1.633c-1.045,-0.422 -2.145,-0.811 -3.3,-1.167c-1.912,-0.622 -3.478,-1.466 -4.7,-2.533c-1.223,-1.067 -1.834,-2.578 -1.834,-4.533c0,-1.423 0.345,-2.667 1.034,-3.734c0.688,-1.066 1.633,-1.9 2.833,-2.5c1.2,-0.6 2.555,-0.9 4.067,-0.9c1.377,0 2.744,0.222 4.1,0.667c1.355,0.444 2.588,1.2 3.7,2.267l-1.4,2.2c-0.712,-0.978 -1.656,-1.645 -2.834,-2c-1.178,-0.356 -2.211,-0.556 -3.1,-0.6c-0.755,-0 -1.544,0.155 -2.366,0.466c-0.823,0.311 -1.512,0.767 -2.067,1.367c-0.556,0.6 -0.833,1.389 -0.833,2.367c-0,1.022 0.288,1.855 0.866,2.5c0.578,0.644 1.322,1.166 2.234,1.566c0.911,0.4 1.855,0.778 2.833,1.134c1.289,0.4 2.5,0.877 3.633,1.433c1.134,0.555 2.067,1.289 2.8,2.2c0.734,0.911 1.1,2.122 1.1,3.633c0,1.511 -0.333,2.878 -1,4.1c-0.666,1.222 -1.655,2.178 -2.966,2.867c-1.312,0.689 -2.967,1.033 -4.967,1.033Z" style="fill-rule:nonzero;"/><path d="M1185.72,336.378l-0,-47.333l11.666,-0c4.578,-0 8.478,0.722 11.7,2.166c3.222,1.445 5.834,3.345 7.834,5.7c2,2.356 3.466,4.934 4.4,7.734c0.933,2.8 1.4,5.577 1.4,8.333c-0,3.6 -0.623,6.833 -1.867,9.7c-1.245,2.867 -2.945,5.322 -5.1,7.367c-2.156,2.044 -4.611,3.611 -7.367,4.7c-2.755,1.088 -5.666,1.633 -8.733,1.633l-13.933,-0Zm3.266,-3.133l9.8,-0c2.845,-0 5.511,-0.467 8,-1.4c2.489,-0.934 4.678,-2.289 6.567,-4.067c1.889,-1.778 3.367,-3.922 4.433,-6.433c1.067,-2.512 1.6,-5.367 1.6,-8.567c0,-2.711 -0.455,-5.3 -1.366,-7.767c-0.912,-2.466 -2.278,-4.655 -4.1,-6.566c-1.823,-1.912 -4.067,-3.423 -6.734,-4.534c-2.666,-1.111 -5.778,-1.666 -9.333,-1.666l-8.867,-0l0,41Z" style="fill-rule:nonzero;"/><path d="M1230.65,323.178c-0,-2.533 0.611,-4.845 1.833,-6.933c1.222,-2.089 2.889,-3.745 5,-4.967c2.111,-1.222 4.478,-1.833 7.1,-1.833c2.667,-0 5.045,0.611 7.134,1.833c2.088,1.222 3.733,2.878 4.933,4.967c1.2,2.088 1.8,4.4 1.8,6.933c-0,2.533 -0.6,4.844 -1.8,6.933c-1.2,2.089 -2.856,3.745 -4.967,4.967c-2.111,1.222 -4.478,1.833 -7.1,1.833c-2.666,0 -5.044,-0.589 -7.133,-1.766c-2.089,-1.178 -3.745,-2.8 -4.967,-4.867c-1.222,-2.067 -1.833,-4.433 -1.833,-7.1Zm3.133,0.067c0,2.044 0.478,3.9 1.434,5.566c0.955,1.667 2.244,2.989 3.866,3.967c1.622,0.978 3.434,1.467 5.434,1.467c2,-0 3.811,-0.489 5.433,-1.467c1.622,-0.978 2.911,-2.3 3.867,-3.967c0.955,-1.666 1.433,-3.522 1.433,-5.566c-0,-2.045 -0.478,-3.9 -1.433,-5.567c-0.956,-1.667 -2.245,-3 -3.867,-4c-1.622,-1 -3.433,-1.5 -5.433,-1.5c-2.045,-0 -3.878,0.522 -5.5,1.567c-1.623,1.044 -2.9,2.411 -3.834,4.1c-0.933,1.688 -1.4,3.488 -1.4,5.4Z" style="fill-rule:nonzero;"/><path d="M1275.98,337.111c-2.444,0 -4.4,-0.722 -5.866,-2.166c-1.467,-1.445 -2.245,-3.323 -2.334,-5.634l0,-19l3.134,0l-0,18.067c0.088,1.689 0.633,3.089 1.633,4.2c1,1.111 2.5,1.711 4.5,1.8c1.689,-0 3.267,-0.445 4.733,-1.333c1.467,-0.889 2.656,-2.1 3.567,-3.634c0.911,-1.533 1.367,-3.278 1.367,-5.233l-0,-13.867l3.133,0l-0,26.067l-2.8,-0l-0.333,-8.2l0.466,1.8c-0.444,1.333 -1.233,2.544 -2.366,3.633c-1.134,1.089 -2.467,1.945 -4,2.567c-1.534,0.622 -3.145,0.933 -4.834,0.933Z" style="fill-rule:nonzero;"/><path d="M1321.85,333.845c-1.2,0.977 -2.556,1.733 -4.067,2.266c-1.511,0.534 -3.089,0.8 -4.733,0.8c-2.667,0 -5.045,-0.589 -7.133,-1.766c-2.089,-1.178 -3.734,-2.789 -4.934,-4.834c-1.2,-2.044 -1.8,-4.378 -1.8,-7c0,-2.622 0.622,-4.955 1.867,-7c1.244,-2.044 2.9,-3.655 4.967,-4.833c2.066,-1.178 4.322,-1.767 6.766,-1.767c1.822,0 3.511,0.267 5.067,0.8c1.555,0.534 2.911,1.289 4.067,2.267l-1.667,2.133c-0.933,-0.755 -2.022,-1.378 -3.267,-1.866c-1.244,-0.489 -2.578,-0.734 -4,-0.734c-1.955,0 -3.744,0.489 -5.366,1.467c-1.623,0.978 -2.912,2.3 -3.867,3.967c-0.956,1.666 -1.433,3.522 -1.433,5.566c-0,2 0.477,3.834 1.433,5.5c0.955,1.667 2.267,2.989 3.933,3.967c1.667,0.978 3.522,1.467 5.567,1.467c1.333,-0 2.578,-0.212 3.733,-0.634c1.156,-0.422 2.2,-0.989 3.134,-1.7l1.733,1.934Z" style="fill-rule:nonzero;"/><path d="M1341.92,336.911c-2.712,0 -5.112,-0.6 -7.2,-1.8c-2.089,-1.2 -3.723,-2.833 -4.9,-4.9c-1.178,-2.066 -1.767,-4.389 -1.767,-6.966c-0,-2.534 0.622,-4.845 1.867,-6.934c1.244,-2.089 2.922,-3.755 5.033,-5c2.111,-1.244 4.455,-1.866 7.033,-1.866c3.111,-0 5.722,0.911 7.834,2.733c2.111,1.822 3.633,4.2 4.566,7.133l-22.8,8.8l-0.933,-2.266l20.867,-8.134l-0.667,0.934c-0.756,-1.778 -1.9,-3.312 -3.433,-4.6c-1.534,-1.289 -3.412,-1.934 -5.634,-1.934c-2,0 -3.8,0.489 -5.4,1.467c-1.6,0.978 -2.878,2.289 -3.833,3.933c-0.956,1.645 -1.433,3.511 -1.433,5.6c-0,1.956 0.455,3.778 1.366,5.467c0.911,1.689 2.189,3.044 3.834,4.067c1.644,1.022 3.533,1.533 5.666,1.533c1.422,-0 2.789,-0.267 4.1,-0.8c1.311,-0.533 2.478,-1.222 3.5,-2.067l1.6,2.267c-1.244,0.978 -2.678,1.778 -4.3,2.4c-1.622,0.622 -3.278,0.933 -4.966,0.933Z" style="fill-rule:nonzero;"/><path d="M1369.18,336.911c-1.511,0 -3.089,-0.278 -4.733,-0.833c-1.645,-0.556 -2.978,-1.456 -4,-2.7l1.467,-2.067c0.888,0.934 1.944,1.678 3.166,2.234c1.222,0.555 2.522,0.833 3.9,0.833c1.022,-0 1.989,-0.145 2.9,-0.433c0.911,-0.289 1.656,-0.789 2.234,-1.5c0.577,-0.712 0.866,-1.667 0.866,-2.867c0,-1.245 -0.344,-2.2 -1.033,-2.867c-0.689,-0.666 -1.556,-1.211 -2.6,-1.633c-1.045,-0.422 -2.145,-0.811 -3.3,-1.167c-1.911,-0.622 -3.478,-1.466 -4.7,-2.533c-1.222,-1.067 -1.833,-2.578 -1.833,-4.533c-0,-1.423 0.344,-2.667 1.033,-3.734c0.689,-1.066 1.633,-1.9 2.833,-2.5c1.2,-0.6 2.556,-0.9 4.067,-0.9c1.378,0 2.744,0.222 4.1,0.667c1.355,0.444 2.589,1.2 3.7,2.267l-1.4,2.2c-0.711,-0.978 -1.656,-1.645 -2.833,-2c-1.178,-0.356 -2.212,-0.556 -3.1,-0.6c-0.756,-0 -1.545,0.155 -2.367,0.466c-0.822,0.311 -1.511,0.767 -2.067,1.367c-0.555,0.6 -0.833,1.389 -0.833,2.367c-0,1.022 0.289,1.855 0.867,2.5c0.577,0.644 1.322,1.166 2.233,1.566c0.911,0.4 1.855,0.778 2.833,1.134c1.289,0.4 2.5,0.877 3.634,1.433c1.133,0.555 2.066,1.289 2.8,2.2c0.733,0.911 1.1,2.122 1.1,3.633c-0,1.511 -0.334,2.878 -1,4.1c-0.667,1.222 -1.656,2.178 -2.967,2.867c-1.311,0.689 -2.967,1.033 -4.967,1.033Z" style="fill-rule:nonzero;"/></g><defs><linearGradient id="_Linear1" x1="0" y1="0" x2="1" y2="0" gradientUnits="userSpaceOnUse" gradientTransform="matrix(167.297,165.703,-88.6076,89.4596,87.6246,294.683)"><stop offset="0" style="stop-color:#f67;stop-opacity:0.6"/><stop offset="1" style="stop-color:#ffc0c1;stop-opacity:0.6"/></linearGradient><linearGradient id="_Linear2" x1="0" y1="0" x2="1" y2="0" gradientUnits="userSpaceOnUse" gradientTransform="matrix(235.442,-3.62018,1.93584,125.899,218.584,374.63)"><stop offset="0" style="stop-color:#f67;stop-opacity:0.9"/><stop offset="1" style="stop-color:#ffc0c1;stop-opacity:0.9"/></linearGradient></defs></svg>